<svg width="25" height="25" viewBox="0 0 25 25" fill="none" xmlns="http://www.w3.org/2000/svg">
<path fillRule="evenodd" clipRule="evenodd" d="M21 15.9V5.7C21 4.765 20.235 4 19.3 4H9.09998C8.16498 4 7.39998 4.765 7.39998 5.7V15.9C7.39998 16.835 8.16498 17.6 9.09998 17.6H19.3C20.235 17.6 21 16.835 21 15.9ZM11.99 12.9505L13.3755 14.8035L15.5685 12.0665C15.7385 11.854 16.0615 11.854 16.2315 12.0665L18.7475 15.2115C18.9685 15.492 18.773 15.9 18.416 15.9H9.94999C9.60149 15.9 9.39749 15.5005 9.60999 15.22L11.31 12.9505C11.48 12.7295 11.82 12.7295 11.99 12.9505ZM4 19.3V8.24998C4 7.78248 4.3825 7.39998 4.85 7.39998C5.3175 7.39998 5.7 7.78248 5.7 8.24998V18.45C5.7 18.9175 6.0825 19.3 6.55 19.3H16.75C17.2175 19.3 17.6 19.6825 17.6 20.15C17.6 20.6175 17.2175 21 16.75 21H5.7C4.765 21 4 20.235 4 19.3Z" fill="#4F4F4F"/>
</svg>
