<svg width="61" height="60" viewBox="0 0 61 60" fill="none" xmlns="http://www.w3.org/2000/svg">
<g filter="url(#filter0_d)">
<rect x="10.1934" y="10" width="40" height="40" rx="20" fill="#596C96"/>
</g>
<path fill-rule="evenodd" clip-rule="evenodd" d="M30.9768 21.2673L39.2023 29.4928C39.5587 29.8584 39.5587 30.4342 39.2023 30.7815L30.9768 39.007C30.6204 39.3634 30.0446 39.3634 29.6881 39.007L21.4626 30.7815C21.1062 30.425 21.1062 29.8492 21.4626 29.4928L29.6881 21.2673C29.8589 21.0962 30.0907 21 30.3325 21C30.5742 21 30.806 21.0962 30.9768 21.2673ZM32.1555 30.142V32.4269L35.0345 29.5571C35.2172 29.3743 35.2172 29.091 35.0345 28.9082L32.1555 26.0293V28.3142H27.5858C27.0831 28.3142 26.6719 28.7254 26.6719 29.2281V31.9699C26.6719 32.4726 27.0831 32.8839 27.5858 32.8839C28.0885 32.8839 28.4998 32.4726 28.4998 31.9699V30.142H32.1555Z" fill="white"/>
<defs>
<filter id="filter0_d" x="0.193359" y="0" width="60" height="60" filterUnits="userSpaceOnUse" color-interpolation-filters="sRGB">
<feFlood flood-opacity="0" result="BackgroundImageFix"/>
<feColorMatrix in="SourceAlpha" type="matrix" values="0 0 0 0 0 0 0 0 0 0 0 0 0 0 0 0 0 0 127 0"/>
<feOffset/>
<feGaussianBlur stdDeviation="5"/>
<feColorMatrix type="matrix" values="0 0 0 0 0.808333 0 0 0 0 0.808333 0 0 0 0 0.808333 0 0 0 0.15 0"/>
<feBlend mode="normal" in2="BackgroundImageFix" result="effect1_dropShadow"/>
<feBlend mode="normal" in="SourceGraphic" in2="effect1_dropShadow" result="shape"/>
</filter>
</defs>
</svg>
