<svg width="40" height="40" viewBox="0 0 40 40" fill="none" xmlns="http://www.w3.org/2000/svg">
<path d="M30.0512 0H4.42018C1.98138 0 0 1.98413 0 4.42018V30.0512C0 32.49 1.98413 34.4714 4.42018 34.4714H5.41502C5.64926 34.4714 5.83941 34.2812 5.83941 34.047C5.83941 33.8128 5.64926 33.6226 5.41502 33.6226L4.42018 33.6281C2.44981 33.6281 0.845996 32.0243 0.845996 30.054L0.843239 4.42292C0.843239 2.45255 2.44705 0.848741 4.41742 0.848741H30.0485C32.0188 0.848741 33.6226 2.45255 33.6226 4.42292V30.054C33.6226 32.0243 32.0188 33.6281 30.0485 33.6281H8.76874C8.53451 33.6281 8.34436 33.8183 8.34436 34.0525C8.34436 34.058 8.34712 34.0608 8.34712 34.0663V35.1107C8.34712 35.345 8.53726 35.5351 8.7715 35.5351C9.00573 35.5351 9.19588 35.345 9.19588 35.1107V34.4769H30.0509C32.4897 34.4769 34.4711 32.4928 34.4711 30.0567V9.1989H35.1049C35.3391 9.1989 35.5293 9.00875 35.5293 8.77452C35.5293 8.54028 35.3391 8.35014 35.1049 8.35014H34.4711V4.42047C34.4711 1.98442 32.49 0 30.0512 0Z" fill="black"/>
<path d="M27.1242 40.0001C27.3585 40.0001 27.5486 39.81 27.5486 39.5758C27.5486 39.3415 27.3585 39.1514 27.1242 39.1514H24.9996C24.7653 39.1514 24.5752 39.3415 24.5752 39.5758C24.5752 39.81 24.7653 40.0001 24.9996 40.0001H27.1242Z" fill="black"/>
<path d="M31.8006 39.5753C31.8006 39.341 31.6104 39.1509 31.3762 39.1509H29.2515C29.0173 39.1509 28.8271 39.341 28.8271 39.5753C28.8271 39.8095 29.0173 39.9996 29.2515 39.9996H31.3789C31.6104 39.9996 31.8006 39.8095 31.8006 39.5753Z" fill="black"/>
<path d="M10.0164 39.2444C10.0909 39.2995 10.179 39.3243 10.2645 39.3243C10.3967 39.3243 10.5263 39.2637 10.6089 39.1479C10.744 38.9578 10.7026 38.6932 10.5125 38.5582C9.99716 38.1889 9.61138 37.6819 9.39093 37.0894C9.31101 36.8717 9.06851 36.7587 8.84805 36.8387C8.62759 36.9186 8.51736 37.1638 8.59727 37.3815C8.87284 38.1339 9.36609 38.776 10.0165 39.2444H10.0164Z" fill="black"/>
<path d="M14.3706 40.0001C14.6049 40.0001 14.795 39.8099 14.795 39.5757C14.795 39.3415 14.6049 39.1513 14.3706 39.1513L12.257 39.1486C12.0282 39.1238 11.8271 39.3249 11.8216 39.5592C11.8133 39.7934 11.9979 39.9863 12.2322 39.9946L14.3706 40.0001Z" fill="black"/>
<path d="M18.6231 40.0001C18.8573 40.0001 19.0475 39.81 19.0475 39.5758C19.0475 39.3415 18.8573 39.1514 18.6231 39.1514H16.4957C16.2614 39.1514 16.0713 39.3415 16.0713 39.5758C16.0713 39.81 16.2614 40.0001 16.4957 40.0001H18.6231Z" fill="black"/>
<path d="M22.8752 40.0001C23.1094 40.0001 23.2996 39.81 23.2996 39.5758C23.2996 39.3415 23.1094 39.1514 22.8752 39.1514H20.7506C20.5163 39.1514 20.3262 39.3415 20.3262 39.5758C20.3262 39.81 20.5163 40.0001 20.7506 40.0001H22.8752Z" fill="black"/>
<path d="M39.9972 16.4771C39.9972 16.2429 39.8071 16.0527 39.5728 16.0527C39.3386 16.0527 39.1484 16.2429 39.1484 16.4771V18.6018C39.1484 18.836 39.3386 19.0262 39.5728 19.0262C39.8071 19.0262 39.9972 18.836 39.9972 18.6018V16.4771Z" fill="black"/>
<path d="M39.9972 24.9786C39.9972 24.7443 39.8071 24.5542 39.5728 24.5542C39.3386 24.5542 39.1484 24.7443 39.1484 24.9786V27.1032C39.1484 27.3375 39.3386 27.5276 39.5728 27.5276C39.8071 27.5276 39.9972 27.3375 39.9972 27.1032V24.9786Z" fill="black"/>
<path d="M39.9972 20.7261C39.9972 20.4919 39.8071 20.3018 39.5728 20.3018C39.3386 20.3018 39.1484 20.4919 39.1484 20.7261V22.8508C39.1484 23.085 39.3386 23.2752 39.5728 23.2752C39.8071 23.2752 39.9972 23.085 39.9972 22.8508V20.7261Z" fill="black"/>
<path d="M39.9972 29.23C39.9972 28.9958 39.8071 28.8057 39.5728 28.8057C39.3386 28.8057 39.1484 28.9958 39.1484 29.23V31.3547C39.1484 31.5889 39.3386 31.7791 39.5728 31.7791C39.8071 31.7791 39.9972 31.5889 39.9972 31.3547V29.23Z" fill="black"/>
<path d="M36.8105 8.84353C36.7306 9.06399 36.8463 9.3065 37.064 9.38641C37.6565 9.60136 38.1663 9.98441 38.5411 10.497C38.6238 10.6099 38.7533 10.6706 38.8828 10.6706C38.9683 10.6706 39.0565 10.643 39.1336 10.5879C39.3238 10.4501 39.3623 10.1856 39.2246 9.99541C38.7506 9.34781 38.103 8.86278 37.3534 8.58998C37.1357 8.51282 36.8905 8.62305 36.8106 8.84351L36.8105 8.84353Z" fill="black"/>
<path d="M39.1456 12.2386L39.1484 14.3495C39.1484 14.5838 39.3385 14.7739 39.5728 14.7739C39.807 14.7739 39.9972 14.5838 39.9972 14.3495V12.3517L39.9944 12.2111C39.9861 11.9769 39.7739 11.7867 39.559 11.8005C39.322 11.8088 39.1401 12.0044 39.1456 12.2387L39.1456 12.2386Z" fill="black"/>
<path d="M36.0506 39.5753C36.0506 39.341 35.8604 39.1509 35.6262 39.1509H33.5015C33.2673 39.1509 33.0771 39.341 33.0771 39.5753C33.0771 39.8095 33.2673 39.9996 33.5015 39.9996H35.6262C35.8604 39.9996 36.0506 39.8095 36.0506 39.5753Z" fill="black"/>
<path d="M39.3574 37.2908C39.148 37.1806 38.8945 37.2605 38.7842 37.4672C38.4894 38.0266 38.0374 38.4785 37.4807 38.7789C37.2741 38.8891 37.1969 39.1454 37.3099 39.3521C37.387 39.4926 37.5331 39.5753 37.6819 39.5753C37.7508 39.5753 37.8169 39.5588 37.8803 39.5257C38.5858 39.1482 39.1562 38.5722 39.531 37.864C39.644 37.6546 39.564 37.3983 39.3574 37.2908H39.3574Z" fill="black"/>
<path d="M39.9972 35.6071V33.4825C39.9972 33.2482 39.8071 33.0581 39.5728 33.0581C39.3386 33.0581 39.1484 33.2482 39.1484 33.4825V35.6071C39.1484 35.8414 39.3386 36.0315 39.5728 36.0315C39.8071 36.0288 39.9972 35.8414 39.9972 35.6071Z" fill="black"/>
<path d="M12.6596 16.6334C12.6596 16.3992 12.4695 16.209 12.2352 16.209H6.88089V6.88346H16.2093V14.875C15.8676 14.8915 15.5369 15.021 15.2778 15.2773C14.8728 15.6824 14.7488 16.2666 14.9582 16.8013L19.5768 28.7004C19.7918 29.2543 20.3126 29.6098 20.9051 29.6098H20.9299C21.5334 29.5988 22.0542 29.224 22.2499 28.6536L23.8123 24.17C23.8702 24.0019 24.0025 23.8723 24.1678 23.8145L28.6514 22.252C29.2219 22.0536 29.5994 21.5355 29.6077 20.9292C29.6187 20.3257 29.2605 19.7939 28.6983 19.5734L17.0524 15.0568V6.45856C17.0524 6.22432 16.8623 6.03418 16.628 6.03418L6.45661 6.03694C6.22237 6.03694 6.03223 6.22708 6.03223 6.46132V16.6356C6.03223 16.8698 6.22237 17.0599 6.45661 17.0599L12.2354 17.0544C12.4696 17.0544 12.6598 16.867 12.6598 16.6328L12.6596 16.6334ZM28.7669 20.9186C28.7641 21.0123 28.731 21.3319 28.3783 21.4559L23.8947 23.0184C23.4813 23.1617 23.1616 23.4814 23.0184 23.8947L21.4559 28.3783C21.3319 28.7338 21.0122 28.7669 20.9185 28.7669C20.8359 28.7641 20.5052 28.7476 20.3674 28.3976L15.7488 16.4985C15.6633 16.278 15.7102 16.0466 15.8783 15.8785C15.9913 15.7655 16.1346 15.7076 16.2806 15.7076C16.3523 15.7076 16.4239 15.7214 16.4983 15.7489L28.3974 20.3676C28.7446 20.5026 28.7667 20.8223 28.7667 20.9187L28.7669 20.9186Z" fill="black"/>
<path d="M21.3902 9.19886H25.386C25.6203 9.19886 25.8104 9.00871 25.8104 8.77448C25.8104 8.54024 25.6203 8.3501 25.386 8.3501H21.3902C21.156 8.3501 20.9658 8.54024 20.9658 8.77448C20.9686 9.00871 21.156 9.19886 21.3902 9.19886Z" fill="black"/>
<path d="M21.3902 12.6764H28.4837C28.7179 12.6764 28.9081 12.4863 28.9081 12.252C28.9081 12.0178 28.7179 11.8276 28.4837 11.8276L21.3902 11.8304C21.156 11.8304 20.9658 12.0205 20.9658 12.2548C20.9686 12.4862 21.156 12.6764 21.3902 12.6764V12.6764Z" fill="black"/>
</svg>
