<svg width="431" height="124" viewBox="0 0 431 124" fill="none" xmlns="http://www.w3.org/2000/svg">
<path d="M11.56 12.3102C12.5867 12.3662 13.366 12.6462 13.898 13.1502C14.4393 13.6448 14.71 14.2935 14.71 15.0962C14.71 15.6562 14.5747 16.1555 14.304 16.5942C14.0333 17.0235 13.632 17.3642 13.1 17.6162C12.568 17.8682 11.9193 17.9942 11.154 17.9942C10.4447 17.9942 9.77267 17.8822 9.138 17.6582C8.51267 17.4248 8.00867 17.1168 7.626 16.7342L8.116 15.9362C8.44267 16.2722 8.87667 16.5475 9.418 16.7622C9.95933 16.9675 10.538 17.0702 11.154 17.0702C11.9567 17.0702 12.5773 16.8975 13.016 16.5522C13.4547 16.1975 13.674 15.7122 13.674 15.0962C13.674 14.4895 13.4547 14.0135 13.016 13.6682C12.5773 13.3228 11.9147 13.1502 11.028 13.1502H10.328V12.4082L13.044 9.00616H8.032V8.11016H14.332V8.82416L11.56 12.3102Z" fill="#EF504D"/>
<rect x="36" y="48.6069" width="93.5869" height="39" rx="19.5" stroke="#DCDCDC"/>
<rect width="49" height="29" transform="translate(50 34.3032)" fill="white"/>
<path opacity="0.6" d="M59.1 44.6032H60.156V48.0352H64.556V44.6032H65.623V52.3032H64.556V48.9922H60.156V52.3032H59.1V44.6032ZM70.1437 46.4512C70.723 46.4512 71.2363 46.5759 71.6837 46.8252C72.1383 47.0746 72.4903 47.4229 72.7397 47.8702C72.9963 48.3102 73.1247 48.8162 73.1247 49.3882C73.1247 49.9602 72.9963 50.4699 72.7397 50.9172C72.4903 51.3646 72.1383 51.7129 71.6837 51.9622C71.2363 52.2116 70.723 52.3362 70.1437 52.3362C69.557 52.3362 69.0363 52.2116 68.5817 51.9622C68.1343 51.7129 67.7823 51.3682 67.5257 50.9282C67.2763 50.4809 67.1517 49.9676 67.1517 49.3882C67.1517 48.8162 67.2763 48.3102 67.5257 47.8702C67.7823 47.4229 68.1343 47.0746 68.5817 46.8252C69.0363 46.5759 69.557 46.4512 70.1437 46.4512ZM70.1437 47.3422C69.7623 47.3422 69.4213 47.4302 69.1207 47.6062C68.8273 47.7822 68.5963 48.0279 68.4277 48.3432C68.2663 48.6512 68.1857 49.0032 68.1857 49.3992C68.1857 49.8026 68.2663 50.1619 68.4277 50.4772C68.5963 50.7926 68.8273 51.0382 69.1207 51.2142C69.4213 51.3829 69.7623 51.4672 70.1437 51.4672C70.5177 51.4672 70.8513 51.3829 71.1447 51.2142C71.4453 51.0382 71.6763 50.7926 71.8377 50.4772C72.0063 50.1619 72.0907 49.8026 72.0907 49.3992C72.0907 49.0032 72.0063 48.6512 71.8377 48.3432C71.6763 48.0279 71.4453 47.7822 71.1447 47.6062C70.8513 47.4302 70.5177 47.3422 70.1437 47.3422ZM79.7037 46.4842V52.3032H78.6697V51.0712C78.2884 51.8999 77.5697 52.3216 76.5137 52.3362C75.839 52.3362 75.311 52.1382 74.9297 51.7422C74.5484 51.3389 74.3577 50.7852 74.3577 50.0812V46.4842H75.3917V49.8062C75.3917 50.2976 75.5237 50.6826 75.7877 50.9612C76.059 51.2326 76.4294 51.3682 76.8987 51.3682C77.4414 51.3609 77.8704 51.1702 78.1857 50.7962C78.5084 50.4149 78.6697 49.9309 78.6697 49.3442V46.4842H79.7037ZM82.7222 47.7382C82.9129 47.3202 83.1842 47.0049 83.5362 46.7922C83.8882 46.5722 84.3062 46.4586 84.7902 46.4512V47.4412C84.1962 47.4192 83.7159 47.5732 83.3492 47.9032C82.9826 48.2332 82.7736 48.6769 82.7222 49.2342V52.3032H81.6992V46.4842H82.7222V47.7382ZM89.0784 47.7712C88.8364 47.6246 88.5688 47.5072 88.2754 47.4192C87.9894 47.3312 87.7144 47.2872 87.4504 47.2872C87.1424 47.2872 86.8931 47.3459 86.7024 47.4632C86.5191 47.5732 86.4274 47.7456 86.4274 47.9802C86.4274 48.2149 86.5301 48.3946 86.7354 48.5192C86.9481 48.6366 87.2671 48.7576 87.6924 48.8822C88.0958 48.9996 88.4258 49.1169 88.6824 49.2342C88.9391 49.3516 89.1554 49.5239 89.3314 49.7512C89.5148 49.9786 89.6064 50.2792 89.6064 50.6532C89.6064 51.2032 89.3974 51.6212 88.9794 51.9072C88.5688 52.1932 88.0554 52.3362 87.4394 52.3362C87.0068 52.3362 86.5851 52.2666 86.1744 52.1272C85.7711 51.9879 85.4301 51.7899 85.1514 51.5332L85.5364 50.7852C85.7784 51.0052 86.0754 51.1812 86.4274 51.3132C86.7868 51.4452 87.1351 51.5112 87.4724 51.5112C87.8098 51.5112 88.0811 51.4489 88.2864 51.3242C88.4918 51.1996 88.5944 51.0089 88.5944 50.7522C88.5944 50.4882 88.4844 50.2902 88.2644 50.1582C88.0518 50.0262 87.7254 49.8942 87.2854 49.7622C86.8968 49.6522 86.5778 49.5422 86.3284 49.4322C86.0864 49.3149 85.8774 49.1462 85.7014 48.9262C85.5328 48.7062 85.4484 48.4202 85.4484 48.0682C85.4484 47.5256 85.6464 47.1186 86.0424 46.8472C86.4384 46.5759 86.9334 46.4402 87.5274 46.4402C87.8794 46.4402 88.2241 46.4916 88.5614 46.5942C88.9061 46.6896 89.2031 46.8216 89.4524 46.9902L89.0784 47.7712Z" fill="#4F4F4F"/>
<path d="M63.5888 67.4649C64.5688 67.5209 65.3482 67.7776 65.9268 68.2349C66.5055 68.6923 66.7948 69.3083 66.7948 70.0829C66.7948 70.6896 66.6362 71.2263 66.3188 71.6929C66.0108 72.1596 65.5675 72.5236 64.9888 72.7849C64.4195 73.0463 63.7522 73.1769 62.9868 73.1769C62.3708 73.1769 61.7502 73.0836 61.1248 72.8969C60.5088 72.7103 59.9768 72.4629 59.5288 72.1549L60.1028 71.0629C60.4948 71.3709 60.9335 71.6089 61.4188 71.7769C61.9042 71.9449 62.3988 72.0289 62.9028 72.0289C63.7055 72.0289 64.3355 71.8563 64.7928 71.5109C65.2502 71.1656 65.4788 70.7036 65.4788 70.1249C65.4788 69.5463 65.2502 69.1076 64.7928 68.8089C64.3355 68.5009 63.6915 68.3469 62.8608 68.3469H61.5168V67.4929L64.5268 64.5249H60.0048L59.9908 63.3069H66.2908V64.1609L63.0008 67.4229L63.5888 67.4649ZM71.9463 66.9609C72.665 66.9609 73.295 67.0869 73.8363 67.3389C74.387 67.5909 74.807 67.9409 75.0963 68.3889C75.395 68.8369 75.5443 69.3409 75.5443 69.9009C75.5443 70.5543 75.3903 71.1283 75.0823 71.6229C74.7836 72.1176 74.3543 72.5003 73.7943 72.7709C73.2343 73.0416 72.5856 73.1769 71.8483 73.1769C71.2696 73.1769 70.6583 73.0789 70.0143 72.8829C69.3796 72.6776 68.8103 72.4069 68.3063 72.0709L68.8523 70.9929C69.2723 71.3103 69.7343 71.5529 70.2383 71.7209C70.7423 71.8889 71.237 71.9729 71.7223 71.9729C72.4596 71.9729 73.043 71.7956 73.4723 71.4409C73.9016 71.0863 74.1163 70.6056 74.1163 69.9989C74.1163 69.4296 73.9016 68.9863 73.4723 68.6689C73.043 68.3423 72.4316 68.1789 71.6383 68.1789C71.349 68.1789 70.929 68.1976 70.3783 68.2349C69.8276 68.2723 69.3843 68.3189 69.0483 68.3749V63.3069H75.1383V64.5249H70.3083V67.0169C70.747 66.9796 71.293 66.9609 71.9463 66.9609Z" fill="#4F4F4F"/>
<rect x="148.217" y="48.6069" width="105" height="39" rx="19.5" stroke="#DCDCDC"/>
<rect width="63" height="29" transform="translate(161.717 34.3032)" fill="white"/>
<path opacity="0.6" d="M170.817 44.6032H172.071L174.887 50.0152L177.681 44.6032H178.946V52.3032H177.956L177.945 46.1542L175.206 51.4892H174.557L171.796 46.1542V52.3032H170.817V44.6032ZM181.052 46.4842H182.075V52.3032H181.052V46.4842ZM181.558 44.1632C181.741 44.1632 181.891 44.2256 182.009 44.3502C182.133 44.4749 182.196 44.6326 182.196 44.8232C182.196 45.0139 182.133 45.1716 182.009 45.2962C181.891 45.4209 181.741 45.4832 181.558 45.4832C181.374 45.4832 181.22 45.4209 181.096 45.2962C180.978 45.1716 180.92 45.0139 180.92 44.8232C180.92 44.6326 180.978 44.4749 181.096 44.3502C181.22 44.2256 181.374 44.1632 181.558 44.1632ZM187.304 46.4512C187.986 46.4512 188.522 46.6529 188.91 47.0562C189.299 47.4522 189.493 48.0022 189.493 48.7062V52.3032H188.47V48.9812C188.47 48.4899 188.331 48.1086 188.052 47.8372C187.781 47.5586 187.403 47.4192 186.919 47.4192C186.399 47.4266 185.973 47.5952 185.643 47.9252C185.321 48.2479 185.137 48.6696 185.093 49.1902V52.3032H184.07V46.4842H185.093V47.7162C185.482 46.8876 186.219 46.4659 187.304 46.4512ZM196.469 46.4842V52.3032H195.435V51.0712C195.054 51.8999 194.335 52.3216 193.279 52.3362C192.605 52.3362 192.077 52.1382 191.695 51.7422C191.314 51.3389 191.123 50.7852 191.123 50.0812V46.4842H192.157V49.8062C192.157 50.2976 192.289 50.6826 192.553 50.9612C192.825 51.2326 193.195 51.3682 193.664 51.3682C194.207 51.3609 194.636 51.1702 194.951 50.7962C195.274 50.4149 195.435 49.9309 195.435 49.3442V46.4842H196.469ZM201.589 51.9182C201.142 52.2042 200.687 52.3472 200.225 52.3472C199.763 52.3472 199.389 52.2116 199.103 51.9402C198.817 51.6616 198.674 51.2436 198.674 50.6862V47.4632H197.849V46.6822H198.674V45.1202H199.708V46.6822H201.49V47.4632H199.708V50.4992C199.708 50.8219 199.767 51.0529 199.884 51.1922C200.001 51.3316 200.177 51.4012 200.412 51.4012C200.691 51.4012 200.991 51.3096 201.314 51.1262L201.589 51.9182ZM205.094 46.4512C205.996 46.4512 206.678 46.7189 207.14 47.2542C207.602 47.7822 207.833 48.5192 207.833 49.4652C207.833 49.6119 207.829 49.7219 207.822 49.7952H203.224C203.304 50.3159 203.521 50.7302 203.873 51.0382C204.232 51.3462 204.672 51.5002 205.193 51.5002C205.537 51.5002 205.856 51.4379 206.15 51.3132C206.45 51.1886 206.711 51.0126 206.931 50.7852L207.492 51.3682C207.206 51.6762 206.861 51.9146 206.458 52.0832C206.054 52.2519 205.607 52.3362 205.116 52.3362C204.544 52.3362 204.034 52.2152 203.587 51.9732C203.147 51.7239 202.802 51.3756 202.553 50.9282C202.311 50.4809 202.19 49.9712 202.19 49.3992C202.19 48.8272 202.311 48.3212 202.553 47.8812C202.802 47.4339 203.147 47.0856 203.587 46.8362C204.027 46.5796 204.529 46.4512 205.094 46.4512ZM206.909 49.0032C206.879 48.4752 206.703 48.0609 206.381 47.7602C206.058 47.4522 205.633 47.2982 205.105 47.2982C204.591 47.2982 204.162 47.4522 203.818 47.7602C203.48 48.0682 203.279 48.4826 203.213 49.0032H206.909ZM212.408 47.7712C212.166 47.6246 211.898 47.5072 211.605 47.4192C211.319 47.3312 211.044 47.2872 210.78 47.2872C210.472 47.2872 210.222 47.3459 210.032 47.4632C209.848 47.5732 209.757 47.7456 209.757 47.9802C209.757 48.2149 209.859 48.3946 210.065 48.5192C210.277 48.6366 210.596 48.7576 211.022 48.8822C211.425 48.9996 211.755 49.1169 212.012 49.2342C212.268 49.3516 212.485 49.5239 212.661 49.7512C212.844 49.9786 212.936 50.2792 212.936 50.6532C212.936 51.2032 212.727 51.6212 212.309 51.9072C211.898 52.1932 211.385 52.3362 210.769 52.3362C210.336 52.3362 209.914 52.2666 209.504 52.1272C209.1 51.9879 208.759 51.7899 208.481 51.5332L208.866 50.7852C209.108 51.0052 209.405 51.1812 209.757 51.3132C210.116 51.4452 210.464 51.5112 210.802 51.5112C211.139 51.5112 211.41 51.4489 211.616 51.3242C211.821 51.1996 211.924 51.0089 211.924 50.7522C211.924 50.4882 211.814 50.2902 211.594 50.1582C211.381 50.0262 211.055 49.8942 210.615 49.7622C210.226 49.6522 209.907 49.5422 209.658 49.4322C209.416 49.3149 209.207 49.1462 209.031 48.9262C208.862 48.7062 208.778 48.4202 208.778 48.0682C208.778 47.5256 208.976 47.1186 209.372 46.8472C209.768 46.5759 210.263 46.4402 210.857 46.4402C211.209 46.4402 211.553 46.4916 211.891 46.5942C212.235 46.6896 212.532 46.8216 212.782 46.9902L212.408 47.7712Z" fill="#4F4F4F"/>
<path d="M176.604 63.2509C177.92 63.2509 178.932 63.6803 179.642 64.5389C180.351 65.3883 180.706 66.6109 180.706 68.2069C180.706 69.8029 180.351 71.0303 179.642 71.8889C178.932 72.7476 177.92 73.1769 176.604 73.1769C175.278 73.1769 174.261 72.7476 173.552 71.8889C172.852 71.0303 172.502 69.8029 172.502 68.2069C172.502 66.6109 172.852 65.3883 173.552 64.5389C174.261 63.6803 175.278 63.2509 176.604 63.2509ZM176.604 64.3149C174.793 64.3149 173.888 65.6123 173.888 68.2069C173.888 69.4949 174.116 70.4656 174.574 71.1189C175.031 71.7723 175.708 72.0989 176.604 72.0989C177.5 72.0989 178.176 71.7723 178.634 71.1189C179.091 70.4656 179.32 69.4949 179.32 68.2069C179.32 65.6123 178.414 64.3149 176.604 64.3149ZM186.557 63.2509C187.873 63.2509 188.885 63.6803 189.595 64.5389C190.304 65.3883 190.659 66.6109 190.659 68.2069C190.659 69.8029 190.304 71.0303 189.595 71.8889C188.885 72.7476 187.873 73.1769 186.557 73.1769C185.231 73.1769 184.214 72.7476 183.505 71.8889C182.805 71.0303 182.455 69.8029 182.455 68.2069C182.455 66.6109 182.805 65.3883 183.505 64.5389C184.214 63.6803 185.231 63.2509 186.557 63.2509ZM186.557 64.3149C184.746 64.3149 183.841 65.6123 183.841 68.2069C183.841 69.4949 184.069 70.4656 184.527 71.1189C184.984 71.7723 185.661 72.0989 186.557 72.0989C187.453 72.0989 188.129 71.7723 188.587 71.1189C189.044 70.4656 189.273 69.4949 189.273 68.2069C189.273 65.6123 188.367 64.3149 186.557 64.3149Z" fill="#4F4F4F"/>
<path opacity="0.8" d="M38.192 17.9102H40.46V9.95816H43.596V8.11016H35.056V9.95816H38.192V17.9102ZM47.4807 18.0222C49.8747 18.0222 51.6107 16.4122 51.6107 14.1442C51.6107 11.8762 49.8747 10.2662 47.4807 10.2662C45.0867 10.2662 43.3367 11.8762 43.3367 14.1442C43.3367 16.4122 45.0867 18.0222 47.4807 18.0222ZM47.4807 16.2302C46.3887 16.2302 45.5487 15.4462 45.5487 14.1442C45.5487 12.8422 46.3887 12.0582 47.4807 12.0582C48.5727 12.0582 49.3987 12.8422 49.3987 14.1442C49.3987 15.4462 48.5727 16.2302 47.4807 16.2302ZM57.3405 16.0062C57.1025 16.1882 56.7805 16.2862 56.4585 16.2862C55.8705 16.2862 55.5205 15.9362 55.5205 15.2922V12.2262H57.3965V10.5462H55.5205V8.71216H53.3365V10.5462H52.1745V12.2262H53.3365V15.3202C53.3365 17.1122 54.3725 18.0222 56.1505 18.0222C56.8225 18.0222 57.4805 17.8682 57.9285 17.5462L57.3405 16.0062ZM62.1925 10.2662C60.9885 10.2662 59.7705 10.5882 58.9445 11.1762L59.7285 12.7022C60.2745 12.2682 61.1005 12.0022 61.8985 12.0022C63.0745 12.0022 63.6345 12.5482 63.6345 13.4862H61.8985C59.6025 13.4862 58.6645 14.4102 58.6645 15.7402C58.6645 17.0422 59.7145 18.0222 61.4785 18.0222C62.5845 18.0222 63.3685 17.6582 63.7745 16.9722V17.9102H65.8185V13.6122C65.8185 11.3302 64.4885 10.2662 62.1925 10.2662ZM62.0245 16.5522C61.2545 16.5522 60.7925 16.1882 60.7925 15.6422C60.7925 15.1382 61.1145 14.7602 62.1365 14.7602H63.6345V15.5302C63.3825 16.2162 62.7525 16.5522 62.0245 16.5522ZM67.7951 17.9102H69.9791V7.52216H67.7951V17.9102ZM80.5489 10.2662C79.5829 10.2662 78.7429 10.5742 78.1549 11.1622V7.52216H75.9709V17.9102H78.1549V14.1862C78.1549 12.8002 78.9109 12.1562 79.9609 12.1562C80.9269 12.1562 81.4869 12.7162 81.4869 13.9342V17.9102H83.6709V13.5982C83.6709 11.3022 82.3269 10.2662 80.5489 10.2662ZM89.3166 18.0222C91.7106 18.0222 93.4466 16.4122 93.4466 14.1442C93.4466 11.8762 91.7106 10.2662 89.3166 10.2662C86.9226 10.2662 85.1726 11.8762 85.1726 14.1442C85.1726 16.4122 86.9226 18.0222 89.3166 18.0222ZM89.3166 16.2302C88.2246 16.2302 87.3846 15.4462 87.3846 14.1442C87.3846 12.8422 88.2246 12.0582 89.3166 12.0582C90.4086 12.0582 91.2346 12.8422 91.2346 14.1442C91.2346 15.4462 90.4086 16.2302 89.3166 16.2302ZM100.31 10.3782V14.1022C100.31 15.4882 99.5824 16.1322 98.5744 16.1322C97.6084 16.1322 97.0484 15.5722 97.0484 14.3122V10.3782H94.8644V14.6342C94.8644 16.9582 96.1944 18.0222 98.0844 18.0222C99.0084 18.0222 99.8484 17.6722 100.422 17.0142V17.9102H102.494V10.3782H100.31ZM106.604 11.3722V10.3782H104.518V17.9102H106.702V14.3542C106.702 12.9122 107.5 12.2542 108.704 12.2542C108.872 12.2542 109.012 12.2682 109.194 12.2822V10.2662C108.032 10.2662 107.136 10.6442 106.604 11.3722ZM113.054 18.0222C115.308 18.0222 116.61 17.0282 116.61 15.6282C116.61 12.6602 112.06 13.9062 112.06 12.6182C112.06 12.2262 112.48 11.9182 113.46 11.9182C114.146 11.9182 114.888 12.0582 115.63 12.4782L116.358 10.9242C115.644 10.5042 114.496 10.2662 113.46 10.2662C111.262 10.2662 109.974 11.2742 109.974 12.7022C109.974 15.7122 114.524 14.4522 114.524 15.6842C114.524 16.1042 114.146 16.3702 113.138 16.3702C112.214 16.3702 111.192 16.0762 110.52 15.6422L109.792 17.2102C110.492 17.6722 111.78 18.0222 113.054 18.0222ZM132.086 10.3782L130.252 15.4742L128.46 10.3782H126.612L124.764 15.4742L122.986 10.3782H120.928L123.644 17.9102H125.744L127.494 13.2342L129.188 17.9102H131.288L134.018 10.3782H132.086ZM138.412 18.0222C140.806 18.0222 142.542 16.4122 142.542 14.1442C142.542 11.8762 140.806 10.2662 138.412 10.2662C136.018 10.2662 134.268 11.8762 134.268 14.1442C134.268 16.4122 136.018 18.0222 138.412 18.0222ZM138.412 16.2302C137.32 16.2302 136.48 15.4462 136.48 14.1442C136.48 12.8422 137.32 12.0582 138.412 12.0582C139.504 12.0582 140.33 12.8422 140.33 14.1442C140.33 15.4462 139.504 16.2302 138.412 16.2302ZM146.088 11.3722V10.3782H144.002V17.9102H146.186V14.3542C146.186 12.9122 146.984 12.2542 148.188 12.2542C148.356 12.2542 148.496 12.2682 148.678 12.2822V10.2662C147.516 10.2662 146.62 10.6442 146.088 11.3722ZM155.591 17.9102H158.237L154.821 13.5702L157.957 10.3782H155.353L152.161 13.4022V7.52216H149.977V17.9102H152.161V15.9922L153.211 14.9562L155.591 17.9102ZM166.269 14.1722C166.269 11.7502 164.561 10.2662 162.349 10.2662C160.053 10.2662 158.331 11.8902 158.331 14.1442C158.331 16.3842 160.025 18.0222 162.629 18.0222C163.987 18.0222 165.037 17.6022 165.737 16.8042L164.575 15.5442C164.057 16.0342 163.483 16.2722 162.685 16.2722C161.537 16.2722 160.739 15.6982 160.529 14.7602H166.227C166.241 14.5782 166.269 14.3402 166.269 14.1722ZM162.363 11.9182C163.343 11.9182 164.057 12.5342 164.211 13.4862H160.501C160.655 12.5202 161.369 11.9182 162.363 11.9182ZM173.211 7.52216V11.1762C172.665 10.5602 171.881 10.2662 170.957 10.2662C168.829 10.2662 167.191 11.7782 167.191 14.1442C167.191 16.5102 168.829 18.0222 170.957 18.0222C171.965 18.0222 172.763 17.7002 173.309 17.0422V17.9102H175.395V7.52216H173.211ZM171.335 16.2302C170.243 16.2302 169.403 15.4462 169.403 14.1442C169.403 12.8422 170.243 12.0582 171.335 12.0582C172.413 12.0582 173.253 12.8422 173.253 14.1442C173.253 15.4462 172.413 16.2302 171.335 16.2302ZM183.775 10.2242C183.775 9.48216 184.125 9.13216 184.769 9.13216C185.105 9.13216 185.413 9.23016 185.651 9.39816L186.225 7.81616C185.819 7.53616 185.175 7.41016 184.559 7.41016C182.683 7.41016 181.647 8.51616 181.647 10.2102V10.5462H180.485V12.2262H181.647V17.9102H183.831V12.2262H185.707V10.5462H183.775V10.2242ZM190.283 18.0222C192.677 18.0222 194.413 16.4122 194.413 14.1442C194.413 11.8762 192.677 10.2662 190.283 10.2662C187.889 10.2662 186.139 11.8762 186.139 14.1442C186.139 16.4122 187.889 18.0222 190.283 18.0222ZM190.283 16.2302C189.191 16.2302 188.351 15.4462 188.351 14.1442C188.351 12.8422 189.191 12.0582 190.283 12.0582C191.375 12.0582 192.201 12.8422 192.201 14.1442C192.201 15.4462 191.375 16.2302 190.283 16.2302ZM197.959 11.3722V10.3782H195.873V17.9102H198.057V14.3542C198.057 12.9122 198.855 12.2542 200.059 12.2542C200.227 12.2542 200.367 12.2682 200.549 12.2822V10.2662C199.387 10.2662 198.491 10.6442 197.959 11.3722ZM205.223 8.11016V11.5542H207.239V9.95816H210.487L206.973 17.9102H209.437L213.077 9.58016V8.11016H205.223ZM218.668 17.9102H223.12C226.326 17.9102 228.524 15.9782 228.524 13.0102C228.524 10.0422 226.326 8.11016 223.12 8.11016H218.668V17.9102ZM220.936 16.0482V9.97216H223.008C224.954 9.97216 226.228 11.1342 226.228 13.0102C226.228 14.8862 224.954 16.0482 223.008 16.0482H220.936ZM233.118 10.2662C231.914 10.2662 230.696 10.5882 229.87 11.1762L230.654 12.7022C231.2 12.2682 232.026 12.0022 232.824 12.0022C234 12.0022 234.56 12.5482 234.56 13.4862H232.824C230.528 13.4862 229.59 14.4102 229.59 15.7402C229.59 17.0422 230.64 18.0222 232.404 18.0222C233.51 18.0222 234.294 17.6582 234.7 16.9722V17.9102H236.744V13.6122C236.744 11.3302 235.414 10.2662 233.118 10.2662ZM232.95 16.5522C232.18 16.5522 231.718 16.1882 231.718 15.6422C231.718 15.1382 232.04 14.7602 233.062 14.7602H234.56V15.5302C234.308 16.2162 233.678 16.5522 232.95 16.5522ZM243.96 10.3782L241.832 15.4882L239.718 10.3782H237.464L240.726 17.9662L240.698 18.0362C240.404 18.7082 240.068 18.9742 239.466 18.9742C239.032 18.9742 238.57 18.7922 238.234 18.4982L237.436 20.0522C237.926 20.4862 238.766 20.7382 239.536 20.7382C240.894 20.7382 241.93 20.1922 242.658 18.3722L246.06 10.3782H243.96ZM249.376 18.0222C251.63 18.0222 252.932 17.0282 252.932 15.6282C252.932 12.6602 248.382 13.9062 248.382 12.6182C248.382 12.2262 248.802 11.9182 249.782 11.9182C250.468 11.9182 251.21 12.0582 251.952 12.4782L252.68 10.9242C251.966 10.5042 250.818 10.2662 249.782 10.2662C247.584 10.2662 246.296 11.2742 246.296 12.7022C246.296 15.7122 250.846 14.4522 250.846 15.6842C250.846 16.1042 250.468 16.3702 249.46 16.3702C248.536 16.3702 247.514 16.0762 246.842 15.6422L246.114 17.2102C246.814 17.6722 248.102 18.0222 249.376 18.0222Z" fill="#4F4F4F"/>
<circle cx="12" cy="12.9102" r="11.5" stroke="#EF504D"/>
<rect x="165.717" y="103.91" width="96.5977" height="20" rx="10" fill="#F4F5FF"/>
<path d="M179.696 113.103H179.069L179.19 111.64H182.402V110.21H177.705L177.309 114.544H179.278C180.675 114.544 181.071 114.94 181.071 115.545C181.071 116.172 180.521 116.546 179.63 116.546C178.827 116.546 178.024 116.293 177.441 115.853L176.737 117.217C177.485 117.745 178.607 118.042 179.674 118.042C181.874 118.042 182.875 116.854 182.875 115.49C182.875 114.126 181.973 113.103 179.696 113.103ZM192.477 110.21V113.246H188.979V110.21H187.197V117.91H188.979V114.753H192.477V117.91H194.259V110.21H192.477ZM197.599 112.773V111.992H195.96V117.91H197.676V115.116C197.676 113.983 198.303 113.466 199.249 113.466C199.381 113.466 199.491 113.477 199.634 113.488V111.904C198.721 111.904 198.017 112.201 197.599 112.773ZM202.667 117.998C204.438 117.998 205.461 117.217 205.461 116.117C205.461 113.785 201.886 114.764 201.886 113.752C201.886 113.444 202.216 113.202 202.986 113.202C203.525 113.202 204.108 113.312 204.691 113.642L205.263 112.421C204.702 112.091 203.8 111.904 202.986 111.904C201.259 111.904 200.247 112.696 200.247 113.818C200.247 116.183 203.822 115.193 203.822 116.161C203.822 116.491 203.525 116.7 202.733 116.7C202.007 116.7 201.204 116.469 200.676 116.128L200.104 117.36C200.654 117.723 201.666 117.998 202.667 117.998ZM210.284 114.049C210.878 114.049 211.351 113.598 211.351 112.971C211.351 112.333 210.878 111.915 210.284 111.915C209.69 111.915 209.217 112.333 209.217 112.971C209.217 113.598 209.69 114.049 210.284 114.049ZM210.284 117.998C210.878 117.998 211.351 117.547 211.351 116.92C211.351 116.282 210.878 115.864 210.284 115.864C209.69 115.864 209.217 116.282 209.217 116.92C209.217 117.547 209.69 117.998 210.284 117.998ZM218.566 118.042C220.469 118.042 221.866 116.601 221.866 114.06C221.866 111.519 220.469 110.078 218.566 110.078C216.674 110.078 215.266 111.519 215.266 114.06C215.266 116.601 216.674 118.042 218.566 118.042ZM218.566 116.535C217.686 116.535 217.07 115.809 217.07 114.06C217.07 112.311 217.686 111.585 218.566 111.585C219.457 111.585 220.073 112.311 220.073 114.06C220.073 115.809 219.457 116.535 218.566 116.535ZM226.032 118.042C227.935 118.042 229.332 116.601 229.332 114.06C229.332 111.519 227.935 110.078 226.032 110.078C224.14 110.078 222.732 111.519 222.732 114.06C222.732 116.601 224.14 118.042 226.032 118.042ZM226.032 116.535C225.152 116.535 224.536 115.809 224.536 114.06C224.536 112.311 225.152 111.585 226.032 111.585C226.923 111.585 227.539 112.311 227.539 114.06C227.539 115.809 226.923 116.535 226.032 116.535ZM242.476 117.91L242.454 110.21H240.991L238.153 114.995L235.271 110.21H233.797V117.91H235.469V113.389L237.724 117.096H238.527L240.793 113.29L240.804 117.91H242.476ZM245.04 111.167C245.678 111.167 246.107 110.749 246.107 110.177C246.107 109.649 245.678 109.253 245.04 109.253C244.402 109.253 243.973 109.671 243.973 110.21C243.973 110.749 244.402 111.167 245.04 111.167ZM244.182 117.91H245.898V111.992H244.182V117.91ZM251.087 111.904C250.284 111.904 249.591 112.179 249.129 112.685V111.992H247.49V117.91H249.206V114.984C249.206 113.895 249.8 113.389 250.625 113.389C251.384 113.389 251.824 113.829 251.824 114.786V117.91H253.54V114.522C253.54 112.718 252.484 111.904 251.087 111.904Z" fill="#3573B9"/>
<path d="M42.689 110.21V117.91H41.886V114.357H37.068V117.91H36.254V110.21H37.068V113.642H41.886V110.21H42.689ZM47.4022 117.965C46.8449 117.965 46.3426 117.84 45.8952 117.591C45.4479 117.334 45.0959 116.982 44.8392 116.535C44.5826 116.088 44.4542 115.582 44.4542 115.017C44.4542 114.452 44.5826 113.946 44.8392 113.499C45.0959 113.052 45.4479 112.703 45.8952 112.454C46.3426 112.205 46.8449 112.08 47.4022 112.08C47.9596 112.08 48.4619 112.205 48.9092 112.454C49.3566 112.703 49.7049 113.052 49.9542 113.499C50.2109 113.946 50.3392 114.452 50.3392 115.017C50.3392 115.582 50.2109 116.088 49.9542 116.535C49.7049 116.982 49.3566 117.334 48.9092 117.591C48.4619 117.84 47.9596 117.965 47.4022 117.965ZM47.4022 117.272C47.8129 117.272 48.1796 117.18 48.5022 116.997C48.8322 116.806 49.0889 116.539 49.2722 116.194C49.4556 115.849 49.5472 115.457 49.5472 115.017C49.5472 114.577 49.4556 114.185 49.2722 113.84C49.0889 113.495 48.8322 113.231 48.5022 113.048C48.1796 112.857 47.8129 112.762 47.4022 112.762C46.9916 112.762 46.6212 112.857 46.2912 113.048C45.9686 113.231 45.7119 113.495 45.5212 113.84C45.3379 114.185 45.2462 114.577 45.2462 115.017C45.2462 115.457 45.3379 115.849 45.5212 116.194C45.7119 116.539 45.9686 116.806 46.2912 116.997C46.6212 117.18 46.9916 117.272 47.4022 117.272ZM57.1477 112.124V117.91H56.3997V116.854C56.1944 117.206 55.9121 117.481 55.5527 117.679C55.1934 117.87 54.7827 117.965 54.3207 117.965C53.5654 117.965 52.9677 117.756 52.5277 117.338C52.0951 116.913 51.8787 116.293 51.8787 115.479V112.124H52.6597V115.402C52.6597 116.011 52.8101 116.473 53.1107 116.788C53.4114 117.103 53.8404 117.261 54.3977 117.261C55.0064 117.261 55.4867 117.078 55.8387 116.711C56.1907 116.337 56.3667 115.82 56.3667 115.16V112.124H57.1477ZM60.0831 113.257C60.2664 112.868 60.5378 112.575 60.8971 112.377C61.2638 112.179 61.7148 112.08 62.2501 112.08V112.839L62.0631 112.828C61.4544 112.828 60.9778 113.015 60.6331 113.389C60.2884 113.763 60.1161 114.287 60.1161 114.962V117.91H59.3351V112.124H60.0831V113.257ZM65.2582 117.965C64.7888 117.965 64.3378 117.899 63.9052 117.767C63.4798 117.628 63.1462 117.455 62.9042 117.25L63.2562 116.634C63.4982 116.825 63.8025 116.982 64.1692 117.107C64.5358 117.224 64.9172 117.283 65.3132 117.283C65.8412 117.283 66.2298 117.202 66.4792 117.041C66.7358 116.872 66.8642 116.638 66.8642 116.337C66.8642 116.124 66.7945 115.959 66.6552 115.842C66.5158 115.717 66.3398 115.626 66.1272 115.567C65.9145 115.501 65.6322 115.439 65.2802 115.38C64.8108 115.292 64.4332 115.204 64.1472 115.116C63.8612 115.021 63.6155 114.863 63.4102 114.643C63.2122 114.423 63.1132 114.119 63.1132 113.73C63.1132 113.246 63.3148 112.85 63.7182 112.542C64.1215 112.234 64.6825 112.08 65.4012 112.08C65.7752 112.08 66.1492 112.131 66.5232 112.234C66.8972 112.329 67.2052 112.458 67.4472 112.619L67.1062 113.246C66.6295 112.916 66.0612 112.751 65.4012 112.751C64.9025 112.751 64.5248 112.839 64.2682 113.015C64.0188 113.191 63.8942 113.422 63.8942 113.708C63.8942 113.928 63.9638 114.104 64.1032 114.236C64.2498 114.368 64.4295 114.467 64.6422 114.533C64.8548 114.592 65.1482 114.654 65.5222 114.72C65.9842 114.808 66.3545 114.896 66.6332 114.984C66.9118 115.072 67.1502 115.222 67.3482 115.435C67.5462 115.648 67.6452 115.941 67.6452 116.315C67.6452 116.821 67.4325 117.224 67.0072 117.525C66.5892 117.818 66.0062 117.965 65.2582 117.965ZM80.4599 112.124L78.2709 117.91H77.5339L75.7079 113.169L73.8819 117.91H73.1449L70.9669 112.124H71.7149L73.5299 117.041L75.3889 112.124H76.0599L77.9079 117.041L79.7449 112.124H80.4599ZM83.8397 117.965C83.2824 117.965 82.7801 117.84 82.3327 117.591C81.8854 117.334 81.5334 116.982 81.2767 116.535C81.0201 116.088 80.8917 115.582 80.8917 115.017C80.8917 114.452 81.0201 113.946 81.2767 113.499C81.5334 113.052 81.8854 112.703 82.3327 112.454C82.7801 112.205 83.2824 112.08 83.8397 112.08C84.3971 112.08 84.8994 112.205 85.3467 112.454C85.7941 112.703 86.1424 113.052 86.3917 113.499C86.6484 113.946 86.7767 114.452 86.7767 115.017C86.7767 115.582 86.6484 116.088 86.3917 116.535C86.1424 116.982 85.7941 117.334 85.3467 117.591C84.8994 117.84 84.3971 117.965 83.8397 117.965ZM83.8397 117.272C84.2504 117.272 84.6171 117.18 84.9397 116.997C85.2697 116.806 85.5264 116.539 85.7097 116.194C85.8931 115.849 85.9847 115.457 85.9847 115.017C85.9847 114.577 85.8931 114.185 85.7097 113.84C85.5264 113.495 85.2697 113.231 84.9397 113.048C84.6171 112.857 84.2504 112.762 83.8397 112.762C83.4291 112.762 83.0587 112.857 82.7287 113.048C82.4061 113.231 82.1494 113.495 81.9587 113.84C81.7754 114.185 81.6837 114.577 81.6837 115.017C81.6837 115.457 81.7754 115.849 81.9587 116.194C82.1494 116.539 82.4061 116.806 82.7287 116.997C83.0587 117.18 83.4291 117.272 83.8397 117.272ZM89.1192 113.257C89.3026 112.868 89.5739 112.575 89.9332 112.377C90.2999 112.179 90.7509 112.08 91.2862 112.08V112.839L91.0992 112.828C90.4906 112.828 90.0139 113.015 89.6692 113.389C89.3246 113.763 89.1522 114.287 89.1522 114.962V117.91H88.3712V112.124H89.1192V113.257ZM94.8453 115.006L93.4813 116.26V117.91H92.7003V109.748H93.4813V115.281L96.9353 112.124H97.9033L95.4283 114.489L98.1343 117.91H97.1773L94.8453 115.006ZM104.108 115.259H99.2684C99.3124 115.86 99.5434 116.348 99.9614 116.722C100.379 117.089 100.907 117.272 101.545 117.272C101.905 117.272 102.235 117.21 102.535 117.085C102.836 116.953 103.096 116.762 103.316 116.513L103.756 117.019C103.5 117.327 103.177 117.562 102.788 117.723C102.407 117.884 101.985 117.965 101.523 117.965C100.929 117.965 100.401 117.84 99.9394 117.591C99.4848 117.334 99.1291 116.982 98.8724 116.535C98.6158 116.088 98.4874 115.582 98.4874 115.017C98.4874 114.452 98.6084 113.946 98.8504 113.499C99.0998 113.052 99.4371 112.703 99.8624 112.454C100.295 112.205 100.779 112.08 101.314 112.08C101.85 112.08 102.33 112.205 102.755 112.454C103.181 112.703 103.514 113.052 103.756 113.499C103.998 113.939 104.119 114.445 104.119 115.017L104.108 115.259ZM101.314 112.751C100.757 112.751 100.288 112.931 99.9064 113.29C99.5324 113.642 99.3198 114.104 99.2684 114.676H103.371C103.32 114.104 103.104 113.642 102.722 113.29C102.348 112.931 101.879 112.751 101.314 112.751ZM110.989 109.748V117.91H110.241V116.766C110.006 117.155 109.695 117.452 109.306 117.657C108.925 117.862 108.492 117.965 108.008 117.965C107.465 117.965 106.974 117.84 106.534 117.591C106.094 117.342 105.749 116.993 105.5 116.546C105.251 116.099 105.126 115.589 105.126 115.017C105.126 114.445 105.251 113.935 105.5 113.488C105.749 113.041 106.094 112.696 106.534 112.454C106.974 112.205 107.465 112.08 108.008 112.08C108.477 112.08 108.899 112.179 109.273 112.377C109.654 112.568 109.966 112.85 110.208 113.224V109.748H110.989ZM108.074 117.272C108.477 117.272 108.84 117.18 109.163 116.997C109.493 116.806 109.75 116.539 109.933 116.194C110.124 115.849 110.219 115.457 110.219 115.017C110.219 114.577 110.124 114.185 109.933 113.84C109.75 113.495 109.493 113.231 109.163 113.048C108.84 112.857 108.477 112.762 108.074 112.762C107.663 112.762 107.293 112.857 106.963 113.048C106.64 113.231 106.384 113.495 106.193 113.84C106.01 114.185 105.918 114.577 105.918 115.017C105.918 115.457 106.01 115.849 106.193 116.194C106.384 116.539 106.64 116.806 106.963 116.997C107.293 117.18 107.663 117.272 108.074 117.272ZM119.024 112.08C119.567 112.08 120.058 112.205 120.498 112.454C120.938 112.696 121.283 113.041 121.532 113.488C121.781 113.935 121.906 114.445 121.906 115.017C121.906 115.596 121.781 116.11 121.532 116.557C121.283 117.004 120.938 117.353 120.498 117.602C120.065 117.844 119.574 117.965 119.024 117.965C118.555 117.965 118.129 117.87 117.748 117.679C117.374 117.481 117.066 117.195 116.824 116.821V120.044H116.043V112.124H116.791V113.268C117.026 112.887 117.334 112.593 117.715 112.388C118.104 112.183 118.54 112.08 119.024 112.08ZM118.969 117.272C119.372 117.272 119.739 117.18 120.069 116.997C120.399 116.806 120.656 116.539 120.839 116.194C121.03 115.849 121.125 115.457 121.125 115.017C121.125 114.577 121.03 114.188 120.839 113.851C120.656 113.506 120.399 113.239 120.069 113.048C119.739 112.857 119.372 112.762 118.969 112.762C118.558 112.762 118.188 112.857 117.858 113.048C117.535 113.239 117.279 113.506 117.088 113.851C116.905 114.188 116.813 114.577 116.813 115.017C116.813 115.457 116.905 115.849 117.088 116.194C117.279 116.539 117.535 116.806 117.858 116.997C118.188 117.18 118.558 117.272 118.969 117.272ZM128.536 115.259H123.696C123.74 115.86 123.971 116.348 124.389 116.722C124.807 117.089 125.335 117.272 125.973 117.272C126.333 117.272 126.663 117.21 126.963 117.085C127.264 116.953 127.524 116.762 127.744 116.513L128.184 117.019C127.928 117.327 127.605 117.562 127.216 117.723C126.835 117.884 126.413 117.965 125.951 117.965C125.357 117.965 124.829 117.84 124.367 117.591C123.913 117.334 123.557 116.982 123.3 116.535C123.044 116.088 122.915 115.582 122.915 115.017C122.915 114.452 123.036 113.946 123.278 113.499C123.528 113.052 123.865 112.703 124.29 112.454C124.723 112.205 125.207 112.08 125.742 112.08C126.278 112.08 126.758 112.205 127.183 112.454C127.609 112.703 127.942 113.052 128.184 113.499C128.426 113.939 128.547 114.445 128.547 115.017L128.536 115.259ZM125.742 112.751C125.185 112.751 124.716 112.931 124.334 113.29C123.96 113.642 123.748 114.104 123.696 114.676H127.799C127.748 114.104 127.532 113.642 127.15 113.29C126.776 112.931 126.307 112.751 125.742 112.751ZM130.885 113.257C131.068 112.868 131.34 112.575 131.699 112.377C132.066 112.179 132.517 112.08 133.052 112.08V112.839L132.865 112.828C132.256 112.828 131.78 113.015 131.435 113.389C131.09 113.763 130.918 114.287 130.918 114.962V117.91H130.137V112.124H130.885V113.257ZM142.711 109.748V117.91H141.963V116.766C141.728 117.155 141.416 117.452 141.028 117.657C140.646 117.862 140.214 117.965 139.73 117.965C139.187 117.965 138.696 117.84 138.256 117.591C137.816 117.342 137.471 116.993 137.222 116.546C136.972 116.099 136.848 115.589 136.848 115.017C136.848 114.445 136.972 113.935 137.222 113.488C137.471 113.041 137.816 112.696 138.256 112.454C138.696 112.205 139.187 112.08 139.73 112.08C140.199 112.08 140.621 112.179 140.995 112.377C141.376 112.568 141.688 112.85 141.93 113.224V109.748H142.711ZM139.796 117.272C140.199 117.272 140.562 117.18 140.885 116.997C141.215 116.806 141.471 116.539 141.655 116.194C141.845 115.849 141.941 115.457 141.941 115.017C141.941 114.577 141.845 114.185 141.655 113.84C141.471 113.495 141.215 113.231 140.885 113.048C140.562 112.857 140.199 112.762 139.796 112.762C139.385 112.762 139.015 112.857 138.685 113.048C138.362 113.231 138.105 113.495 137.915 113.84C137.731 114.185 137.64 114.577 137.64 115.017C137.64 115.457 137.731 115.849 137.915 116.194C138.105 116.539 138.362 116.806 138.685 116.997C139.015 117.18 139.385 117.272 139.796 117.272ZM146.91 112.08C147.665 112.08 148.245 112.271 148.648 112.652C149.051 113.026 149.253 113.583 149.253 114.324V117.91H148.505V117.008C148.329 117.309 148.069 117.543 147.724 117.712C147.387 117.881 146.983 117.965 146.514 117.965C145.869 117.965 145.355 117.811 144.974 117.503C144.593 117.195 144.402 116.788 144.402 116.282C144.402 115.791 144.578 115.395 144.93 115.094C145.289 114.793 145.858 114.643 146.635 114.643H148.472V114.291C148.472 113.792 148.333 113.415 148.054 113.158C147.775 112.894 147.368 112.762 146.833 112.762C146.466 112.762 146.114 112.824 145.777 112.949C145.44 113.066 145.15 113.231 144.908 113.444L144.556 112.861C144.849 112.612 145.201 112.421 145.612 112.289C146.023 112.15 146.455 112.08 146.91 112.08ZM146.635 117.349C147.075 117.349 147.453 117.25 147.768 117.052C148.083 116.847 148.318 116.553 148.472 116.172V115.226H146.657C145.667 115.226 145.172 115.571 145.172 116.26C145.172 116.597 145.3 116.865 145.557 117.063C145.814 117.254 146.173 117.349 146.635 117.349ZM156.129 112.124L153.236 118.603C153.001 119.146 152.73 119.531 152.422 119.758C152.114 119.985 151.743 120.099 151.311 120.099C151.032 120.099 150.772 120.055 150.53 119.967C150.288 119.879 150.079 119.747 149.903 119.571L150.266 118.988C150.559 119.281 150.911 119.428 151.322 119.428C151.586 119.428 151.809 119.355 151.993 119.208C152.183 119.061 152.359 118.812 152.521 118.46L152.774 117.899L150.189 112.124H151.003L153.181 117.041L155.359 112.124H156.129Z" fill="#656565"/>
<circle cx="139.584" cy="63.8423" r="1.5391" fill="#727272"/>
<circle cx="139.584" cy="73.107" r="1.5391" fill="#727272"/>
<path d="M103.24 74.1835L107.863 77.8095L112.486 74.1835C112.709 74.0085 113.011 73.9102 113.326 73.9102C113.641 73.9102 113.944 74.0085 114.166 74.1835C114.631 74.548 114.631 75.1367 114.166 75.5012L108.697 79.7907C108.233 80.1551 107.482 80.1551 107.017 79.7907L101.548 75.5012C101.084 75.1367 101.084 74.548 101.548 74.1835C102.013 73.8284 102.776 73.819 103.24 74.1835Z" fill="#919DB9"/>
<path d="M225.383 74.1835L230.006 77.8095L234.629 74.1835C234.851 74.0085 235.154 73.9102 235.469 73.9102C235.784 73.9102 236.086 74.0085 236.309 74.1835C236.773 74.548 236.773 75.1367 236.309 75.5012L230.84 79.7907C230.375 80.1551 229.624 80.1551 229.16 79.7907L223.691 75.5012C223.226 75.1367 223.226 74.548 223.691 74.1835C224.156 73.8284 224.918 73.819 225.383 74.1835Z" fill="#919DB9"/>
<path d="M112.475 60.7906L107.852 57.1647L103.229 60.7906C103.006 60.9656 102.704 61.064 102.389 61.064C102.074 61.064 101.771 60.9656 101.549 60.7906C101.084 60.4262 101.084 59.8374 101.549 59.4729L107.018 55.1835C107.482 54.819 108.233 54.819 108.698 55.1835L114.167 59.4729C114.631 59.8374 114.631 60.4262 114.167 60.7906C113.702 61.1457 112.939 61.1551 112.475 60.7906Z" fill="#919DB9"/>
<path d="M234.617 60.7906L229.994 57.1647L225.371 60.7906C225.149 60.9656 224.846 61.064 224.531 61.064C224.216 61.064 223.914 60.9656 223.691 60.7906C223.227 60.4262 223.227 59.8374 223.691 59.4729L229.16 55.1835C229.625 54.819 230.376 54.819 230.84 55.1835L236.309 59.4729C236.774 59.8374 236.774 60.4262 236.309 60.7906C235.844 61.1457 235.082 61.1551 234.617 60.7906Z" fill="#919DB9"/>
</svg>
