<svg width="400" height="172" viewBox="0 0 400 172" fill="none" xmlns="http://www.w3.org/2000/svg">
<mask id="mask0" mask-type="alpha" maskUnits="userSpaceOnUse" x="39" y="26" width="22" height="29">
<path fill-rule="evenodd" clip-rule="evenodd" d="M49.9663 26.751C44.295 26.751 39.7031 31.3488 39.7031 37.0142C39.7031 40.1319 40.5657 41.4917 44.6289 47.8976L44.629 47.8977C45.5202 49.3027 46.5654 50.9505 47.7892 52.9128C48.7933 54.5228 51.1405 54.5208 52.1434 52.9128C53.3675 50.9501 54.4128 49.3021 55.304 47.897C59.3692 41.4879 60.2296 40.1315 60.2296 37.0142C60.2296 31.3429 55.6317 26.751 49.9663 26.751ZM49.9663 51.5538C48.6389 49.4252 47.5364 47.6854 46.6218 46.2418C42.8433 40.2785 42.2689 39.3721 42.2689 37.0142C42.2689 32.763 45.7152 29.3168 49.9663 29.3168C54.2175 29.3168 57.6638 32.763 57.6638 37.0142C57.6638 39.3664 57.1363 40.1994 53.3177 46.2293L53.3177 46.2293C52.4023 47.6747 51.2979 49.4187 49.9663 51.5538ZM49.9663 32.7379C47.6046 32.7379 45.69 34.6524 45.69 37.0142C45.69 39.376 47.6046 41.2905 49.9663 41.2905C52.3281 41.2905 54.2427 39.376 54.2427 37.0142C54.2427 34.6524 52.3281 32.7379 49.9663 32.7379Z" fill="white"/>
</mask>
<g mask="url(#mask0)">
<rect x="36.2822" y="26.751" width="27.3686" height="27.3686" fill="#CCD6EB"/>
</g>
<mask id="mask1" mask-type="alpha" maskUnits="userSpaceOnUse" x="107" y="22" width="25" height="22">
<path fill-rule="evenodd" clip-rule="evenodd" d="M128.894 22.7085H109.669C108.444 22.7085 107.45 23.7021 107.45 24.9268V41.1948C107.45 42.4195 108.444 43.4131 109.669 43.4131H128.894C130.119 43.4131 131.113 42.4195 131.113 41.1948V24.9268C131.113 23.7021 130.119 22.7085 128.894 22.7085ZM125.197 26.4057C125.197 25.5877 125.858 24.9268 126.676 24.9268C127.494 24.9268 128.155 25.5877 128.155 26.4057C128.155 27.2238 127.494 27.8847 126.676 27.8847C125.858 27.8847 125.197 27.2238 125.197 26.4057ZM122.239 24.9268C121.421 24.9268 120.76 25.5877 120.76 26.4057C120.76 27.2238 121.421 27.8847 122.239 27.8847C123.057 27.8847 123.718 27.2238 123.718 26.4057C123.718 25.5877 123.057 24.9268 122.239 24.9268ZM116.324 26.4057C116.324 25.5877 116.984 24.9268 117.803 24.9268C118.621 24.9268 119.281 25.5877 119.281 26.4057C119.281 27.2238 118.621 27.8847 117.803 27.8847C116.984 27.8847 116.324 27.2238 116.324 26.4057ZM128.617 41.1948C128.769 41.1948 128.894 41.07 128.894 40.9175V30.103H109.669V40.9175C109.669 41.07 109.793 41.1948 109.946 41.1948H128.617Z" fill="white"/>
</mask>
<g mask="url(#mask1)">
<rect x="107.45" y="21.2295" width="23.6624" height="23.6624" fill="#CCD6EB"/>
</g>
<mask id="mask2" mask-type="alpha" maskUnits="userSpaceOnUse" x="374" y="84" width="25" height="27">
<path fill-rule="evenodd" clip-rule="evenodd" d="M395.113 100.422L398.02 103.795C398.339 104.167 398.413 104.696 398.208 105.142C398.004 105.587 397.559 105.875 397.067 105.875H388.267V107.158L389.854 109.693C390.132 110.254 389.729 110.908 389.105 110.908H384.077C383.454 110.908 383.05 110.248 383.328 109.693L384.915 107.158V105.875H376.116C375.623 105.875 375.178 105.587 374.974 105.142C374.769 104.696 374.843 104.167 375.162 103.795L378.064 100.417H377.786C377.294 100.417 376.849 100.134 376.645 99.6891C376.44 99.2439 376.514 98.7201 376.828 98.3482L379.688 94.9698H379.049C378.556 94.9698 378.106 94.6818 377.902 94.2261C377.703 93.7756 377.786 93.2466 378.116 92.8747L385.659 84.489C386.135 83.96 387.052 83.96 387.529 84.489L395.066 92.88C395.396 93.2466 395.48 93.7756 395.281 94.2313C395.082 94.6818 394.631 94.9751 394.134 94.9751H393.489L396.349 98.3534C396.669 98.7253 396.737 99.2491 396.532 99.6943C396.323 100.14 395.878 100.422 395.391 100.422H395.113ZM383.553 97.9082L378.86 103.361H394.327L389.629 97.9082H392.677L388.068 92.4557H391.31L386.591 87.2075L381.867 92.4557H385.109L380.5 97.9082H383.553Z" fill="white"/>
</mask>
<g mask="url(#mask2)">
<rect x="373.183" y="84.0908" width="26.8174" height="26.8174" fill="#CCD6EB"/>
</g>
<mask id="mask3" mask-type="alpha" maskUnits="userSpaceOnUse" x="115" y="145" width="23" height="27">
<path fill-rule="evenodd" clip-rule="evenodd" d="M137.157 155.681L134.557 153.081C134.106 152.63 133.494 152.377 132.857 152.377H131.447V149.971C131.447 148.643 130.37 147.566 129.042 147.566H125.964C125.513 146.619 124.547 145.962 123.429 145.962C122.312 145.962 121.345 146.619 120.894 147.566H117.817C116.488 147.566 115.411 148.643 115.411 149.971V164.404C115.411 165.733 116.488 166.81 117.817 166.81H121.826V169.215C121.826 170.544 122.903 171.62 124.231 171.62H135.456C136.785 171.62 137.862 170.544 137.862 169.215V157.382C137.862 156.744 137.608 156.133 137.157 155.681ZM132.945 154.87L135.368 157.294C135.425 157.351 135.456 157.427 135.456 157.507V157.99H132.249V154.782H132.732C132.812 154.782 132.888 154.814 132.945 154.87ZM124.331 148.769C124.331 148.271 123.927 147.867 123.429 147.867C122.931 147.867 122.527 148.271 122.527 148.769C122.527 149.267 122.931 149.671 123.429 149.671C123.927 149.671 124.331 149.267 124.331 148.769ZM121.826 154.782V164.404H118.117C117.951 164.404 117.817 164.27 117.817 164.103V150.272C117.817 150.106 117.951 149.971 118.117 149.971H120.894C121.345 150.919 122.312 151.575 123.429 151.575C124.547 151.575 125.513 150.919 125.964 149.971H128.741C128.907 149.971 129.042 150.106 129.042 150.272V152.377H124.231C122.903 152.377 121.826 153.454 121.826 154.782ZM124.231 168.914C124.231 169.08 124.366 169.215 124.532 169.215H135.156C135.322 169.215 135.456 169.08 135.456 168.914V160.395H131.047C130.382 160.395 129.844 159.857 129.844 159.192V154.782H124.532C124.366 154.782 124.231 154.917 124.231 155.083V168.914Z" fill="white"/>
</mask>
<g mask="url(#mask3)">
<rect x="113.808" y="145.962" width="25.658" height="25.658" fill="#CCD6EB"/>
</g>
<mask id="mask4" mask-type="alpha" maskUnits="userSpaceOnUse" x="242" y="9" width="28" height="27">
<path fill-rule="evenodd" clip-rule="evenodd" d="M242.753 22.2943C242.753 14.9755 248.689 9.0376 256.01 9.0376C263.331 9.0376 269.266 14.9755 269.266 22.2943C269.266 29.6173 263.331 35.5509 256.01 35.5509C248.689 35.5509 242.753 29.6173 242.753 22.2943ZM245.319 22.2943C245.319 28.2046 250.101 32.9851 256.01 32.9851C261.92 32.9851 266.7 28.2026 266.7 22.2943C266.7 16.386 261.916 11.6034 256.01 11.6034C250.101 11.6034 245.319 16.3878 245.319 22.2943ZM261.742 19.3436C261.742 21.5727 260.245 22.4368 259.113 23.0902C258.424 23.4874 257.871 23.8067 257.871 24.3075V24.6462C257.871 25.0005 257.584 25.2877 257.23 25.2877H254.79C254.435 25.2877 254.148 25.0005 254.148 24.6462V24.1834C254.148 22.3184 255.528 21.5461 256.612 20.9394L256.691 20.8951C257.63 20.3688 258.205 20.0109 258.205 19.314C258.205 18.3921 257.029 17.7802 256.079 17.7802C254.839 17.7802 254.267 18.367 253.463 19.3822C253.246 19.6559 252.85 19.7067 252.572 19.4957L251.084 18.3679C250.811 18.161 250.75 17.7764 250.943 17.4933C252.206 15.6387 253.815 14.5968 256.319 14.5968C258.942 14.5968 261.742 16.6444 261.742 19.3436ZM256.01 30.5262C257.248 30.5262 258.255 29.5191 258.255 28.2811C258.255 27.0432 257.248 26.0361 256.01 26.0361C254.772 26.0361 253.765 27.0432 253.765 28.2811C253.765 29.5191 254.772 30.5262 256.01 30.5262Z" fill="white"/>
</mask>
<g mask="url(#mask4)">
<rect x="242.325" y="8.60986" width="27.3686" height="27.3686" fill="#CCD6EB"/>
</g>
<mask id="mask5" mask-type="alpha" maskUnits="userSpaceOnUse" x="172" y="128" width="29" height="22">
<path fill-rule="evenodd" clip-rule="evenodd" d="M199.335 146.812H175.387V129.706C175.387 129.234 175.004 128.851 174.532 128.851H173.677C173.204 128.851 172.821 129.234 172.821 129.706V147.667C172.821 148.612 173.587 149.378 174.532 149.378H199.335C199.807 149.378 200.19 148.995 200.19 148.522V147.667C200.19 147.194 199.807 146.812 199.335 146.812ZM194.032 144.246H195.229C195.571 144.246 195.914 143.904 195.914 143.562V131.246C195.914 130.904 195.571 130.562 195.229 130.562H194.032C193.69 130.562 193.348 130.904 193.348 131.246V143.562C193.348 143.904 193.69 144.246 194.032 144.246ZM183.769 144.246H184.966C185.308 144.246 185.65 143.904 185.65 143.562V132.956C185.65 132.614 185.308 132.272 184.966 132.272H183.769C183.427 132.272 183.085 132.614 183.085 132.956V143.562C183.085 143.904 183.427 144.246 183.769 144.246ZM190.098 144.246H188.9C188.558 144.246 188.216 143.904 188.216 143.562V136.377C188.216 136.035 188.558 135.693 188.9 135.693H190.098C190.44 135.693 190.782 136.035 190.782 136.377V143.562C190.782 143.904 190.44 144.246 190.098 144.246ZM179.834 144.246H178.637C178.295 144.246 177.953 143.904 177.953 143.562V139.799C177.953 139.456 178.295 139.114 178.637 139.114H179.834C180.177 139.114 180.519 139.456 180.519 139.799V143.562C180.519 143.904 180.177 144.246 179.834 144.246Z" fill="white"/>
</mask>
<g mask="url(#mask5)">
<rect x="172.821" y="125.43" width="27.3686" height="27.3686" fill="#CCD6EB"/>
</g>
<mask id="mask6" mask-type="alpha" maskUnits="userSpaceOnUse" x="172" y="4" width="33" height="24">
<path fill-rule="evenodd" clip-rule="evenodd" d="M201.565 22.8415C201.184 22.4606 200.971 21.9427 200.971 21.4044V14.3458C200.971 13.8075 201.184 13.2895 201.565 12.9086L204.388 10.0852C204.703 9.77034 204.703 9.25237 204.388 8.93752L203.815 8.36369C203.5 8.04885 202.982 8.04885 202.667 8.36369L199.844 11.1871C199.006 12.025 198.533 13.1625 198.533 14.3458V16.6563H196.502V14.6251C196.502 13.7262 195.776 13 194.877 13H192.724L188.438 5.86524C188.072 5.25586 187.407 4.875 186.696 4.875H180.252C179.353 4.875 178.627 5.60625 178.627 6.50001V13H173.752C172.853 13 172.127 13.7262 172.127 14.6251V21.1251C172.127 22.0239 172.853 22.7501 173.752 22.7501C173.752 25.4415 175.936 27.6251 178.627 27.6251C181.318 27.6251 183.502 25.4415 183.502 22.7501H186.752C186.752 25.4415 188.936 27.6251 191.627 27.6251C194.318 27.6251 196.502 25.4415 196.502 22.7501V19.0938H198.533V21.4044C198.533 22.5876 199.006 23.7251 199.844 24.563L202.667 27.3865C202.982 27.7013 203.5 27.7013 203.815 27.3865L204.388 26.8126C204.703 26.4978 204.703 25.9798 204.388 25.665L201.565 22.8415ZM181.065 7.31251H186.468L189.88 13H181.065V7.31251ZM176.189 22.7501C176.189 24.0958 177.281 25.1876 178.627 25.1876C179.973 25.1876 181.065 24.0958 181.065 22.7501C181.065 21.4044 179.973 20.3126 178.627 20.3126C177.281 20.3126 176.189 21.4044 176.189 22.7501ZM182.827 20.3126C181.984 18.8602 180.43 17.8751 178.627 17.8751C176.931 17.8751 175.438 18.7434 174.564 20.0638V15.4376H194.065V18.5505C193.343 18.1341 192.521 17.8751 191.627 17.8751C189.829 17.8751 188.27 18.8602 187.427 20.3126H182.827ZM189.19 22.7501C189.19 24.0958 190.281 25.1876 191.627 25.1876C192.973 25.1876 194.065 24.0958 194.065 22.7501C194.065 21.4044 192.973 20.3126 191.627 20.3126C190.281 20.3126 189.19 21.4044 189.19 22.7501Z" fill="white"/>
</mask>
<g mask="url(#mask6)">
<rect x="172.127" width="32.5002" height="32.5002" fill="#CCD6EB"/>
</g>
<mask id="mask7" mask-type="alpha" maskUnits="userSpaceOnUse" x="321" y="31" width="27" height="27">
<path fill-rule="evenodd" clip-rule="evenodd" d="M341.208 49.4427L347.482 55.717C347.725 55.9599 347.725 56.3527 347.482 56.5956L346.314 57.7637C346.071 58.0066 345.678 58.0066 345.435 57.7637L339.161 51.4894C339.047 51.3705 338.98 51.2154 338.98 51.05V50.3678C337.094 51.9958 334.639 52.983 331.951 52.983C326.013 52.983 321.201 48.1713 321.201 42.2329C321.201 36.2946 326.013 31.4829 331.951 31.4829C337.89 31.4829 342.701 36.2946 342.701 42.2329C342.701 44.9205 341.714 47.3754 340.086 49.2618H340.768C340.934 49.2618 341.089 49.3238 341.208 49.4427ZM323.682 42.2329C323.682 46.8017 327.382 50.5022 331.951 50.5022C336.52 50.5022 340.22 46.8017 340.22 42.2329C340.22 37.6642 336.52 33.9637 331.951 33.9637C327.382 33.9637 323.682 37.6642 323.682 42.2329Z" fill="white"/>
</mask>
<g mask="url(#mask7)">
<rect x="321.201" y="31.4829" width="26.5133" height="26.5133" fill="#CCD6EB"/>
</g>
<mask id="mask8" mask-type="alpha" maskUnits="userSpaceOnUse" x="51" y="125" width="26" height="30">
<path fill-rule="evenodd" clip-rule="evenodd" d="M71.8691 135.236H56.4208C56.1699 135.236 55.9665 135.033 55.9665 134.782V132.964C55.9665 132.713 56.1699 132.51 56.4208 132.51H56.8752C56.8752 129.874 58.4956 127.652 60.7821 126.693L62.3275 129.784V126.149C62.3275 125.647 62.7344 125.24 63.2362 125.24H65.0537C65.5556 125.24 65.9624 125.647 65.9624 126.149V129.784L67.5078 126.693C69.7944 127.652 71.4147 129.874 71.4147 132.51H71.8691C72.12 132.51 72.3235 132.713 72.3235 132.964V134.782C72.3235 135.033 72.12 135.236 71.8691 135.236ZM59.6934 137.054C60.1278 139.167 61.987 140.686 64.145 140.689C66.3034 140.686 68.1632 139.168 68.5977 137.054H71.3239C70.8724 140.635 67.8497 143.415 64.1455 143.415C60.4414 143.415 57.4216 140.635 56.9672 137.054H59.6934ZM67.348 145.603C67.9674 145.407 68.5188 145.232 69.2338 145.232C73.4496 145.232 76.8671 148.65 76.8671 152.865C76.8671 153.668 76.2161 154.319 75.4131 154.319H52.8768C52.0738 154.319 51.4229 153.668 51.4229 152.865C51.4229 150.841 52.2274 148.899 53.6594 147.467C55.0914 146.035 57.0335 145.232 59.0584 145.232C59.7721 145.232 60.3228 145.407 60.9417 145.603C61.7351 145.854 62.6405 146.141 64.145 146.141C65.649 146.141 66.5543 145.854 67.348 145.603ZM54.316 151.593C54.895 149.45 56.8383 147.96 59.0584 147.958C59.3427 147.958 59.6912 148.068 60.1466 148.21C61.0046 148.479 62.2422 148.867 64.145 148.867C66.0546 148.867 67.2895 148.479 68.1459 148.21L68.1459 148.21C68.6004 148.068 68.9483 147.958 69.2338 147.958C71.4533 147.961 73.3957 149.45 73.9739 151.593H54.316Z" fill="white"/>
</mask>
<g mask="url(#mask8)">
<rect x="49.6055" y="125.24" width="29.0791" height="29.0791" fill="#CCD6EB"/>
</g>
<mask id="mask9" mask-type="alpha" maskUnits="userSpaceOnUse" x="253" y="139" width="26" height="26">
<path fill-rule="evenodd" clip-rule="evenodd" d="M266.045 139.516C259.18 139.516 253.617 145.078 253.617 151.944C253.617 158.809 259.18 164.372 266.045 164.372C272.911 164.372 278.473 158.809 278.473 151.944C278.473 145.078 272.911 139.516 266.045 139.516ZM266.045 161.966C260.518 161.966 256.023 157.471 256.023 151.944C256.023 146.416 260.518 141.921 266.045 141.921C271.573 141.921 276.068 146.416 276.068 151.944C276.068 157.471 271.573 161.966 266.045 161.966ZM266.847 150.34C266.847 148.346 268.461 146.732 270.455 146.732C272.45 146.732 274.063 148.346 274.063 150.34C274.063 152.335 272.45 153.948 270.455 153.948C268.461 153.948 266.847 152.335 266.847 150.34ZM270.455 152.345C269.348 152.345 268.451 151.448 268.451 150.34C268.451 149.659 268.817 149.082 269.338 148.721C269.288 148.852 269.253 148.987 269.253 149.137C269.253 149.804 269.789 150.34 270.455 150.34C271.122 150.34 271.658 149.804 271.658 149.137C271.658 148.992 271.623 148.852 271.573 148.721C272.094 149.082 272.46 149.659 272.46 150.34C272.46 151.448 271.563 152.345 270.455 152.345ZM261.635 146.732C263.63 146.732 265.243 148.346 265.243 150.34C265.243 152.335 263.63 153.948 261.635 153.948C259.641 153.948 258.027 152.335 258.027 150.34C258.027 148.346 259.641 146.732 261.635 146.732ZM259.631 150.34C259.631 149.659 259.997 149.082 260.518 148.721C260.468 148.852 260.433 148.987 260.433 149.137C260.433 149.804 260.969 150.34 261.635 150.34C262.302 150.34 262.838 149.804 262.838 149.137C262.838 148.992 262.803 148.852 262.753 148.721C263.274 149.082 263.64 149.659 263.64 150.34C263.64 151.448 262.743 152.345 261.635 152.345C260.528 152.345 259.631 151.448 259.631 150.34ZM261.635 157.957C261.635 157.296 262.177 156.755 262.838 156.755H269.253C269.914 156.755 270.455 157.296 270.455 157.957C270.455 158.619 269.914 159.16 269.253 159.16H262.838C262.177 159.16 261.635 158.619 261.635 157.957Z" fill="white"/>
</mask>
<g mask="url(#mask9)">
<rect x="253.216" y="139.115" width="25.658" height="25.658" fill="#CCD6EB"/>
</g>
<mask id="mask10" mask-type="alpha" maskUnits="userSpaceOnUse" x="4" y="88" width="20" height="18">
<path fill-rule="evenodd" clip-rule="evenodd" d="M6.46804 88.5546L14.3151 96.4659C14.5664 96.7171 14.5664 97.1234 14.3151 97.3746L6.46804 105.286C6.21681 105.537 5.81056 105.537 5.55932 105.286L4.50093 104.227C4.24969 103.976 4.24969 103.57 4.50093 103.319L10.8353 96.9202L4.50093 90.5218C4.24969 90.2705 4.24969 89.8643 4.50093 89.613L5.55932 88.5546C5.81056 88.3034 6.21681 88.3034 6.46804 88.5546ZM15.0207 105.286L22.8678 97.3746C23.119 97.1234 23.119 96.7171 22.8678 96.4659L15.0207 88.5546C14.7695 88.3034 14.3632 88.3034 14.112 88.5546L13.0536 89.613C12.8024 89.8643 12.8024 90.2705 13.0536 90.5218L19.3879 96.9202L13.0536 103.319C12.8024 103.57 12.8024 103.976 13.0536 104.227L14.112 105.286C14.3632 105.537 14.7695 105.537 15.0207 105.286Z" fill="white"/>
</mask>
<g mask="url(#mask10)">
<rect y="83.2358" width="27.3686" height="27.3686" fill="#CCD6EB"/>
</g>
<mask id="mask11" mask-type="alpha" maskUnits="userSpaceOnUse" x="323" y="130" width="28" height="25">
<path fill-rule="evenodd" clip-rule="evenodd" d="M337.124 135.96C343.721 139.541 347.576 139.108 348.596 138.884C349.807 138.637 350.626 140.039 349.876 140.979C346.168 145.63 341.317 146.732 341.084 146.785L341.082 146.785C338.26 147.395 336.105 147.605 334.792 147.67C334.775 147.671 334.754 147.672 334.729 147.673C334.087 147.701 330.692 147.854 327.072 150.286V153.806C327.072 154.011 326.905 154.179 326.7 154.179H325.21C325.005 154.179 324.838 154.011 324.838 153.806V135.295C323.962 134.876 323.348 133.986 323.348 132.948C323.348 131.509 324.516 130.341 325.955 130.341C327.58 130.341 329.004 131.91 328.432 133.726C330.722 133.614 333.651 134.079 337.124 135.96ZM334.68 145.44C335.909 145.374 337.934 145.179 340.611 144.602C340.612 144.601 340.615 144.601 340.619 144.6C340.797 144.556 343.77 143.823 346.575 141.254C344.299 141.175 340.779 140.481 336.058 137.925C332.175 135.821 329.126 135.714 327.072 136.114V147.67C328.832 146.664 331.439 145.603 334.68 145.44Z" fill="white"/>
</mask>
<g mask="url(#mask11)">
<rect x="323.348" y="128.851" width="26.8174" height="26.8174" fill="#CCD6EB"/>
</g>
<path d="M224.342 15.1176C226.511 14.5752 227.297 9.57353 223.799 11.3214C222.715 11.8633 223.257 8.60986 222.173 8.60986C219.461 8.60999 220.164 10.4911 220.004 12.4061C218.378 12.4061 216.75 16.2022 218.919 16.2022C222.349 16.2022 220.004 16.2022 222.173 18.3715C223.908 20.1069 224.342 16.9253 224.342 15.1176Z" fill="#DDE5F7"/>
<path d="M39.8237 80.7631C41.9923 80.2207 43.1911 79.8145 39.2808 76.9669C38.3007 76.2531 38.2882 73.8276 37.2042 73.8276C34.4921 73.8278 35.6451 76.1366 35.4855 78.0516C33.8591 78.0516 32.2317 81.8476 34.4007 81.8476C37.8306 81.8476 35.4852 81.8477 37.6544 84.0169C39.3898 85.7523 39.8237 82.5708 39.8237 80.7631Z" fill="#DDE5F7"/>
<path d="M381.55 57.2348C383.719 56.6924 384.918 56.2862 381.007 53.4386C380.027 52.7248 380.015 50.2993 378.931 50.2993C376.219 50.2994 377.372 52.6082 377.212 54.5233C375.586 54.5233 373.958 58.3193 376.127 58.3193C379.557 58.3193 377.212 58.3194 379.381 60.4886C381.116 62.224 381.55 59.0425 381.55 57.2348Z" fill="#DDE5F7"/>
<path d="M233.171 148.616C235.34 148.074 236.539 147.668 232.628 144.82C231.648 144.106 231.636 141.681 230.552 141.681C227.84 141.681 228.993 143.99 228.833 145.905C227.207 145.905 225.579 149.701 227.748 149.701C231.178 149.701 228.833 149.701 231.002 151.87C232.737 153.605 233.171 150.424 233.171 148.616Z" fill="#DDE5F7"/>
<path d="M151.92 140.491C154.089 139.948 154.876 134.947 151.377 136.694C150.293 137.236 150.835 133.983 149.751 133.983C147.039 133.983 147.742 135.864 147.582 137.779C145.956 137.779 144.328 141.575 146.497 141.575C149.927 141.575 147.582 141.575 149.751 143.745C151.487 145.48 151.92 142.298 151.92 140.491Z" fill="#DDE5F7"/>
<circle cx="289.954" cy="18.9492" r="4.27634" fill="#DDE5F7"/>
<circle cx="113.807" cy="130.562" r="3.42107" fill="#DDE5F7"/>
<circle cx="35.9221" cy="113.226" r="3.42107" fill="#DDE5F7"/>
<path d="M78.7606 26.751L75.6816 31.455L80.3001 36.1589L83.3791 31.455L78.7606 26.751Z" fill="#DDE5F7" stroke="#DDE4F6" stroke-linejoin="round"/>
<path d="M289.651 127.996L286.572 132.7L291.191 137.404L294.27 132.7L289.651 127.996Z" fill="#DDE5F7" stroke="#DDE4F6" stroke-linejoin="round"/>
<path d="M110.4 78.2V95H106.512V88.112H98.88V95H94.992V78.2H98.88V84.824H106.512V78.2H110.4ZM126.759 88.592C126.759 88.64 126.735 88.976 126.687 89.6H116.919C117.095 90.4 117.511 91.032 118.167 91.496C118.823 91.96 119.639 92.192 120.615 92.192C121.287 92.192 121.879 92.096 122.391 91.904C122.919 91.696 123.407 91.376 123.855 90.944L125.847 93.104C124.631 94.496 122.855 95.192 120.519 95.192C119.063 95.192 117.775 94.912 116.655 94.352C115.535 93.776 114.671 92.984 114.063 91.976C113.455 90.968 113.151 89.824 113.151 88.544C113.151 87.28 113.447 86.144 114.039 85.136C114.647 84.112 115.471 83.32 116.511 82.76C117.567 82.184 118.743 81.896 120.039 81.896C121.303 81.896 122.447 82.168 123.471 82.712C124.495 83.256 125.295 84.04 125.871 85.064C126.463 86.072 126.759 87.248 126.759 88.592ZM120.063 84.728C119.215 84.728 118.503 84.968 117.927 85.448C117.351 85.928 116.999 86.584 116.871 87.416H123.231C123.103 86.6 122.751 85.952 122.175 85.472C121.599 84.976 120.895 84.728 120.063 84.728ZM129.251 77.192H132.995V95H129.251V77.192ZM144.102 81.896C145.302 81.896 146.39 82.176 147.366 82.736C148.358 83.28 149.134 84.056 149.694 85.064C150.254 86.056 150.534 87.216 150.534 88.544C150.534 89.872 150.254 91.04 149.694 92.048C149.134 93.04 148.358 93.816 147.366 94.376C146.39 94.92 145.302 95.192 144.102 95.192C142.454 95.192 141.158 94.672 140.214 93.632V99.656H136.47V82.088H140.046V83.576C140.974 82.456 142.326 81.896 144.102 81.896ZM143.454 92.12C144.414 92.12 145.198 91.8 145.806 91.16C146.43 90.504 146.742 89.632 146.742 88.544C146.742 87.456 146.43 86.592 145.806 85.952C145.198 85.296 144.414 84.968 143.454 84.968C142.494 84.968 141.702 85.296 141.078 85.952C140.47 86.592 140.166 87.456 140.166 88.544C140.166 89.632 140.47 90.504 141.078 91.16C141.702 91.8 142.494 92.12 143.454 92.12ZM165.045 81.896C167.045 81.896 168.581 82.376 169.653 83.336C170.725 84.28 171.261 85.712 171.261 87.632V95H167.757V93.392C167.053 94.592 165.741 95.192 163.821 95.192C162.829 95.192 161.965 95.024 161.229 94.688C160.509 94.352 159.957 93.888 159.573 93.296C159.189 92.704 158.997 92.032 158.997 91.28C158.997 90.08 159.445 89.136 160.341 88.448C161.253 87.76 162.653 87.416 164.541 87.416H167.517C167.517 86.6 167.269 85.976 166.773 85.544C166.277 85.096 165.533 84.872 164.541 84.872C163.853 84.872 163.173 84.984 162.501 85.208C161.845 85.416 161.285 85.704 160.821 86.072L159.477 83.456C160.181 82.96 161.021 82.576 161.997 82.304C162.989 82.032 164.005 81.896 165.045 81.896ZM164.757 92.672C165.397 92.672 165.965 92.528 166.461 92.24C166.957 91.936 167.309 91.496 167.517 90.92V89.6H164.949C163.413 89.6 162.645 90.104 162.645 91.112C162.645 91.592 162.829 91.976 163.197 92.264C163.581 92.536 164.101 92.672 164.757 92.672ZM182.498 81.896C184.098 81.896 185.386 82.376 186.362 83.336C187.354 84.296 187.85 85.72 187.85 87.608V95H184.106V88.184C184.106 87.16 183.882 86.4 183.434 85.904C182.986 85.392 182.338 85.136 181.49 85.136C180.546 85.136 179.794 85.432 179.234 86.024C178.674 86.6 178.394 87.464 178.394 88.616V95H174.65V82.088H178.226V83.6C178.722 83.056 179.338 82.64 180.074 82.352C180.81 82.048 181.618 81.896 182.498 81.896ZM204.536 77.192V95H200.96V93.512C200.032 94.632 198.688 95.192 196.928 95.192C195.712 95.192 194.608 94.92 193.616 94.376C192.64 93.832 191.872 93.056 191.312 92.048C190.752 91.04 190.472 89.872 190.472 88.544C190.472 87.216 190.752 86.048 191.312 85.04C191.872 84.032 192.64 83.256 193.616 82.712C194.608 82.168 195.712 81.896 196.928 81.896C198.576 81.896 199.864 82.416 200.792 83.456V77.192H204.536ZM197.576 92.12C198.52 92.12 199.304 91.8 199.928 91.16C200.552 90.504 200.864 89.632 200.864 88.544C200.864 87.456 200.552 86.592 199.928 85.952C199.304 85.296 198.52 84.968 197.576 84.968C196.616 84.968 195.824 85.296 195.2 85.952C194.576 86.592 194.264 87.456 194.264 88.544C194.264 89.632 194.576 90.504 195.2 91.16C195.824 91.8 196.616 92.12 197.576 92.12ZM220.582 95.288C219.254 95.288 217.966 95.112 216.718 94.76C215.486 94.392 214.494 93.92 213.742 93.344L215.062 90.416C215.782 90.944 216.638 91.368 217.63 91.688C218.622 92.008 219.614 92.168 220.606 92.168C221.71 92.168 222.526 92.008 223.054 91.688C223.582 91.352 223.846 90.912 223.846 90.368C223.846 89.968 223.686 89.64 223.366 89.384C223.062 89.112 222.662 88.896 222.166 88.736C221.686 88.576 221.03 88.4 220.198 88.208C218.918 87.904 217.87 87.6 217.054 87.296C216.238 86.992 215.534 86.504 214.942 85.832C214.366 85.16 214.078 84.264 214.078 83.144C214.078 82.168 214.342 81.288 214.87 80.504C215.398 79.704 216.19 79.072 217.246 78.608C218.318 78.144 219.622 77.912 221.158 77.912C222.23 77.912 223.278 78.04 224.302 78.296C225.326 78.552 226.222 78.92 226.99 79.4L225.79 82.352C224.238 81.472 222.686 81.032 221.134 81.032C220.046 81.032 219.238 81.208 218.71 81.56C218.198 81.912 217.942 82.376 217.942 82.952C217.942 83.528 218.238 83.96 218.83 84.248C219.438 84.52 220.358 84.792 221.59 85.064C222.87 85.368 223.918 85.672 224.734 85.976C225.55 86.28 226.246 86.76 226.822 87.416C227.414 88.072 227.71 88.96 227.71 90.08C227.71 91.04 227.438 91.92 226.894 92.72C226.366 93.504 225.566 94.128 224.494 94.592C223.422 95.056 222.118 95.288 220.582 95.288ZM243.111 82.088V95H239.559V93.464C239.063 94.024 238.471 94.456 237.783 94.76C237.095 95.048 236.351 95.192 235.551 95.192C233.855 95.192 232.511 94.704 231.519 93.728C230.527 92.752 230.031 91.304 230.031 89.384V82.088H233.775V88.832C233.775 90.912 234.647 91.952 236.391 91.952C237.287 91.952 238.007 91.664 238.551 91.088C239.095 90.496 239.367 89.624 239.367 88.472V82.088H243.111ZM254.212 81.896C255.412 81.896 256.5 82.176 257.476 82.736C258.468 83.28 259.244 84.056 259.804 85.064C260.364 86.056 260.644 87.216 260.644 88.544C260.644 89.872 260.364 91.04 259.804 92.048C259.244 93.04 258.468 93.816 257.476 94.376C256.5 94.92 255.412 95.192 254.212 95.192C252.564 95.192 251.268 94.672 250.324 93.632V99.656H246.58V82.088H250.156V83.576C251.084 82.456 252.436 81.896 254.212 81.896ZM253.564 92.12C254.524 92.12 255.308 91.8 255.916 91.16C256.54 90.504 256.852 89.632 256.852 88.544C256.852 87.456 256.54 86.592 255.916 85.952C255.308 85.296 254.524 84.968 253.564 84.968C252.604 84.968 251.812 85.296 251.188 85.952C250.58 86.592 250.276 87.456 250.276 88.544C250.276 89.632 250.58 90.504 251.188 91.16C251.812 91.8 252.604 92.12 253.564 92.12ZM270.782 81.896C271.982 81.896 273.07 82.176 274.046 82.736C275.038 83.28 275.814 84.056 276.374 85.064C276.934 86.056 277.214 87.216 277.214 88.544C277.214 89.872 276.934 91.04 276.374 92.048C275.814 93.04 275.038 93.816 274.046 94.376C273.07 94.92 271.982 95.192 270.782 95.192C269.134 95.192 267.838 94.672 266.894 93.632V99.656H263.15V82.088H266.726V83.576C267.654 82.456 269.006 81.896 270.782 81.896ZM270.134 92.12C271.094 92.12 271.878 91.8 272.486 91.16C273.11 90.504 273.422 89.632 273.422 88.544C273.422 87.456 273.11 86.592 272.486 85.952C271.878 85.296 271.094 84.968 270.134 84.968C269.174 84.968 268.382 85.296 267.758 85.952C267.15 86.592 266.846 87.456 266.846 88.544C266.846 89.632 267.15 90.504 267.758 91.16C268.382 91.8 269.174 92.12 270.134 92.12ZM285.864 95.192C284.504 95.192 283.28 94.912 282.192 94.352C281.12 93.776 280.28 92.984 279.672 91.976C279.064 90.968 278.76 89.824 278.76 88.544C278.76 87.264 279.064 86.12 279.672 85.112C280.28 84.104 281.12 83.32 282.192 82.76C283.28 82.184 284.504 81.896 285.864 81.896C287.224 81.896 288.44 82.184 289.512 82.76C290.584 83.32 291.424 84.104 292.032 85.112C292.64 86.12 292.944 87.264 292.944 88.544C292.944 89.824 292.64 90.968 292.032 91.976C291.424 92.984 290.584 93.776 289.512 94.352C288.44 94.912 287.224 95.192 285.864 95.192ZM285.864 92.12C286.824 92.12 287.608 91.8 288.216 91.16C288.84 90.504 289.152 89.632 289.152 88.544C289.152 87.456 288.84 86.592 288.216 85.952C287.608 85.296 286.824 84.968 285.864 84.968C284.904 84.968 284.112 85.296 283.488 85.952C282.864 86.592 282.552 87.456 282.552 88.544C282.552 89.632 282.864 90.504 283.488 91.16C284.112 91.8 284.904 92.12 285.864 92.12ZM299.023 83.792C299.471 83.168 300.071 82.696 300.823 82.376C301.591 82.056 302.471 81.896 303.463 81.896V85.352C303.047 85.32 302.767 85.304 302.623 85.304C301.551 85.304 300.711 85.608 300.103 86.216C299.495 86.808 299.191 87.704 299.191 88.904V95H295.447V82.088H299.023V83.792ZM314.462 94.376C314.094 94.648 313.638 94.856 313.094 95C312.566 95.128 312.006 95.192 311.414 95.192C309.878 95.192 308.686 94.8 307.838 94.016C307.006 93.232 306.59 92.08 306.59 90.56V85.256H304.598V82.376H306.59V79.232H310.334V82.376H313.55V85.256H310.334V90.512C310.334 91.056 310.47 91.48 310.742 91.784C311.03 92.072 311.43 92.216 311.942 92.216C312.534 92.216 313.038 92.056 313.454 91.736L314.462 94.376Z" fill="black"/>
</svg>
