<svg width="117" height="24" viewBox="0 0 117 24" fill="none" xmlns="http://www.w3.org/2000/svg">
    <path d="M32.0216 19.3041H33.4276L32.5935 23.8943H31.1875L32.0216 19.3041Z" fill="white"/>
    <path d="M38.2154 19.3041L37.3813 23.8943H36.2255L35.028 21.7566L34.6407 23.8943H33.2704L34.1045 19.3041H35.2603L36.4579 21.4418L36.8451 19.3041H38.2154Z" fill="white"/>
    <path d="M39.578 20.5041H38.3567L38.5771 19.3041H42.4259L42.2054 20.5041H40.9841L40.3704 23.8943H38.9644L39.578 20.5041Z" fill="white"/>
    <path d="M43.9588 20.4713L43.8635 21.009H45.627L45.4244 22.1238H43.655L43.5477 22.7271H45.6389L45.4244 23.8943H41.957L42.7911 19.3041H46.1811L45.9666 20.4713H43.9588Z" fill="white"/>
    <path d="M46.7998 19.3041H48.2059L47.5922 22.6943H49.4749L49.2544 23.8943H45.9657L46.7998 19.3041Z" fill="white"/>
    <path d="M50.4769 19.3041H51.883L51.2693 22.6943H53.152L52.9315 23.8943H49.6428L50.4769 19.3041Z" fill="white"/>
    <path d="M54.154 19.3041H55.5601L54.726 23.8943H53.3199L54.154 19.3041Z" fill="white"/>
    <path d="M58.6022 21.4746H59.8235L59.4661 23.4549C59.2437 23.6298 58.9875 23.7653 58.6975 23.8615C58.4115 23.9533 58.1037 23.9992 57.7741 23.9992C57.3491 23.9992 56.9737 23.914 56.648 23.7435C56.3263 23.5686 56.0761 23.326 55.8973 23.0156C55.7226 22.7052 55.6352 22.3489 55.6352 21.9468C55.6352 21.4134 55.7484 20.9391 55.9748 20.5238C56.2012 20.1085 56.5169 19.785 56.9221 19.5533C57.3272 19.3173 57.7919 19.1992 58.3162 19.1992C59.1821 19.1992 59.8136 19.4987 60.2108 20.0976L59.2039 20.9566C59.0729 20.773 58.9319 20.644 58.7809 20.5697C58.63 20.491 58.4532 20.4517 58.2507 20.4517C58.0084 20.4517 57.7959 20.5107 57.6132 20.6287C57.4345 20.7468 57.2954 20.9129 57.1961 21.1271C57.1008 21.3369 57.0532 21.5774 57.0532 21.8484C57.0532 22.1194 57.1346 22.338 57.2974 22.5041C57.4603 22.6659 57.6847 22.7467 57.9707 22.7467C58.1136 22.7467 58.2507 22.7249 58.3818 22.6812L58.6022 21.4746Z" fill="white"/>
    <path d="M61.9836 20.4713L61.8883 21.009H63.6518L63.4492 22.1238H61.6797L61.5725 22.7271H63.6637L63.4492 23.8943H59.9818L60.8159 19.3041H64.2059L63.9914 20.4713H61.9836Z" fill="white"/>
    <path d="M68.9355 19.3041L68.1014 23.8943H66.9456L65.7481 21.7566L65.3608 23.8943H63.9905L64.8246 19.3041H65.9804L67.1779 21.4418L67.5652 19.3041H68.9355Z" fill="white"/>
    <path d="M71.1501 23.9992C70.7251 23.9992 70.3498 23.914 70.0241 23.7435C69.7023 23.5686 69.4521 23.326 69.2734 23.0156C69.0986 22.7052 69.0112 22.3489 69.0112 21.9468C69.0112 21.4134 69.1224 20.9391 69.3449 20.5238C69.5713 20.1085 69.8831 19.785 70.2802 19.5533C70.6814 19.3173 71.1362 19.1992 71.6446 19.1992C72.0457 19.1992 72.4012 19.2801 72.711 19.4418C73.0208 19.5992 73.2512 19.8244 73.4021 20.1172L72.3893 20.9894C72.2026 20.6309 71.9246 20.4517 71.5552 20.4517C71.3368 20.4517 71.1421 20.5107 70.9713 20.6287C70.8006 20.7468 70.6675 20.9129 70.5722 21.1271C70.4768 21.3369 70.4292 21.5774 70.4292 21.8484C70.4292 22.1194 70.5066 22.338 70.6615 22.5041C70.8204 22.6659 71.0289 22.7467 71.2871 22.7467C71.6406 22.7467 71.9504 22.5697 72.2165 22.2156L73.0447 23.0877C72.8024 23.4156 72.5263 23.6495 72.2165 23.7894C71.9107 23.9293 71.5552 23.9992 71.1501 23.9992Z" fill="white"/>
    <path d="M75.2142 20.4713L75.1188 21.009H76.8824L76.6798 22.1238H74.9103L74.8031 22.7271H76.8943L76.6798 23.8943H73.2123L74.0464 19.3041H77.4364L77.222 20.4713H75.2142Z" fill="white"/>
    <path d="M79.8414 19.3041H81.2474L80.4133 23.8943H79.0073L79.8414 19.3041Z" fill="white"/>
    <path d="M86.0352 19.3041L85.2011 23.8943H84.0453L82.8477 21.7566L82.4605 23.8943H81.0902L81.9243 19.3041H83.0801L84.2776 21.4418L84.6649 19.3041H86.0352Z" fill="white"/>
    <path d="M90.7032 23.0943H89.1125L88.6954 23.8943H87.2119L89.8691 19.3041H91.2514L92.2404 23.8943H90.8403L90.7032 23.0943ZM90.5066 21.9795L90.3041 20.8058L89.6904 21.9795H90.5066Z" fill="white"/>
    <path d="M94.7778 23.9992C94.3528 23.9992 93.9775 23.914 93.6518 23.7435C93.33 23.5686 93.0798 23.326 92.9011 23.0156C92.7263 22.7052 92.6389 22.3489 92.6389 21.9468C92.6389 21.4134 92.7501 20.9391 92.9726 20.5238C93.199 20.1085 93.5108 19.785 93.9079 19.5533C94.3091 19.3173 94.7639 19.1992 95.2723 19.1992C95.6734 19.1992 96.0289 19.2801 96.3387 19.4418C96.6485 19.5992 96.8789 19.8244 97.0298 20.1172L96.017 20.9894C95.8303 20.6309 95.5523 20.4517 95.1829 20.4517C94.9645 20.4517 94.7698 20.5107 94.599 20.6287C94.4283 20.7468 94.2952 20.9129 94.1999 21.1271C94.1045 21.3369 94.0569 21.5774 94.0569 21.8484C94.0569 22.1194 94.1343 22.338 94.2892 22.5041C94.4481 22.6659 94.6566 22.7467 94.9148 22.7467C95.2683 22.7467 95.5781 22.5697 95.8442 22.2156L96.6724 23.0877C96.4301 23.4156 96.154 23.6495 95.8442 23.7894C95.5384 23.9293 95.1829 23.9992 94.7778 23.9992Z" fill="white"/>
    <path d="M98.3302 20.5041H97.1088L97.3293 19.3041H101.178L100.958 20.5041H99.7362L99.1226 23.8943H97.7165L98.3302 20.5041Z" fill="white"/>
    <path d="M101.543 19.3041H102.949L102.115 23.8943H100.709L101.543 19.3041Z" fill="white"/>
    <path d="M105.139 23.9992C104.714 23.9992 104.341 23.914 104.019 23.7435C103.702 23.5686 103.455 23.326 103.281 23.0156C103.11 22.7052 103.024 22.3489 103.024 21.9468C103.024 21.4134 103.136 20.9391 103.358 20.5238C103.584 20.1041 103.896 19.7785 104.293 19.5468C104.695 19.3151 105.147 19.1992 105.652 19.1992C106.077 19.1992 106.448 19.2867 106.766 19.4615C107.088 19.632 107.334 19.8724 107.505 20.1828C107.679 20.4932 107.767 20.8495 107.767 21.2517C107.767 21.785 107.654 22.2615 107.427 22.6812C107.205 23.0965 106.893 23.42 106.492 23.6517C106.095 23.8834 105.644 23.9992 105.139 23.9992ZM105.259 22.7467C105.481 22.7467 105.674 22.6834 105.837 22.5566C106.003 22.4298 106.13 22.2593 106.218 22.0451C106.305 21.8309 106.349 21.597 106.349 21.3435C106.349 21.0724 106.275 20.856 106.128 20.6943C105.985 20.5325 105.787 20.4517 105.533 20.4517C105.31 20.4517 105.116 20.5151 104.949 20.6418C104.786 20.7686 104.661 20.9391 104.573 21.1533C104.486 21.3675 104.442 21.6014 104.442 21.8549C104.442 22.126 104.514 22.3424 104.657 22.5041C104.804 22.6659 105.004 22.7467 105.259 22.7467Z" fill="white"/>
    <path d="M112.787 19.3041L111.953 23.8943H110.797L109.6 21.7566L109.213 23.8943H107.842L108.676 19.3041H109.832L111.03 21.4418L111.417 19.3041H112.787Z" fill="white"/>
    <path d="M43.9111 0.000892246H35.3937L34.0717 6.64866H40.0773L40.7005 3.21146L48.5948 8.61277L38.7175 13.8063L39.3408 10.5958H33.2785L31.7109 18.3956H42.4947C44.8932 18.3956 52.6174 16.8847 53.0896 8.3106C53.5617 -0.263508 43.9111 0.000892246 43.9111 0.000892246Z" fill="white"/>
    <path d="M84.9308 0L74.3359 10.5949H83.1744L75.2802 18.3947H83.1744L94.9025 6.64777H87.1216L93.7693 0H84.9308Z" fill="white"/>
    <path d="M93.2383 18.3947L96.9776 0H103.323L101.963 6.64777H108.762L110.065 0H116.317L112.672 18.3947H106.269L107.894 10.5949H101.17L99.5272 18.3947H93.2383Z" fill="white"/>
    <path d="M28.423 0L24.6836 18.3947H30.9159L34.6552 0H28.423Z" fill="#3573B9"/>
    <path d="M20.4154 0.00195312C19.1879 0.00195312 18.017 0.474096 17.1293 1.30507L0 18.3966H8.12085C8.64965 18.3966 9.15957 18.1889 9.5184 17.7923L12.4646 14.544H17.5826L16.5817 18.3966H23.9471L27.7998 0.00195312H20.4154ZM18.6213 10.5968H16.0717L19.6223 6.6875L18.6213 10.5968Z" fill="#3573B9"/>
    <path d="M68.4428 0C67.2152 0 66.0443 0.472143 65.1567 1.30311L48.0273 18.3758H56.1482C56.677 18.3758 57.1869 18.1681 57.5457 17.7715L60.4919 14.542H65.6099L64.609 18.3947H71.9744L75.8271 0H68.4428ZM66.6486 10.5949H64.0991L67.6496 6.68554L66.6486 10.5949Z" fill="white"/>
</svg>