<svg id="Layer_1" data-name="Layer 1" xmlns="http://www.w3.org/2000/svg" viewBox="0 0 792 120.16"><defs><style>.cls-1{fill:#cbcbca;}.cls-2{fill:#ccc;}.cls-3{fill:#fff;}</style></defs><path class="cls-1" d="M872.53,481.09H816.87l-8.7,43.45h39.24l4.08-22.4,51.59,35.3-64.49,33.94,4.07-21H803l-10.19,50.91h70.55c15.61,0,66.19-9.9,69.24-65.85S872.53,481.09,872.53,481.09Z" transform="translate(-564 -481.09)"/><polygon class="cls-1" points="583.04 0.01 513.8 69.25 571.5 69.25 519.91 120.16 571.5 120.16 648.21 43.45 597.3 43.45 640.75 0.01 583.04 0.01"/><polygon class="cls-2" points="641.17 120.16 665.61 0.01 707.02 0.01 698.2 43.45 742.57 43.45 751.14 0.01 792 0.01 768.12 120.16 726.37 120.16 736.89 69.25 693 69.25 682.24 120.16 641.17 120.16"/><polygon class="cls-3" points="197.2 0.01 172.76 120.16 213.49 120.16 237.93 0.01 197.2 0.01"/><path class="cls-3" d="M697.43,481.1a31.31,31.31,0,0,0-21.52,8.56L564,601.25h53.08a12.38,12.38,0,0,0,9.12-3.94l19.3-21.21H679l-6.5,25.15h48.19l25-120.15Zm-11.79,69.18H669l23.26-25.57Z" transform="translate(-564 -481.09)"/><path class="cls-1" d="M1035.48,481.1a31.29,31.29,0,0,0-21.51,8.56L902.05,601.25h53.08a12.39,12.39,0,0,0,9.13-3.94l19.3-21.21H1017l-6.51,25.15h48.19l25-120.15Zm-11.79,69.18H1007l23.26-25.57Z" transform="translate(-564 -481.09)"/></svg>