<svg width="124" height="124" viewBox="0 0 124 124" fill="none" xmlns="http://www.w3.org/2000/svg">
<path d="M119.958 123.727C119.958 123.765 94.0219 123.798 62.0334 123.798C30.0449 123.798 4.10352 123.765 4.10352 123.727C4.10352 123.689 30.034 123.656 62.0334 123.656C94.0327 123.656 119.958 123.686 119.958 123.727Z" fill="#263238"/>
<path d="M115.172 14.4141H8.94727V21.2186H115.172V14.4141Z" fill="#E0E0E0"/>
<path d="M115.159 27.4648H8.93359V87.0314H115.159V27.4648Z" fill="white"/>
<path d="M8.94727 21.1664H23.5337L24.9796 16.957H48.6217L50.0676 21.1664H115.175V27.6094H8.94727V21.1664Z" fill="#EBEBEB"/>
<path d="M12.4535 17.1271C12.4535 17.2851 12.4067 17.4395 12.3189 17.5709C12.2311 17.7023 12.1063 17.8047 11.9603 17.8652C11.8143 17.9256 11.6536 17.9415 11.4986 17.9106C11.3436 17.8798 11.2012 17.8037 11.0895 17.692C10.9778 17.5803 10.9017 17.4379 10.8708 17.2829C10.84 17.1279 10.8558 16.9673 10.9163 16.8213C10.9768 16.6753 11.0792 16.5506 11.2106 16.4628C11.342 16.375 11.4965 16.3281 11.6545 16.3281C11.7595 16.3278 11.8636 16.3482 11.9607 16.3882C12.0578 16.4282 12.146 16.4871 12.2203 16.5613C12.2946 16.6356 12.3534 16.7238 12.3934 16.8209C12.4335 16.918 12.4539 17.022 12.4535 17.1271Z" fill="#263238"/>
<path d="M14.9233 17.1271C14.9233 17.2851 14.8764 17.4395 14.7886 17.5709C14.7008 17.7023 14.576 17.8047 14.43 17.8652C14.284 17.9256 14.1233 17.9415 13.9683 17.9106C13.8133 17.8798 13.671 17.8037 13.5592 17.692C13.4475 17.5803 13.3714 17.4379 13.3405 17.2829C13.3097 17.1279 13.3255 16.9673 13.386 16.8213C13.4465 16.6753 13.5489 16.5506 13.6803 16.4628C13.8117 16.375 13.9662 16.3281 14.1242 16.3281C14.2293 16.3278 14.3333 16.3482 14.4304 16.3882C14.5275 16.4282 14.6158 16.4871 14.69 16.5613C14.7643 16.6356 14.8231 16.7238 14.8632 16.8209C14.9032 16.918 14.9236 17.022 14.9233 17.1271Z" fill="#263238"/>
<path d="M17.394 17.1271C17.394 17.2851 17.3471 17.4395 17.2593 17.5709C17.1715 17.7023 17.0467 17.8047 16.9007 17.8652C16.7547 17.9256 16.594 17.9415 16.4391 17.9106C16.2841 17.8798 16.1417 17.8037 16.0299 17.692C15.9182 17.5803 15.8421 17.4379 15.8113 17.2829C15.7804 17.1279 15.7962 16.9673 15.8567 16.8213C15.9172 16.6753 16.0196 16.5506 16.151 16.4628C16.2824 16.375 16.4369 16.3281 16.5949 16.3281C16.7 16.3278 16.804 16.3482 16.9011 16.3882C16.9982 16.4282 17.0865 16.4871 17.1607 16.5613C17.235 16.6356 17.2938 16.7238 17.3339 16.8209C17.3739 16.918 17.3943 17.022 17.394 17.1271Z" fill="#263238"/>
<path d="M103.431 26.3287H30.5533C30.017 26.3287 29.5027 26.1157 29.1235 25.7366C28.7443 25.3574 28.5312 24.8432 28.5312 24.3069C28.5312 23.7707 28.7443 23.2565 29.1235 22.8773C29.5027 22.4982 30.017 22.2852 30.5533 22.2852H103.431C103.967 22.2852 104.482 22.4982 104.861 22.8773C105.24 23.2565 105.453 23.7707 105.453 24.3069C105.453 24.8432 105.24 25.3574 104.861 25.7366C104.482 26.1157 103.967 26.3287 103.431 26.3287Z" fill="#FAFAFA"/>
<path d="M103.366 38.1803H39.8699C38.9192 38.1803 38.0074 37.8027 37.3351 37.1305C36.6628 36.4583 36.2852 35.5467 36.2852 34.596V34.596C36.2859 33.6456 36.6638 32.7344 37.3359 32.0623C38.008 31.3903 38.9194 31.0124 39.8699 31.0117H103.366C104.316 31.0124 105.228 31.3903 105.9 32.0623C106.572 32.7344 106.95 33.6456 106.951 34.596C106.951 35.5467 106.573 36.4583 105.901 37.1305C105.228 37.8027 104.317 38.1803 103.366 38.1803V38.1803Z" fill="#FAFAFA"/>
<path d="M103.366 38.1783C103.873 38.1674 104.372 38.0546 104.834 37.8468C105.289 37.6376 105.695 37.3363 106.027 36.9622C106.359 36.588 106.61 36.1489 106.764 35.6728C106.892 35.248 106.942 34.8031 106.91 34.3603C106.877 33.8646 106.74 33.3814 106.508 32.9418C106.249 32.4602 105.884 32.0438 105.44 31.7244C104.955 31.375 104.389 31.1543 103.796 31.0831C103.48 31.056 103.164 31.047 102.847 31.0559H101.858H92.7289L39.8759 31.0749C39.2413 31.0767 38.6188 31.2495 38.074 31.5749C37.5387 31.8945 37.098 32.3507 36.7973 32.8967C36.4965 33.4428 36.3464 34.059 36.3625 34.6822C36.3785 35.3054 36.5601 35.9131 36.8886 36.4429C37.217 36.9728 37.6806 37.4057 38.2316 37.6973C38.7759 37.9794 39.3826 38.1196 39.9955 38.1049H57.7101L81.4718 38.1213L97.5068 38.143H101.855H102.989C103.244 38.143 103.375 38.143 103.375 38.143H102.989H101.855H97.5068L81.4718 38.1675L57.7101 38.181H43.6754H39.9955C39.3597 38.1974 38.7302 38.0515 38.1664 37.7571C37.4447 37.3755 36.8715 36.7634 36.5382 36.0182C36.2049 35.273 36.1307 34.4378 36.3274 33.6455C36.5241 32.8533 36.9803 32.1497 37.6234 31.6469C38.2666 31.144 39.0595 30.8709 39.8759 30.8711L92.7425 30.9608H101.872H102.861C103.181 30.953 103.501 30.9629 103.82 30.9907C104.424 31.0658 104.999 31.293 105.492 31.651C105.923 31.9603 106.281 32.3616 106.538 32.8259C106.796 33.2902 106.947 33.806 106.981 34.3358C107.01 34.7856 106.956 35.2368 106.823 35.6674C106.7 36.0433 106.517 36.3966 106.28 36.7136C105.911 37.2133 105.42 37.6093 104.853 37.8631C104.508 38.0149 104.141 38.113 103.766 38.1539C103.497 38.1783 103.366 38.1783 103.366 38.1783Z" fill="#263238"/>
<path d="M41.3271 35.3594L41.4603 35.0605C41.6285 35.1758 41.8272 35.2382 42.0311 35.2399C42.2675 35.2399 42.3626 35.1611 42.3626 35.0551C42.3626 34.7317 41.3598 34.9546 41.3598 34.3132C41.3598 34.0197 41.5962 33.7697 42.0881 33.7697C42.2975 33.7657 42.5041 33.8183 42.686 33.9219L42.5637 34.2263C42.4189 34.14 42.254 34.0931 42.0854 34.0904C41.849 34.0904 41.7566 34.1801 41.7566 34.2888C41.7566 34.6067 42.7594 34.3866 42.7594 35.0198C42.7594 35.3078 42.5203 35.5633 42.0283 35.5633C41.7792 35.569 41.5344 35.4978 41.3271 35.3594V35.3594Z" fill="#E0E0E0"/>
<path d="M44.298 34.9776H43.2952C43.3151 35.0612 43.3646 35.1347 43.4345 35.1847C43.5045 35.2346 43.5901 35.2576 43.6757 35.2493C43.7369 35.2513 43.7979 35.2407 43.8549 35.2182C43.9119 35.1958 43.9637 35.162 44.0072 35.1189L44.2111 35.3417C44.1074 35.4414 43.978 35.5102 43.8374 35.5402C43.6967 35.5703 43.5505 35.5605 43.4151 35.5119C43.2798 35.4633 43.1607 35.3779 43.0713 35.2652C42.9819 35.1526 42.9258 35.0172 42.9092 34.8743C42.908 34.7823 42.9257 34.6911 42.961 34.6061C42.9964 34.5212 43.0489 34.4444 43.1151 34.3805C43.1813 34.3166 43.2599 34.267 43.346 34.2346C43.4321 34.2022 43.524 34.1878 43.6159 34.1923C43.7075 34.1876 43.7991 34.2022 43.8848 34.235C43.9705 34.2679 44.0483 34.3184 44.1134 34.3831C44.1784 34.4479 44.2291 34.5255 44.2623 34.611C44.2955 34.6966 44.3105 34.7881 44.3062 34.8798C44.3062 34.9042 44.3008 34.945 44.298 34.9776ZM43.2897 34.7521H43.942C43.928 34.6758 43.8877 34.6068 43.8281 34.5571C43.7686 34.5075 43.6934 34.4803 43.6159 34.4803C43.5383 34.4803 43.4632 34.5075 43.4036 34.5571C43.344 34.6068 43.3037 34.6758 43.2897 34.7521V34.7521Z" fill="#E0E0E0"/>
<path d="M45.6968 34.7715V35.5296H45.3381V35.3639C45.2933 35.4281 45.2321 35.4791 45.1608 35.5116C45.0896 35.5441 45.011 35.5569 44.9331 35.5486C44.6233 35.5486 44.4385 35.3747 44.4385 35.1465C44.4385 34.9182 44.6043 34.7497 45.0065 34.7497H45.3136C45.3136 34.5867 45.213 34.478 45.0065 34.478C44.8698 34.4768 44.7364 34.5197 44.626 34.6003L44.4874 34.3285C44.6576 34.2199 44.8562 34.1641 45.0581 34.1682C45.4522 34.1845 45.6968 34.372 45.6968 34.7715ZM45.3136 35.1111V34.9753H45.0418C44.8625 34.9753 44.8054 35.0405 44.8054 35.1302C44.8054 35.2198 44.8869 35.2905 45.0201 35.2905C45.0819 35.2966 45.1439 35.2824 45.1969 35.25C45.2499 35.2176 45.2909 35.1689 45.3136 35.1111V35.1111Z" fill="#E0E0E0"/>
<path d="M46.8684 34.1851V34.5383H46.7814C46.7332 34.5344 46.6847 34.5412 46.6394 34.5583C46.5941 34.5753 46.5532 34.6023 46.5197 34.6372C46.4861 34.672 46.4607 34.7139 46.4454 34.7598C46.43 34.8057 46.425 34.8544 46.4309 34.9025V35.5302H46.0449V34.2041H46.4118V34.378C46.4672 34.312 46.5375 34.26 46.6168 34.2265C46.6962 34.1929 46.7825 34.1787 46.8684 34.1851Z" fill="#E0E0E0"/>
<path d="M46.9883 34.8678C46.9884 34.7734 47.008 34.6799 47.0459 34.5934C47.0838 34.5069 47.1393 34.4292 47.2087 34.3651C47.2781 34.3011 47.3601 34.2521 47.4494 34.2212C47.5386 34.1903 47.6333 34.1783 47.7275 34.1858C47.8487 34.176 47.97 34.203 48.0756 34.2631C48.1813 34.3232 48.2664 34.4136 48.32 34.5227L48.021 34.6831C47.9936 34.6281 47.9513 34.5818 47.899 34.5497C47.8466 34.5175 47.7863 34.5006 47.7248 34.501C47.6275 34.501 47.5342 34.5396 47.4654 34.6084C47.3966 34.6772 47.3579 34.7705 47.3579 34.8678C47.3579 34.9651 47.3966 35.0584 47.4654 35.1272C47.5342 35.196 47.6275 35.2347 47.7248 35.2347C47.7864 35.2357 47.847 35.2191 47.8995 35.1869C47.952 35.1546 47.9941 35.108 48.021 35.0526L48.32 35.2157C48.2655 35.3238 48.18 35.4133 48.0745 35.4728C47.9691 35.5323 47.8483 35.5591 47.7275 35.5499C47.6333 35.5574 47.5386 35.5454 47.4494 35.5145C47.3601 35.4836 47.2781 35.4346 47.2087 35.3705C47.1393 35.3065 47.0838 35.2288 47.0459 35.1422C47.008 35.0557 46.9884 34.9623 46.9883 34.8678V34.8678Z" fill="#E0E0E0"/>
<path d="M49.888 34.7738V35.532H49.5021V34.8309C49.5021 34.6162 49.4042 34.5184 49.2303 34.5184C49.0563 34.5184 48.9123 34.6325 48.9123 34.8771V35.532H48.5264V33.7031H48.9123V34.3444C48.9685 34.2915 49.0347 34.2503 49.1071 34.2233C49.1794 34.1962 49.2564 34.1838 49.3336 34.1868C49.4107 34.1809 49.4883 34.1922 49.5605 34.2201C49.6327 34.248 49.6978 34.2917 49.751 34.3479C49.8041 34.4042 49.844 34.4717 49.8677 34.5454C49.8914 34.619 49.8984 34.6971 49.888 34.7738Z" fill="#E0E0E0"/>
<path d="M50.8389 35.3055C50.8389 35.2421 50.8641 35.1813 50.9089 35.1364C50.9538 35.0916 51.0146 35.0664 51.078 35.0664C51.1415 35.0664 51.2023 35.0916 51.2471 35.1364C51.292 35.1813 51.3172 35.2421 51.3172 35.3055C51.3172 35.369 51.292 35.4298 51.2471 35.4746C51.2023 35.5195 51.1415 35.5447 51.078 35.5447C51.0146 35.5447 50.9538 35.5195 50.9089 35.4746C50.8641 35.4298 50.8389 35.369 50.8389 35.3055Z" fill="#E0E0E0"/>
<path d="M51.4864 35.3067C51.4869 35.2596 51.5014 35.2136 51.528 35.1746C51.5546 35.1357 51.5922 35.1054 51.6359 35.0877C51.6796 35.0701 51.7276 35.0657 51.7739 35.0752C51.8201 35.0848 51.8624 35.1078 51.8956 35.1413C51.9288 35.1749 51.9513 35.2175 51.9603 35.2638C51.9693 35.3101 51.9644 35.358 51.9462 35.4016C51.9281 35.4451 51.8974 35.4823 51.8581 35.5085C51.8189 35.5346 51.7727 35.5486 51.7256 35.5486C51.6938 35.549 51.6623 35.5429 51.633 35.5309C51.6036 35.5188 51.577 35.501 51.5546 35.4784C51.5323 35.4558 51.5148 35.429 51.503 35.3995C51.4913 35.37 51.4857 35.3385 51.4864 35.3067Z" fill="#E0E0E0"/>
<path d="M52.1299 35.3055C52.1299 35.2421 52.1551 35.1813 52.1999 35.1364C52.2448 35.0916 52.3056 35.0664 52.369 35.0664C52.4325 35.0664 52.4933 35.0916 52.5382 35.1364C52.583 35.1813 52.6082 35.2421 52.6082 35.3055C52.6082 35.3369 52.602 35.368 52.59 35.3971C52.578 35.4261 52.5604 35.4524 52.5382 35.4746C52.516 35.4968 52.4896 35.5145 52.4606 35.5265C52.4316 35.5385 52.4005 35.5447 52.369 35.5447C52.3376 35.5447 52.3065 35.5385 52.2775 35.5265C52.2485 35.5145 52.2221 35.4968 52.1999 35.4746C52.1777 35.4524 52.1601 35.4261 52.1481 35.3971C52.1361 35.368 52.1299 35.3369 52.1299 35.3055V35.3055Z" fill="#E0E0E0"/>
<path d="M28.8929 44.4144C28.8929 44.4552 26.3436 44.4851 23.2018 44.4851C20.06 44.4851 17.5107 44.4552 17.5107 44.4144C17.5107 44.3736 20.0573 44.3438 23.2018 44.3438C26.3463 44.3438 28.8929 44.3818 28.8929 44.4144Z" fill="black"/>
<path d="M29.3386 47.6719H17.5107V59.4982H29.3386V47.6719Z" fill="#2D75D1"/>
<path d="M101.209 50.4613C101.209 50.4993 86.5325 50.5319 68.4211 50.5319C50.3097 50.5319 35.6309 50.4993 35.6309 50.4613C35.6309 50.4232 50.307 50.3906 68.4211 50.3906C86.5352 50.3906 101.209 50.4205 101.209 50.4613Z" fill="black"/>
<path d="M53.5676 54.9105C53.5676 54.9513 49.6975 54.9812 44.9278 54.9812C40.158 54.9812 36.2852 54.9513 36.2852 54.9105C36.2852 54.8697 40.1526 54.8398 44.9278 54.8398C49.7029 54.8398 53.5676 54.8725 53.5676 54.9105Z" fill="black"/>
<path d="M90.7281 59.0421C90.7281 59.0802 78.5387 59.1128 63.5066 59.1128C48.4745 59.1128 36.2852 59.0802 36.2852 59.0421C36.2852 59.0041 48.4718 58.9688 63.5066 58.9688C78.5415 58.9688 90.7281 59.0014 90.7281 59.0421Z" fill="#E0E0E0"/>
<path d="M28.8929 65.6097C28.8929 65.6478 26.3436 65.6804 23.2018 65.6804C20.06 65.6804 17.5107 65.6478 17.5107 65.6097C17.5107 65.5717 20.0573 65.5391 23.2018 65.5391C26.3463 65.5391 28.8929 65.5635 28.8929 65.6097Z" fill="black"/>
<path d="M29.3386 68.8555H17.5107V80.6818H29.3386V68.8555Z" fill="#2D75D1"/>
<path d="M105.106 71.6371C105.106 71.6778 89.552 71.7077 70.3698 71.7077C51.1875 71.7077 35.6309 71.6778 35.6309 71.6371C35.6309 71.5963 51.1821 71.5664 70.3698 71.5664C89.5574 71.5664 105.106 71.599 105.106 71.6371Z" fill="black"/>
<path d="M53.5676 76.0941C53.5676 76.1321 49.6975 76.1647 44.9278 76.1647C40.158 76.1647 36.2852 76.1321 36.2852 76.0941C36.2852 76.056 40.1526 76.0234 44.9278 76.0234C49.7029 76.0234 53.5676 76.056 53.5676 76.0941Z" fill="black"/>
<path d="M100.208 80.223C100.208 80.2637 85.8986 80.2936 68.2492 80.2936C50.5998 80.2936 36.2852 80.2637 36.2852 80.223C36.2852 80.1822 50.5944 80.1523 68.2492 80.1523C85.904 80.1523 100.208 80.1849 100.208 80.223Z" fill="#E0E0E0"/>
<path d="M115.172 87.1776C115.172 86.7102 115.151 58.6987 115.115 14.4124L115.172 14.4694H8.9553L9.02596 14.3988C9.02596 40.3722 9.02596 65.0494 9.02596 87.164L8.96073 87.0987L115.186 87.164L8.96073 87.2265H8.89551V87.164C8.89551 65.0494 8.89551 40.3722 8.89551 14.3988V14.3281H8.97432H115.191H115.248V14.3852C115.197 58.6987 115.172 86.7102 115.172 87.1776Z" fill="#263238"/>
<path d="M45.7515 19.6839C45.7515 19.7247 42.001 19.7546 37.3753 19.7546C32.7496 19.7546 28.999 19.7247 28.999 19.6839C28.999 19.6432 32.7496 19.6133 37.3753 19.6133C42.001 19.6133 45.7515 19.6459 45.7515 19.6839Z" fill="black"/>
<path d="M30.6409 33.0586H15.7637V37.5397H30.6409V33.0586Z" fill="#455A64"/>
<path d="M56.9844 44.7972C56.9844 44.838 52.3641 44.8679 46.6567 44.8679C40.9494 44.8679 36.3291 44.838 36.3291 44.7972C36.3291 44.7565 40.9494 44.7266 46.6567 44.7266C52.3641 44.7266 56.9844 44.7592 56.9844 44.7972Z" fill="#2D75D1"/>
<path d="M56.9844 65.6097C56.9844 65.6478 52.3641 65.6804 46.6567 65.6804C40.9494 65.6804 36.3291 65.6478 36.3291 65.6097C36.3291 65.5717 40.9494 65.5391 46.6567 65.5391C52.3641 65.5391 56.9844 65.5635 56.9844 65.6097Z" fill="#2D75D1"/>
<path d="M101.999 35.7886C101.657 35.7892 101.322 35.6882 101.037 35.4985C100.753 35.3088 100.531 35.0389 100.4 34.723C100.269 34.4071 100.234 34.0593 100.301 33.7238C100.367 33.3883 100.532 33.0801 100.774 32.8382C101.016 32.5964 101.324 32.4317 101.66 32.3651C101.995 32.2985 102.343 32.333 102.659 32.4641C102.975 32.5953 103.245 32.8172 103.434 33.1018C103.624 33.3865 103.725 33.721 103.725 34.063C103.724 34.5205 103.542 34.959 103.218 35.2824C102.895 35.6059 102.456 35.7879 101.999 35.7886V35.7886ZM101.999 32.6065C101.711 32.606 101.429 32.6909 101.189 32.8506C100.949 33.0104 100.762 33.2377 100.651 33.5038C100.54 33.7699 100.511 34.0628 100.567 34.3455C100.623 34.6283 100.761 34.888 100.965 35.092C101.169 35.296 101.428 35.435 101.711 35.4914C101.994 35.5478 102.287 35.5191 102.553 35.409C102.819 35.2988 103.047 35.1121 103.207 34.8725C103.367 34.633 103.453 34.3512 103.453 34.063C103.453 33.6772 103.3 33.3071 103.027 33.0341C102.755 32.761 102.385 32.6072 101.999 32.6065V32.6065Z" fill="#2D75D1"/>
<path d="M104.121 36.5546C104.085 36.5545 104.049 36.5398 104.024 36.5138L102.898 35.397C102.886 35.3843 102.876 35.3693 102.869 35.3527C102.862 35.3361 102.858 35.3184 102.858 35.3005C102.858 35.2826 102.862 35.2648 102.869 35.2483C102.876 35.2317 102.886 35.2167 102.898 35.204C102.911 35.1914 102.926 35.1813 102.943 35.1744C102.959 35.1676 102.977 35.1641 102.995 35.1641C103.013 35.1641 103.03 35.1676 103.047 35.1744C103.064 35.1813 103.079 35.1914 103.091 35.204L104.216 36.3209C104.235 36.3402 104.247 36.3644 104.252 36.3906C104.257 36.4167 104.254 36.4437 104.244 36.4684C104.234 36.493 104.217 36.5142 104.195 36.5295C104.174 36.5448 104.148 36.5535 104.121 36.5546V36.5546Z" fill="#2D75D1"/>
<path d="M75.5877 54.6058C75.5877 54.6439 71.1387 54.6765 65.6487 54.6765C60.1588 54.6765 55.707 54.6439 55.707 54.6058C55.707 54.5678 60.1588 54.5352 65.6487 54.5352C71.1387 54.5352 75.5877 54.565 75.5877 54.6058Z" fill="black"/>
<path d="M88.4352 54.3011C88.4352 54.3419 86.106 54.3718 83.236 54.3718C80.366 54.3718 78.0342 54.3419 78.0342 54.3011C78.0342 54.2604 80.3633 54.2305 83.236 54.2305C86.1088 54.2305 88.4352 54.2631 88.4352 54.3011Z" fill="black"/>
<path d="M75.4922 76.0941C75.4922 76.1321 71.0432 76.1647 65.5532 76.1647C60.0633 76.1647 55.6143 76.1321 55.6143 76.0941C55.6143 76.056 60.0633 76.0234 65.5532 76.0234C71.0432 76.0234 75.4922 76.056 75.4922 76.0941Z" fill="black"/>
<path d="M22.1397 81.6836C19.9329 82.8249 18.2424 84.7924 17.0276 86.9582C15.8127 89.124 15.0273 91.4963 14.2527 93.8686L13.5732 106.035C16.1388 101.67 18.1935 96.5399 18.7534 91.5072L17.0466 91.355C18.1908 91.1811 19.1529 90.3523 19.7644 89.3685C20.3759 88.3848 20.6884 87.2517 20.9956 86.1348L18.9137 86.4446C20.5613 85.3314 21.7167 83.6263 22.1397 81.6836V81.6836Z" fill="#455A64"/>
<g opacity="0.3">
<path opacity="0.3" d="M22.1397 81.6836C19.9329 82.8249 18.2424 84.7924 17.0276 86.9582C15.8127 89.124 15.0273 91.4963 14.2527 93.8686L13.5732 106.035C16.1388 101.67 18.1935 96.5399 18.7534 91.5072L17.0466 91.355C18.1908 91.1811 19.1529 90.3523 19.7644 89.3685C20.3759 88.3848 20.6884 87.2517 20.9956 86.1348L18.9137 86.4446C20.5613 85.3314 21.7167 83.6263 22.1397 81.6836V81.6836Z" fill="black"/>
</g>
<path d="M13.1922 108.869C13.1922 108.869 7.62344 102.206 7.68867 95.8446H9.93629C9.93629 95.8446 7.49027 94.2359 7.68595 93.3364C7.88163 92.4369 7.95773 89.0319 7.95773 89.0319L10.0151 89.5455C10.0151 89.5455 8.47139 88.7738 8.27843 87.5537C8.08547 86.3335 8.72958 80.6758 8.72958 80.6758C8.72958 80.6758 11.2354 83.3117 12.0072 86.0101C12.7791 88.7086 14.7903 91.8581 14.1978 100.084C13.6053 108.31 13.1922 108.869 13.1922 108.869Z" fill="#455A64"/>
<path d="M16.0168 109.498C16.0168 109.498 22.0503 105.479 23.3902 100.351L21.5802 99.8461C21.5802 99.8461 23.8984 99.0906 23.9392 98.3243C23.98 97.558 24.673 94.8052 24.673 94.8052L22.9064 94.7699C22.9064 94.7699 24.317 94.4981 24.7382 93.547C25.1595 92.5959 25.8824 87.9219 25.8824 87.9219C25.8824 87.9219 23.2897 89.4898 22.0775 91.4926C20.8654 93.4954 18.5444 95.5824 17.2262 102.327C15.9081 109.072 16.0168 109.498 16.0168 109.498Z" fill="#455A64"/>
<path d="M10.2383 86.4883C10.2479 86.5101 10.2552 86.5329 10.26 86.5562L10.3089 86.76C10.3524 86.953 10.4122 87.2166 10.491 87.5508C10.646 88.2383 10.8525 89.2356 11.0862 90.4721C11.5618 92.9422 12.1244 96.3771 12.5674 100.192C13.0104 104.008 13.2442 107.481 13.3447 109.997C13.3964 111.255 13.4235 112.271 13.429 112.986C13.429 113.331 13.429 113.6 13.429 113.801C13.429 113.888 13.429 113.956 13.429 114.013C13.433 114.037 13.433 114.061 13.429 114.084C13.4252 114.061 13.4252 114.037 13.429 114.013C13.429 113.959 13.429 113.888 13.429 113.804C13.429 113.606 13.4127 113.337 13.3991 112.989C13.3773 112.285 13.3339 111.269 13.2686 110.013C13.1436 107.5 12.8909 104.035 12.4533 100.23C12.0157 96.426 11.4667 92.9857 11.0156 90.5101C10.7927 89.2737 10.6025 88.2736 10.472 87.5834C10.4068 87.2464 10.3551 86.9801 10.3171 86.7899C10.3035 86.703 10.2899 86.635 10.2818 86.5807C10.2606 86.5535 10.2458 86.5219 10.2383 86.4883Z" fill="#263238"/>
<path d="M12.421 112.952C12.421 112.952 7.32508 107.185 5.74061 103.674L6.93644 103.166C6.06946 103.307 5.18346 102.935 4.51216 102.37C3.86728 101.773 3.3125 101.085 2.86517 100.329L4.43878 100.057C2.99376 99.6463 1.76196 98.6958 0.998047 97.4023C2.85702 97.7067 4.53118 98.7257 5.91998 100C7.02209 101.057 8.02297 102.214 8.90956 103.457C9.353 104.054 9.74056 104.691 10.0673 105.359C10.918 107.131 12.4237 110.829 12.421 112.952Z" fill="#455A64"/>
<path d="M23.4688 91.2969C23.4646 91.3178 23.4573 91.338 23.447 91.3567L23.3709 91.5251L23.0638 92.1692C22.792 92.7127 22.4088 93.5279 21.9414 94.5361C21.0064 96.5388 19.7671 99.3378 18.555 102.485C17.3429 105.631 16.3808 108.531 15.7122 110.637C15.3833 111.694 15.1251 112.539 14.9512 113.145L14.7419 113.833L14.6848 114.009C14.6848 114.047 14.6631 114.069 14.6604 114.066C14.6577 114.064 14.6604 114.045 14.6604 114.004L14.7039 113.825L14.8832 113.134C15.0409 112.536 15.2855 111.675 15.6035 110.615C16.2367 108.493 17.1907 105.585 18.4082 102.433C19.6258 99.2807 20.8787 96.4872 21.8381 94.4926C22.3164 93.4953 22.7159 92.6936 23.0013 92.1447L23.3329 91.5115L23.4226 91.3512C23.4358 91.3314 23.4513 91.3131 23.4688 91.2969V91.2969Z" fill="#263238"/>
<path d="M12.8536 115.43C12.8141 115.295 12.7868 115.157 12.7721 115.017C12.7313 114.745 12.6634 114.368 12.5682 113.895C12.3183 112.666 11.9721 111.458 11.5328 110.283C11.0865 109.11 10.5476 107.974 9.9211 106.887C9.67922 106.471 9.4781 106.137 9.33134 105.911C9.25127 105.796 9.18126 105.674 9.12207 105.547C9.21702 105.649 9.30252 105.76 9.37754 105.878C9.53789 106.099 9.75532 106.422 10.0081 106.838C10.6633 107.916 11.2182 109.052 11.6659 110.232C12.1102 111.413 12.4449 112.633 12.6661 113.876C12.7476 114.354 12.802 114.74 12.8264 115.012C12.8471 115.15 12.8562 115.29 12.8536 115.43V115.43Z" fill="#263238"/>
<path d="M19.5767 114.07H8.42285V116.345H19.5767V114.07Z" fill="#2D75D1"/>
<path d="M9.48535 116.344L10.6921 123.996H17.4322L18.5574 116.344H9.48535Z" fill="#2D75D1"/>
<path d="M18.8923 116.344C18.8923 116.382 16.7833 116.415 14.1797 116.415C11.576 116.415 9.46973 116.382 9.46973 116.344C9.46973 116.306 11.5787 116.273 14.1797 116.273C16.7806 116.273 18.8923 116.303 18.8923 116.344Z" fill="#263238"/>
<path d="M67.4668 118.353V123.995L78.8489 123.941C78.7674 122.796 72.5192 120.514 72.5192 120.514L72.6442 118.34L67.4668 118.353Z" fill="#455A64"/>
<g opacity="0.6">
<path opacity="0.6" d="M69.3121 120.004C69.2012 120.044 69.1088 120.124 69.0519 120.227C68.995 120.33 68.9773 120.451 69.0022 120.566C69.0282 120.68 69.0978 120.778 69.196 120.841C69.2941 120.903 69.413 120.925 69.5268 120.9C69.6443 120.856 69.742 120.771 69.8019 120.661C69.8618 120.551 69.8799 120.422 69.8529 120.3C69.8329 120.244 69.8019 120.192 69.7617 120.148C69.7215 120.103 69.673 120.068 69.6189 120.042C69.5648 120.017 69.5062 120.003 69.4465 120C69.3869 119.998 69.3273 120.007 69.2713 120.028" fill="white"/>
</g>
<path d="M67.4668 123.997V123.098L78.338 123.225C78.338 123.225 78.9033 123.565 78.8516 123.943L67.4668 123.997Z" fill="#263238"/>
<path d="M72.525 120.621C72.525 120.681 72.2532 120.711 71.9814 120.893C71.7096 121.075 71.571 121.333 71.5194 121.312C71.4678 121.29 71.5466 120.947 71.8754 120.722C72.2043 120.496 72.5358 120.567 72.525 120.621Z" fill="#263238"/>
<path d="M74.0169 121.143C74.0169 121.2 73.7913 121.303 73.6065 121.553C73.4217 121.803 73.3727 122.067 73.3184 122.064C73.264 122.062 73.2233 121.733 73.457 121.426C73.6907 121.119 74.0141 121.089 74.0169 121.143Z" fill="#263238"/>
<path d="M74.6886 122.582C74.637 122.596 74.5554 122.31 74.6886 121.982C74.8218 121.653 75.0827 121.528 75.1071 121.577C75.1316 121.626 74.974 121.799 74.8653 122.066C74.7566 122.332 74.743 122.577 74.6886 122.582Z" fill="#263238"/>
<path d="M72.4136 119.017C72.3919 119.072 72.1418 118.996 71.8238 119.017C71.5059 119.039 71.2803 119.153 71.2422 119.102C71.2042 119.05 71.4434 118.83 71.8103 118.814C72.1772 118.797 72.4408 118.971 72.4136 119.017Z" fill="#263238"/>
<path d="M72.4792 120.874C72.5099 120.762 72.5183 120.645 72.5036 120.529C72.4789 120.212 72.3752 119.907 72.202 119.64C72.0836 119.458 71.9325 119.298 71.7562 119.17C71.7043 119.126 71.6413 119.096 71.5739 119.084C71.5065 119.072 71.4372 119.078 71.373 119.102C71.3064 119.139 71.2506 119.193 71.211 119.259C71.1715 119.324 71.1496 119.398 71.1475 119.475C71.165 119.769 71.2694 120.051 71.4474 120.286C71.6254 120.522 71.869 120.699 72.1476 120.795C72.4203 120.882 72.7126 120.885 72.9869 120.803C73.2611 120.722 73.5046 120.56 73.6859 120.339C73.7749 120.237 73.8441 120.119 73.8897 119.991C73.9129 119.918 73.9129 119.839 73.8897 119.765C73.877 119.729 73.8566 119.695 73.8299 119.667C73.8032 119.639 73.7708 119.617 73.7348 119.602C73.6169 119.567 73.4901 119.58 73.3815 119.638C73.2873 119.681 73.1964 119.731 73.1097 119.787C72.8541 119.958 72.6336 120.177 72.4602 120.431C72.3893 120.521 72.3358 120.623 72.3025 120.733C72.5382 120.402 72.832 120.116 73.1695 119.89C73.3217 119.803 73.5228 119.678 73.6832 119.735C73.7538 119.763 73.781 119.847 73.7484 119.945C73.707 120.051 73.6462 120.149 73.569 120.233C73.4046 120.428 73.1859 120.57 72.9407 120.642C72.6954 120.713 72.4345 120.709 72.1911 120.632C71.9477 120.546 71.7338 120.393 71.5745 120.19C71.4152 119.987 71.317 119.742 71.2915 119.485C71.2896 119.436 71.3009 119.388 71.3244 119.345C71.3478 119.302 71.3825 119.266 71.4247 119.241C71.468 119.227 71.514 119.224 71.5586 119.233C71.6033 119.241 71.6451 119.261 71.6801 119.29C71.8446 119.404 71.9873 119.547 72.1014 119.711C72.2726 119.954 72.3869 120.233 72.4357 120.526C72.471 120.752 72.4656 120.874 72.4792 120.874Z" fill="#263238"/>
<path d="M63.3137 119.168L63.5066 120.621L63.3762 123.896L59.1092 123.999L58.957 120.621L59.4435 118.613L63.3137 119.168Z" fill="#455A64"/>
<path d="M61.2681 123.649C61.2409 123.649 61.3034 122.649 61.404 121.413C61.5045 120.176 61.6105 119.171 61.635 119.168C61.6595 119.165 61.5997 120.171 61.4991 121.407C61.3985 122.644 61.2925 123.649 61.2681 123.649Z" fill="#263238"/>
<path d="M63.3962 123.352L59.083 123.4V123.998L63.3989 123.996L63.3962 123.352Z" fill="#263238"/>
<path d="M59.0938 121.467C59.0938 121.467 59.1236 121.399 59.2025 121.296C59.3154 121.148 59.4429 121.011 59.583 120.888C59.7887 120.702 60.0203 120.547 60.2706 120.426C60.7082 120.212 61.2031 120.145 61.6821 120.233C62.1612 120.322 62.5991 120.562 62.9313 120.918C63.0568 121.058 63.162 121.214 63.2438 121.383C63.2785 121.442 63.3015 121.508 63.3118 121.576C63.1792 121.366 63.0301 121.167 62.8661 120.981C62.4393 120.56 61.8644 120.324 61.2653 120.323C60.6647 120.341 60.0887 120.566 59.6346 120.959C59.284 121.25 59.1101 121.484 59.0938 121.467Z" fill="#263238"/>
<path d="M61.2484 27.7657L61.2158 42.5105L67.5456 42.8122L67.7304 39.2252C67.7304 39.2252 69.978 39.6708 70.5569 37.5947C70.9292 36.2604 70.8287 25.9531 70.8287 25.9531L61.2484 27.7657Z" fill="#B78876"/>
<path d="M71.6551 26.9898C70.6576 27.2751 70.4402 28.892 70.4402 28.892L68.8775 32.3459C68.0811 31.7236 67.0103 31.7589 66.8092 33.1611C66.6625 34.172 67.9208 34.3758 67.9208 34.3758C67.187 35.6232 66.6924 36.6313 65.6243 37.8161C64.4773 39.1069 63.8251 39.2346 62.5749 39.251H61.1942C61.1942 39.251 60.5175 37.058 59.2673 31.5769C57.8812 25.4952 65.0725 26.2778 66.407 24.7262C68.5785 22.2017 74.805 26.0903 71.6551 26.9898Z" fill="#263238"/>
<path d="M73.4111 25.6637C73.356 25.3394 73.187 25.0453 72.9344 24.8346C72.6817 24.6238 72.3621 24.5102 72.0331 24.5142C72.136 24.3409 72.1744 24.1369 72.1416 23.938C72.1088 23.7392 72.0069 23.5583 71.8538 23.4272C71.6948 23.3024 71.5107 23.2135 71.3142 23.1666C71.1176 23.1197 70.9132 23.1159 70.715 23.1555C70.3186 23.2357 69.9359 23.373 69.579 23.5631C69.4456 23.169 69.1881 22.8286 68.8452 22.593C68.4761 22.3767 68.0522 22.2719 67.6249 22.2913C65.6816 22.2913 64.6598 23.6202 63.6161 24.9762C63.4639 25.2288 63.246 25.4354 62.9856 25.574C62.7961 25.6297 62.5984 25.6518 62.4013 25.6392C61.6588 25.6628 60.9357 25.8817 60.3049 26.2738C59.6741 26.666 59.1579 27.2176 58.8083 27.873C58.1289 29.1855 57.6207 32.2209 59.3818 34.1231L60.4417 36.49L70.5873 28.4518C70.6607 28.4898 71.2966 28.7996 71.7858 28.5442C73.0007 27.9029 72.4897 26.8376 72.4897 26.8376C72.5876 26.7697 73.5143 26.3159 73.4111 25.6637Z" fill="#263238"/>
<path d="M64.021 33.5742C64.1057 33.9442 64.0936 34.3299 63.9857 34.6938C63.9285 35.0695 63.7739 35.4237 63.5372 35.721C63.4937 35.6993 63.6976 35.2482 63.828 34.6585C63.9585 34.0688 63.9748 33.5742 64.021 33.5742Z" fill="#455A64"/>
<path d="M64.7876 32.8477C64.8407 33.2103 64.8204 33.58 64.7278 33.9346C64.6874 34.2962 64.5736 34.6457 64.3936 34.9618C64.4202 34.6048 64.4794 34.251 64.5702 33.9047C64.6091 33.5463 64.6819 33.1924 64.7876 32.8477Z" fill="#455A64"/>
<path d="M66.9778 30.4141C66.9941 30.4358 66.8148 30.5662 66.5865 30.8325C66.2955 31.1853 66.065 31.5838 65.9043 32.0119C65.7484 32.4449 65.6221 32.8879 65.5265 33.338C65.4997 33.5257 65.4467 33.7087 65.3689 33.8815C65.3574 33.6874 65.373 33.4926 65.4151 33.3027C65.4795 32.839 65.5934 32.3835 65.7548 31.944C65.9202 31.4982 66.1755 31.0912 66.5049 30.7483C66.6338 30.601 66.7959 30.4864 66.9778 30.4141V30.4141Z" fill="#455A64"/>
<path d="M67.8631 28.7578C67.8821 28.7578 67.9473 28.8991 67.9881 29.1546C68.034 29.4912 68.0146 29.8335 67.931 30.1627C67.8515 30.4926 67.7064 30.8031 67.5043 31.0758C67.3494 31.285 67.2325 31.3856 67.2081 31.372C67.1836 31.3584 67.5967 30.8638 67.7761 30.1247C67.9555 29.3855 67.8141 28.7632 67.8631 28.7578Z" fill="#455A64"/>
<path d="M60.3116 32.4401C60.2899 32.4808 60.0969 32.4129 59.8795 32.2906C59.6621 32.1683 59.5017 32.0406 59.5235 31.9999C59.5452 31.9591 59.7382 32.0298 59.9556 32.152C60.173 32.2743 60.3334 32.402 60.3116 32.4401Z" fill="#455A64"/>
<path d="M63.3686 30.8675C63.3933 31.0964 63.3291 31.326 63.1892 31.5088C62.9935 31.8322 62.7299 32.0007 62.7027 31.9681C62.6755 31.9355 62.8739 31.7235 63.0506 31.4246C63.2273 31.1257 63.3224 30.8566 63.3686 30.8675Z" fill="#455A64"/>
<path d="M64.3091 30.3633C64.3058 30.6418 64.2102 30.9113 64.0373 31.1296C63.7845 31.5155 63.4666 31.722 63.4421 31.6731C63.4176 31.6242 63.6677 31.4013 63.9041 31.0291C64.0261 30.7995 64.1613 30.5772 64.3091 30.3633Z" fill="#455A64"/>
<path d="M68.9833 24.18C68.9833 24.18 68.8637 24.0903 68.6354 23.9599C68.3086 23.7866 67.9453 23.6935 67.5755 23.6881C67.0271 23.6736 66.4863 23.818 66.0182 24.1039C65.4559 24.4732 64.9997 24.9827 64.6946 25.5822C64.461 26.0209 64.2786 26.485 64.151 26.9654L64.1239 27.0578L64.0396 27.0116C63.6037 26.7836 63.1209 26.6598 62.6291 26.6502C62.2387 26.6413 61.8497 26.7001 61.4794 26.8241C61.1499 26.9463 60.8346 27.1039 60.5391 27.2942C60.6 27.2215 60.6715 27.1583 60.7511 27.1067C60.9647 26.9511 61.1988 26.8258 61.4468 26.7344C61.8243 26.5907 62.2251 26.5179 62.6291 26.5197C63.145 26.5184 63.6538 26.6405 64.113 26.8757L64.0015 26.9246C64.1271 26.4323 64.3095 25.9563 64.5451 25.5061C64.8632 24.8821 65.3428 24.3547 65.9339 23.9789C66.4256 23.686 66.993 23.5451 67.5646 23.574C67.9496 23.5905 68.3239 23.7056 68.6517 23.9083C68.7391 23.9636 68.8202 24.0283 68.8936 24.1012C68.9615 24.1501 68.986 24.1773 68.9833 24.18Z" fill="#455A64"/>
<path d="M72.3128 24.9869C72.2992 24.9869 72.4868 24.9379 72.6743 25.1499C72.7284 25.2132 72.7693 25.2867 72.7945 25.366C72.8197 25.4454 72.8287 25.529 72.821 25.6119C72.8046 25.7224 72.7626 25.8276 72.6984 25.9191C72.6343 26.0106 72.5497 26.0859 72.4514 26.139C72.218 26.2714 71.9428 26.3094 71.6823 26.245C71.3959 26.1696 71.1271 26.0385 70.8914 25.8592C70.644 25.6618 70.3844 25.4803 70.1141 25.3157C69.8217 25.1575 69.5062 25.0466 69.1792 24.9869C68.544 24.8725 67.8903 24.9173 67.2767 25.1173C66.7728 25.2833 66.2971 25.5252 65.8662 25.8347C65.1269 26.3646 64.7627 26.8103 64.7383 26.7858C64.8114 26.6731 64.8961 26.5684 64.991 26.4733C65.2399 26.2052 65.5128 25.9605 65.8064 25.7423C66.2397 25.4118 66.7233 25.1531 67.2387 24.976C67.8769 24.7596 68.5596 24.7091 69.2227 24.8292C69.5661 24.8924 69.8973 25.0098 70.2038 25.1771C70.4771 25.341 70.7395 25.5226 70.9892 25.7206C71.2079 25.8925 71.4581 26.0199 71.7258 26.0956C71.9551 26.1586 72.1999 26.1324 72.4107 26.0222C72.4959 25.9787 72.5703 25.9165 72.6281 25.8403C72.686 25.7641 72.726 25.6758 72.745 25.582C72.7645 25.4366 72.7264 25.2894 72.639 25.1716C72.5556 25.0733 72.44 25.0078 72.3128 24.9869Z" fill="#455A64"/>
<path d="M101.802 36.3038C101.562 36.0919 98.3391 37.4424 98.3391 37.4424C98.3391 37.4424 95.9339 39.3446 94.9446 40.4452L94.3331 40.9534L85.185 48.065L73.9333 43.3855L71.4873 49.6601C71.4873 49.6601 84.1196 54.6901 86.0438 53.8287C88.1338 52.8939 95.9203 44.7442 95.9393 44.717L97.0645 43.6301C97.0645 43.6301 97.6597 43.6301 98.1109 43.592C98.562 43.554 99.8829 42.6871 99.8829 42.6871C100.008 42.4459 100.094 42.1863 100.138 41.9181C100.166 41.8112 100.157 41.6982 100.113 41.5972C100.068 41.4961 99.9911 41.413 99.8937 41.361C99.9397 41.1521 99.947 40.9366 99.9155 40.7251C99.8638 40.3664 99.3719 39.9506 99.3719 39.9506C99.5252 39.7944 99.63 39.5972 99.6736 39.3827C99.7823 38.9669 99.2469 38.5675 99.2469 38.5675C99.2469 38.5675 101.119 37.2957 101.573 37.0701C102.027 36.8446 102.041 36.5158 101.802 36.3038Z" fill="#B78876"/>
<path d="M75.5877 100.58C75.6258 100.167 75.6448 99.8488 75.6448 99.6504L76.9167 79.3701C76.9167 79.3701 75.8486 73.4461 75.3431 71.8754L70.8017 70.1172L64.7491 72.4732C64.7111 71.9868 64.6866 71.6852 64.6866 71.6852L55.7804 74.7668C55.7804 74.7668 55.5494 80.8457 55.7804 82.6963C55.8565 83.2914 56.0875 84.8268 56.3702 86.6366C56.3702 86.6366 56.6583 90.5687 56.718 90.7888C56.9328 91.5905 56.9898 93.5552 56.9898 95.5226C56.9898 98.0227 57.1257 100.998 57.2833 102.411C57.441 103.824 57.5144 119.379 57.5144 119.379H64.0914L64.9367 94.6069C65.078 91.9519 65.29 87.892 65.4259 84.9545L66.9696 94.1014C66.9696 94.4357 67.9099 99.6667 67.9099 99.6667C67.6928 101.313 67.5586 102.969 67.5077 104.629C67.399 109.248 66.8582 119.379 66.8582 119.379H73.2939C73.2939 119.379 75.229 104.738 75.604 100.58H75.5877Z" fill="#263238"/>
<path d="M76.7075 78.1585C76.4962 78.0787 76.2961 77.9718 76.1123 77.8406C75.6558 77.5478 75.2297 77.21 74.8404 76.8324C74.4511 76.4555 74.0997 76.0414 73.7913 75.596C73.6524 75.4183 73.5398 75.2215 73.457 75.0117C73.6061 75.1773 73.7441 75.3525 73.8701 75.5362C74.1978 75.96 74.5547 76.3605 74.9382 76.7346C75.3219 77.1048 75.7315 77.4472 76.164 77.7591C76.3545 77.8791 76.5361 78.0126 76.7075 78.1585V78.1585Z" fill="#455A64"/>
<path d="M65.2163 81.8429C65.1647 81.7825 65.1225 81.7147 65.0913 81.6418C64.9903 81.4511 64.8995 81.2552 64.8195 81.0548C64.5442 80.3951 64.3428 79.7071 64.2189 79.0031C64.0979 78.2989 64.0542 77.5836 64.0884 76.8699C64.1047 76.5982 64.1265 76.3781 64.1509 76.2259C64.1557 76.1457 64.1731 76.0669 64.2026 75.9922C64.2243 75.9922 64.2026 76.3319 64.189 76.8726C64.1808 77.5783 64.2372 78.2833 64.3575 78.9787C64.4775 79.6738 64.6594 80.3567 64.901 81.0195C65.094 81.5276 65.2353 81.832 65.2163 81.8429Z" fill="#455A64"/>
<path d="M66.1735 89.4786C66.1333 89.3641 66.1051 89.2457 66.0892 89.1254C66.0421 88.8681 65.9823 88.5447 65.9098 88.1552C65.7685 87.3047 65.5783 86.1851 65.3663 84.9459C65.0021 82.6714 64.7548 81.1225 64.6406 80.4023C64.7884 80.8282 64.8922 81.268 64.9505 81.7149C65.1081 82.5301 65.3038 83.6687 65.5103 84.9215C65.7169 86.1742 65.8881 87.3155 66.0077 88.1389C66.0593 88.5302 66.1055 88.8563 66.1409 89.1172C66.1651 89.2361 66.1761 89.3573 66.1735 89.4786V89.4786Z" fill="#455A64"/>
<path d="M50.6524 55.6484C50.6524 55.6484 49.7854 61.76 49.6224 63.9013C49.5245 65.1921 50.8345 66.8905 51.8346 67.0291C52.8348 67.1677 56.2049 67.3552 56.2049 67.3552L56.4766 63.5209L56.3897 62.7573L55.3433 62.5616L55.6586 56.48L50.6524 55.6484Z" fill="#B78876"/>
<path d="M55.5275 56.6875C55.5544 56.796 55.5681 56.9073 55.5682 57.019C55.5845 57.2337 55.5954 57.5435 55.6036 57.9294C55.6226 58.6957 55.6036 59.7582 55.5383 60.9186C55.4731 62.0789 55.378 63.1469 55.3046 63.9078C55.2638 64.2882 55.2312 64.598 55.2041 64.81C55.1979 64.9214 55.1788 65.0318 55.147 65.1388C55.1346 65.0277 55.1346 64.9156 55.147 64.8045C55.1606 64.56 55.1796 64.261 55.2013 63.8969C55.253 63.1007 55.3182 62.0599 55.3916 60.9077C55.465 59.7555 55.4921 58.6848 55.5003 57.9185C55.5003 57.5598 55.5003 57.2554 55.5003 57.0109C55.498 56.9024 55.5071 56.794 55.5275 56.6875V56.6875Z" fill="#AA6550"/>
<g opacity="0.3">
<path opacity="0.3" d="M55.8593 74.877C57.5715 75.5128 59.4467 75.5645 61.265 75.4069C63.0832 75.2492 64.8823 74.8824 66.7006 74.7112C69.4561 74.4537 72.235 74.6371 74.9328 75.2547C75.121 75.3118 75.3188 75.3303 75.5144 75.309C75.6115 75.2967 75.7026 75.2553 75.7758 75.1903C75.849 75.1254 75.9009 75.0398 75.9248 74.9449C75.9737 74.6405 75.6394 74.4286 75.3567 74.3117C72.246 73.0255 68.9019 72.3999 65.5365 72.4748C62.1711 72.5496 58.858 73.3232 55.8076 74.7465" fill="black"/>
</g>
<path d="M82.0751 46.1635L72.4215 41.359C70.8992 41.1804 69.3659 41.1132 67.8338 41.1579H61.4443C61.4443 41.1579 53.704 43.4406 52.4239 45.5466L49.1055 55.4925L55.6662 56.4816L56.4816 63.6285C56.4816 63.6285 55.6662 71.9032 55.6662 73.1043C55.6485 73.6606 55.6821 74.2173 55.7668 74.7674C55.7668 74.7674 68.8938 72.7728 72.1252 73.8244C75.3567 74.8761 76.2291 74.7674 76.2291 74.7674C76.2291 74.7674 75.9573 71.3325 75.7209 69.3325L74.9762 59.3594L74.4326 51.7506L80.5069 53.6093L82.0751 46.1635Z" fill="#2D75D1"/>
<path d="M55.6069 56.5633C55.5824 56.5633 55.5172 56.153 55.3731 55.4899C55.1813 54.6275 54.927 53.7801 54.6122 52.9546C54.2907 52.1228 53.9149 51.313 53.487 50.5306L53.0902 49.8186C53.034 49.7343 52.9893 49.6429 52.957 49.5469C53.028 49.6199 53.09 49.7011 53.1418 49.7887C53.2533 49.9491 53.4136 50.1855 53.5794 50.4844C54.0382 51.257 54.431 52.0669 54.7535 52.9056C55.0714 53.7372 55.3134 54.5958 55.4764 55.4709C55.5362 55.8052 55.5743 56.0769 55.5933 56.2671C55.61 56.3649 55.6146 56.4644 55.6069 56.5633Z" fill="#263238"/>
<path d="M67.986 59.3867C67.9809 59.4326 67.969 59.4775 67.9506 59.5199L67.8283 59.8867C67.774 60.0471 67.706 60.24 67.6163 60.4628C67.5267 60.6857 67.4315 60.9411 67.3065 61.2128C67.0701 61.7563 66.763 62.414 66.377 63.1151C65.9911 63.8162 65.5345 64.5607 65.0181 65.3162C64.5017 66.0717 63.931 66.7537 63.4173 67.357C62.9037 67.9603 62.39 68.4684 61.9497 68.8815C61.735 69.0935 61.5258 69.2701 61.3491 69.425C61.1724 69.5799 61.0121 69.7185 60.8816 69.8244L60.5772 70.0636C60.543 70.0937 60.5056 70.1201 60.4658 70.1424C60.4658 70.1424 60.4957 70.1043 60.5609 70.0418L60.8463 69.7701C60.9713 69.6614 61.1181 69.5228 61.2975 69.357C61.4768 69.1913 61.6725 69.0119 61.8818 68.7973C62.3112 68.3788 62.8004 67.857 63.3195 67.2592C63.8386 66.6613 64.3767 65.9711 64.904 65.2238C65.4312 64.4765 65.8824 63.7292 66.2629 63.0498C66.6434 62.3705 66.9668 61.7183 67.2141 61.1721C67.3446 60.9003 67.4451 60.6476 67.5402 60.4302C67.6354 60.2128 67.7142 60.0226 67.7767 59.865C67.8392 59.7074 67.8827 59.5932 67.9235 59.5063C67.9392 59.464 67.9602 59.4238 67.986 59.3867Z" fill="#263238"/>
<path d="M72.4461 42.0195C72.1921 42.3826 72.0188 42.7959 71.9379 43.2315C71.8563 43.7036 71.8563 44.1861 71.9379 44.6582C72.0432 45.2393 72.1793 45.8144 72.3455 46.381C72.6798 47.5985 73.0304 48.6827 73.2995 49.4654C73.4272 49.8349 73.5332 50.1447 73.6202 50.392C73.6652 50.5036 73.6998 50.6191 73.7235 50.7371C73.6601 50.634 73.6073 50.5248 73.5658 50.411C73.4762 50.1991 73.3484 49.8893 73.2017 49.5007C72.9081 48.7262 72.5385 47.6392 72.2042 46.4191C72.0417 45.85 71.9119 45.272 71.8156 44.6881C71.7358 44.2024 71.7431 43.7064 71.8373 43.2234C71.904 42.8974 72.0312 42.5867 72.2124 42.3076C72.2721 42.1981 72.3513 42.1005 72.4461 42.0195V42.0195Z" fill="#263238"/>
<path d="M54.2318 52.4869C54.0886 52.6415 53.912 52.7614 53.7154 52.8374C53.2535 53.0494 52.7397 53.1214 52.2374 53.0446C51.7351 52.9678 51.2663 52.7456 50.8889 52.4054C50.7244 52.2752 50.5923 52.1087 50.5029 51.9189C50.522 51.9026 50.6633 52.0956 50.9541 52.3293C51.3324 52.6351 51.7852 52.8347 52.2662 52.9078C52.7471 52.9809 53.2388 52.9247 53.6909 52.745C54.0252 52.6092 54.2182 52.4679 54.2318 52.4869Z" fill="white"/>
<path d="M72.7312 48.0039C72.7122 48.0762 72.6858 48.1463 72.6524 48.2132C72.5926 48.349 72.5002 48.5447 72.367 48.7893C71.9845 49.4829 71.5009 50.1157 70.932 50.667C70.0817 51.4921 69.0214 52.0683 67.8664 52.3328C67.1855 52.4889 66.4818 52.5192 65.79 52.4225C65.0497 52.3047 64.3375 52.0514 63.6891 51.6752C62.3547 50.9306 61.2268 49.9876 59.9929 49.5366C58.9015 49.1332 57.7139 49.0678 56.5848 49.349C55.8227 49.5319 55.1036 49.8614 54.4676 50.3192C54.0219 50.648 53.8126 50.879 53.8018 50.8627C53.992 50.6449 54.2042 50.4473 54.435 50.273C55.224 49.6751 56.1495 49.2833 57.128 49.1329C58.1064 48.9825 59.107 49.0783 60.0391 49.4116C61.3029 49.8681 62.4389 50.8138 63.7571 51.5475C64.3897 51.9201 65.0851 52.1743 65.809 52.2975C66.4851 52.3926 67.1729 52.365 67.8392 52.216C68.9737 51.9618 70.0181 51.4049 70.8614 50.6045C71.4322 50.0669 71.9228 49.4501 72.3181 48.7729C72.4567 48.5338 72.56 48.3409 72.6252 48.2104C72.6551 48.1389 72.6905 48.0699 72.7312 48.0039Z" fill="white"/>
<path d="M78.7754 44.5156C78.8291 44.6155 78.8711 44.7213 78.9004 44.8309C78.99 45.1249 79.0429 45.4288 79.0581 45.7358C79.1108 46.765 78.785 47.778 78.1422 48.5836C77.7687 48.997 77.3634 49.3805 76.93 49.7304C76.5899 50.0157 76.3123 50.3682 76.1147 50.7658C75.9811 51.0335 75.9184 51.331 75.9326 51.6299C75.9489 51.8419 75.9951 51.956 75.9815 51.9587C75.9679 51.9614 75.9625 51.9343 75.9407 51.8799C75.91 51.8013 75.889 51.7191 75.8782 51.6353C75.841 51.3244 75.8908 51.0092 76.0223 50.725C76.2133 50.3086 76.4913 49.938 76.8376 49.638C77.2594 49.2864 77.6563 48.906 78.0253 48.4994C78.6459 47.7169 78.9737 46.7423 78.9521 45.7439C78.9312 45.3299 78.8721 44.9187 78.7754 44.5156Z" fill="white"/>
<path d="M63.0756 67.4286C62.99 67.4744 62.8986 67.5082 62.8038 67.5292C62.5418 67.6041 62.2748 67.6604 62.0048 67.6976C61.5978 67.7652 61.1809 67.741 60.7845 67.627C60.5493 67.5523 60.332 67.4302 60.1458 67.2683C59.9586 67.0906 59.7843 66.8999 59.624 66.6976C59.4668 66.5051 59.2839 66.335 59.0804 66.1922C58.8868 66.066 58.6776 65.9655 58.458 65.8932C58.0819 65.773 57.6842 65.735 57.2921 65.7818C57.0263 65.8111 56.7673 65.8846 56.5257 65.9992C56.4385 66.048 56.3476 66.0898 56.2539 66.1242C56.3251 66.0529 56.4078 65.9941 56.4985 65.9503C56.739 65.8113 57.0037 65.7191 57.2785 65.6786C57.6855 65.6133 58.102 65.6421 58.4961 65.7628C58.7297 65.8345 58.952 65.9388 59.1565 66.0726C59.3737 66.2188 59.5678 66.3965 59.7327 66.5998C59.8887 66.7965 60.0576 66.9826 60.2382 67.1569C60.4106 67.3083 60.6109 67.4246 60.828 67.4993C61.2068 67.6113 61.6047 67.6437 61.9966 67.5944C62.657 67.5156 63.0702 67.4042 63.0756 67.4286Z" fill="white"/>
<path d="M75.5736 66.8482C75.5478 66.8762 75.5186 66.9008 75.4866 66.9216C75.3997 66.9868 75.309 67.0466 75.2149 67.1009C74.8772 67.307 74.5109 67.4618 74.1277 67.5602C73.552 67.7082 72.953 67.7433 72.3639 67.6635C71.6373 67.5651 70.9473 67.2847 70.3582 66.8482C69.7983 66.3961 69.263 65.9145 68.7546 65.4053C68.3387 65.001 67.8571 64.6702 67.3305 64.427C66.977 64.2632 66.5922 64.1779 66.2026 64.177C65.9309 64.177 65.7732 64.2232 65.7705 64.2068C65.8051 64.1906 65.8417 64.1788 65.8792 64.1715C65.984 64.1432 66.0915 64.1259 66.1999 64.1199C66.6016 64.1018 67.0021 64.1752 67.3713 64.3346C67.915 64.5707 68.4128 64.9009 68.8416 65.3101C69.339 65.7504 69.8336 66.2857 70.4424 66.7341C71.0129 67.1535 71.6789 67.4243 72.3802 67.5222C72.9539 67.6052 73.5379 67.5822 74.1033 67.4542C74.4816 67.3642 74.847 67.2263 75.1904 67.0439C75.314 66.9708 75.442 66.9055 75.5736 66.8482Z" fill="white"/>
<path d="M98.6755 28.1225C96.7015 27.1784 94.9785 25.7814 93.6468 24.0454C92.315 22.3094 91.4122 20.2834 91.0119 18.1324C90.6115 15.9815 90.725 13.7664 91.3429 11.6675C91.9609 9.56871 93.066 7.64551 94.5681 6.05458C96.0702 4.46364 97.927 3.24997 99.987 2.51239C102.047 1.77482 104.252 1.53421 106.423 1.81015C108.594 2.0861 110.669 2.87081 112.478 4.10036C114.288 5.3299 115.782 6.96953 116.839 8.88568V8.88568C118.261 11.4625 118.828 14.4246 118.457 17.3445C118.087 20.2644 116.799 22.9911 114.778 25.1313C112.757 27.2715 110.109 28.7146 107.214 29.2522C104.32 29.7898 101.33 29.3942 98.6755 28.1225V28.1225ZM110.259 3.89916C107.471 2.5685 104.299 2.27752 101.315 3.07868C98.3319 3.87984 95.7327 5.72044 93.9865 8.26861C92.2404 10.8168 91.4621 13.9049 91.7921 16.9761C92.1221 20.0474 93.5386 22.8997 95.7863 25.0189C98.034 27.138 100.965 28.3846 104.051 28.5338C107.136 28.683 110.174 27.725 112.615 25.8326C115.057 23.9401 116.742 21.2378 117.367 18.2127C117.992 15.1876 117.515 12.0388 116.023 9.33406C114.716 6.965 112.701 5.06447 110.259 3.89916V3.89916Z" fill="#263238"/>
<path d="M122.124 43.3262C121.734 43.566 121.265 43.6415 120.819 43.5361C120.373 43.4306 119.988 43.1529 119.746 42.7637L110.661 28.0378C110.619 27.9711 110.606 27.8907 110.624 27.8143C110.642 27.7379 110.689 27.6717 110.756 27.6302L112.694 26.4345C112.76 26.3942 112.839 26.381 112.914 26.3977C112.99 26.4144 113.056 26.4598 113.099 26.5242L122.654 40.8805C122.786 41.0741 122.876 41.2924 122.921 41.5221C122.965 41.7518 122.963 41.9882 122.913 42.2168C122.864 42.4455 122.768 42.6618 122.633 42.8524C122.497 43.0431 122.324 43.2043 122.124 43.3262V43.3262Z" fill="#263238"/>
<path d="M99.0098 27.4233C97.0346 26.4797 95.3104 25.0829 93.9775 23.3467C92.6446 21.6104 91.7408 19.5839 91.3397 17.4321C90.9386 15.2804 91.0517 13.0644 91.6696 10.9646C92.2874 8.86489 93.3927 6.94078 94.8953 5.34911C96.3979 3.75744 98.2554 2.54323 100.316 1.80541C102.377 1.06759 104.583 0.827038 106.755 1.10335C108.926 1.37966 111.002 2.16503 112.812 3.39545C114.623 4.62587 116.117 6.26654 117.173 8.18378V8.18378C118.594 10.7608 119.161 13.7226 118.79 16.6421C118.419 19.5617 117.131 22.288 115.11 24.4282C113.09 26.5683 110.442 28.0116 107.548 28.5499C104.655 29.0882 101.665 28.6937 99.0098 27.4233V27.4233ZM110.593 3.19998C107.805 1.86931 104.633 1.57833 101.65 2.3795C98.6662 3.18066 96.067 5.02125 94.3208 7.56943C92.5747 10.1176 91.7964 13.2057 92.1264 16.277C92.4564 19.3482 93.873 22.2005 96.1206 24.3197C98.3683 26.4389 101.299 27.6854 104.385 27.8346C107.471 27.9838 110.508 27.0258 112.95 25.1334C115.391 23.2409 117.077 20.5386 117.701 17.5135C118.326 14.4884 117.85 11.3396 116.357 8.63488C115.051 6.26582 113.035 4.36528 110.593 3.19998V3.19998Z" fill="#455A64"/>
<path d="M110.84 27.0706L113.275 25.5683L122.937 41.2281C123.126 41.5348 123.186 41.9041 123.103 42.2548C123.02 42.6054 122.801 42.9087 122.494 43.0979L122.353 43.1849C122.046 43.3741 121.677 43.4337 121.326 43.3507C120.975 43.2676 120.672 43.0486 120.483 42.7419L110.821 27.082L110.84 27.0706Z" fill="#455A64"/>
<path d="M94.6289 11.591C94.6418 11.446 94.6672 11.3023 94.705 11.1617C94.7372 10.9943 94.7798 10.8291 94.8327 10.6671C94.8942 10.4489 94.9668 10.2339 95.0502 10.0231L95.1888 9.65621C95.2404 9.52848 95.3084 9.40348 95.3709 9.26761C95.4932 8.99586 95.659 8.72412 95.8247 8.43879C96.2104 7.82678 96.6565 7.25506 97.1565 6.73223C97.6657 6.21968 98.2247 5.75906 98.8252 5.3572C99.0888 5.18513 99.361 5.02641 99.6405 4.88164C99.771 4.81371 99.896 4.74305 100.021 4.68599L100.385 4.53109C100.593 4.44185 100.805 4.36384 101.021 4.29739C101.182 4.23953 101.346 4.19233 101.513 4.15608C101.653 4.11637 101.796 4.08641 101.94 4.06641C101.806 4.12298 101.668 4.16931 101.527 4.205C101.363 4.25001 101.203 4.30445 101.046 4.36804C100.834 4.44032 100.626 4.52377 100.423 4.61805L100.067 4.77838C99.9422 4.83544 99.8199 4.90882 99.6922 4.97675C99.4204 5.10991 99.1703 5.28383 98.8904 5.45774C98.3044 5.85712 97.7583 6.31214 97.2597 6.81647C96.7662 7.33202 96.3231 7.89345 95.9362 8.49314C95.7704 8.76488 95.6019 9.03663 95.4769 9.30837C95.4143 9.43881 95.3437 9.56109 95.2893 9.6861L95.1371 10.0475C95.0339 10.2731 94.9714 10.4905 94.9034 10.678C94.845 10.8371 94.796 10.9995 94.7566 11.1644C94.7255 11.3098 94.6828 11.4525 94.6289 11.591V11.591Z" fill="#E0E0E0"/>
</svg>
