<svg width="165" height="114" viewBox="0 0 165 114" fill="none" xmlns="http://www.w3.org/2000/svg">
<g clip-path="url(#clip0)">
<path d="M157.32 22.1758H7.67983C5.64372 22.1735 3.69166 21.3697 2.25191 19.9406C0.812164 18.5115 0.00229971 16.5739 0 14.5529V7.62294C0.00229971 5.60191 0.812164 3.66431 2.25191 2.23523C3.69166 0.806146 5.64372 0.00228335 7.67983 0H157.32C159.356 0.00228268 161.308 0.806142 162.748 2.23523C164.188 3.66431 164.998 5.60191 165 7.62294V14.5529C164.998 16.5739 164.188 18.5115 162.748 19.9406C161.308 21.3697 159.356 22.1735 157.32 22.1758ZM7.67983 0.461994C5.76712 0.464146 3.93337 1.21929 2.58088 2.56177C1.22839 3.90424 0.46761 5.7244 0.465442 7.62294V14.5529C0.46761 16.4514 1.22839 18.2716 2.58088 19.614C3.93337 20.9565 5.76712 21.7117 7.67983 21.7138H157.32C159.233 21.7117 161.067 20.9565 162.419 19.614C163.772 18.2716 164.532 16.4514 164.535 14.5529V7.62294C164.532 5.7244 163.772 3.90424 162.419 2.56177C161.067 1.21929 159.233 0.464146 157.32 0.461994H7.67983Z" fill="#3F3D56"/>
<path d="M118.456 6.69922H19.0833C16.6413 6.69922 14.6616 8.66422 14.6616 11.0882V11.0882C14.6616 13.5121 16.6413 15.4771 19.0833 15.4771H118.456C120.898 15.4771 122.877 13.5121 122.877 11.0882C122.877 8.66422 120.898 6.69922 118.456 6.69922Z" fill="#E6E6E6"/>
<path d="M131.488 45.1914H32.1156C29.6735 45.1914 27.6938 47.1564 27.6938 49.5804V49.5804C27.6938 52.0043 29.6735 53.9693 32.1156 53.9693H131.488C133.93 53.9693 135.91 52.0043 135.91 49.5804C135.91 47.1564 133.93 45.1914 131.488 45.1914Z" fill="#2371DF"/>
<path d="M131.488 73.1016H32.1156C29.6735 73.1016 27.6938 75.0666 27.6938 77.4905V77.4905C27.6938 79.9145 29.6735 81.8795 32.1156 81.8795H131.488C133.93 81.8795 135.91 79.9145 135.91 77.4905C135.91 75.0666 133.93 73.1016 131.488 73.1016Z" fill="#E6E6E6"/>
<path d="M131.488 101.012H32.1156C29.6735 101.012 27.6938 102.977 27.6938 105.401V105.401C27.6938 107.825 29.6735 109.79 32.1156 109.79H131.488C133.93 109.79 135.91 107.825 135.91 105.401C135.91 102.977 133.93 101.012 131.488 101.012Z" fill="#E6E6E6"/>
<path d="M150.453 15.8292C150.347 15.9794 150.186 16.0816 150.004 16.1135C149.822 16.1453 149.635 16.1041 149.483 15.9989L145.684 13.3748C145.532 13.2696 145.429 13.1091 145.397 12.9285C145.365 12.748 145.407 12.5622 145.513 12.412C145.619 12.2618 145.78 12.1595 145.962 12.1277C146.144 12.0959 146.331 12.137 146.483 12.2422L150.282 14.8664C150.433 14.9716 150.536 15.1321 150.569 15.3126C150.601 15.4932 150.559 15.679 150.453 15.8292Z" fill="#2371DF"/>
<path d="M146.14 12.8471C145.579 13.6422 144.793 14.2543 143.882 14.6061C142.971 14.9579 141.975 15.0336 141.02 14.8235C140.065 14.6134 139.195 14.1271 138.519 13.426C137.842 12.7249 137.391 11.8405 137.221 10.8846C137.051 9.92877 137.171 8.94441 137.565 8.05601C137.958 7.16761 138.609 6.41508 139.434 5.89357C140.258 5.37207 141.22 5.105 142.198 5.12617C143.175 5.14733 144.125 5.45576 144.926 6.01246C145.999 6.75992 146.729 7.89928 146.957 9.18058C147.184 10.4619 146.891 11.7805 146.14 12.8471ZM139.053 7.92136C138.632 8.51766 138.399 9.22438 138.383 9.95215C138.367 10.6799 138.569 11.396 138.963 12.01C139.357 12.6239 139.925 13.1081 140.597 13.4012C141.268 13.6944 142.012 13.7834 142.734 13.657C143.456 13.5306 144.124 13.1944 144.654 12.6911C145.184 12.1877 145.551 11.5397 145.71 10.829C145.869 10.1183 145.812 9.37683 145.546 8.69839C145.28 8.01994 144.818 7.43497 144.217 7.01745C143.411 6.45866 142.415 6.24001 141.446 6.40947C140.478 6.57892 139.617 7.12265 139.053 7.92136Z" fill="#2371DF"/>
<path d="M153.015 58.1573H11.9852C11.9234 58.1573 11.8642 58.133 11.8206 58.0897C11.777 58.0463 11.7524 57.9876 11.7524 57.9263C11.7524 57.8651 11.777 57.8063 11.8206 57.763C11.8642 57.7197 11.9234 57.6953 11.9852 57.6953H153.015C153.077 57.6953 153.136 57.7197 153.179 57.763C153.223 57.8063 153.247 57.8651 153.247 57.9263C153.247 57.9876 153.223 58.0463 153.179 58.0897C153.136 58.133 153.077 58.1573 153.015 58.1573Z" fill="#3F3D56"/>
<path d="M153.015 86.0792H11.9852C11.9234 86.0792 11.8642 86.0548 11.8206 86.0115C11.777 85.9682 11.7524 85.9094 11.7524 85.8482C11.7524 85.7869 11.777 85.7282 11.8206 85.6848C11.8642 85.6415 11.9234 85.6172 11.9852 85.6172H153.015C153.077 85.6172 153.136 85.6415 153.179 85.6848C153.223 85.7282 153.247 85.7869 153.247 85.8482C153.247 85.9094 153.223 85.9682 153.179 86.0115C153.136 86.0548 153.077 86.0792 153.015 86.0792Z" fill="#3F3D56"/>
<path d="M153.015 114.001H11.9852C11.9234 114.001 11.8642 113.977 11.8206 113.933C11.777 113.89 11.7524 113.831 11.7524 113.77C11.7524 113.709 11.777 113.65 11.8206 113.607C11.8642 113.563 11.9234 113.539 11.9852 113.539H153.015C153.077 113.539 153.136 113.563 153.179 113.607C153.223 113.65 153.247 113.709 153.247 113.77C153.247 113.831 153.223 113.89 153.179 113.933C153.136 113.977 153.077 114.001 153.015 114.001Z" fill="#3F3D56"/>
</g>
<defs>
<clipPath id="clip0">
<rect width="165" height="114" fill="white"/>
</clipPath>
</defs>
</svg>
