<svg width="19" height="21" viewBox="0 0 19 21" fill="none" xmlns="http://www.w3.org/2000/svg">
<path d="M6.34375 9.43994H4.34375V11.4399H6.34375V9.43994ZM10.3438 9.43994H8.34375V11.4399H10.3438V9.43994ZM14.3438 9.43994H12.3438V11.4399H14.3438V9.43994ZM16.3438 2.43994H15.3438V0.439941H13.3438V2.43994H5.34375V0.439941H3.34375V2.43994H2.34375C1.23375 2.43994 0.35375 3.33994 0.35375 4.43994L0.34375 18.4399C0.34375 19.5399 1.23375 20.4399 2.34375 20.4399H16.3438C17.4438 20.4399 18.3438 19.5399 18.3438 18.4399V4.43994C18.3438 3.33994 17.4438 2.43994 16.3438 2.43994ZM16.3438 18.4399H2.34375V7.43994H16.3438V18.4399Z" fill="#EF504D"/>
<path d="M4.34375 13.5197H6.34375V15.5197H4.34375V13.5197Z" fill="#EF504D"/>
<path d="M8.34375 13.5197H10.3438V15.5197H8.34375V13.5197Z" fill="#EF504D"/>
<path d="M12.3438 13.5197H14.3438V15.5197H12.3438V13.5197Z" fill="#EF504D"/>
</svg>
