<svg version="1.1" id="Layer_1" xmlns="http://www.w3.org/2000/svg" xmlns:xlink="http://www.w3.org/1999/xlink" x="0px" y="0px"
	 width="100%" viewBox="80 350 1000 500" enable-background="new 0 0 1200 1200" xml:space="preserve">
<path fill="#03C3FF" opacity="1.000000" stroke="none" 
	d="
M643.931396,605.315186 
	C642.342285,602.166870 641.154114,599.178772 639.321289,596.659607 
	C636.221008,592.398376 632.606140,589.162964 626.461975,589.849670 
	C622.474060,590.295349 618.322083,589.272339 613.615356,588.851196 
	C616.305847,582.208862 620.146179,578.431946 626.546875,576.872375 
	C631.611938,575.638184 637.045654,574.339722 641.248657,571.493958 
	C648.517456,566.572388 651.564453,558.966370 649.948242,550.116882 
	C648.370789,541.479126 642.683044,536.132202 634.750488,533.113525 
	C625.836853,529.721497 616.759949,531.212585 607.239624,532.535522 
	C607.239624,568.891235 607.239624,605.099304 607.239624,641.653992 
	C600.880127,641.653992 594.994324,641.653992 588.644409,641.653992 
	C588.644409,639.961609 588.644409,638.324219 588.644409,636.686829 
	C588.644409,600.047485 588.722351,563.407837 588.536987,526.769409 
	C588.515869,522.611328 589.617981,520.817383 593.761108,520.272644 
	C609.737366,518.172058 625.757629,515.140137 641.666809,520.047485 
	C656.121460,524.506165 666.567322,533.304626 669.023865,549.116577 
	C671.270386,563.576721 664.212158,576.695251 651.110779,583.296265 
	C649.934753,583.888916 648.740417,584.445312 647.128357,585.224487 
	C657.466248,590.882874 661.224548,600.529968 664.196899,610.757019 
	C667.198486,621.084412 670.400757,631.353455 673.562622,641.805176 
	C667.553711,641.805176 661.450012,641.805176 654.728088,641.805176 
	C651.183777,629.824890 647.613159,617.755554 643.931396,605.315186 
z"/>
<path fill="#04C4FF" opacity="1.000000" stroke="none" 
	d="
M1008.401123,525.454285 
	C1022.460449,564.329468 1036.322754,602.855286 1050.324341,641.768188 
	C1043.662354,641.768188 1037.554932,641.768188 1031.041016,641.768188 
	C1019.773132,608.984009 1008.461243,576.071594 996.851562,542.292969 
	C990.067078,561.895264 983.561035,580.692810 976.898376,599.942993 
	C982.736267,599.942993 988.181519,599.942139 993.626831,599.943176 
	C1005.583984,599.945435 1008.093628,601.610718 1013.175720,613.563354 
	C1005.960388,613.563354 999.112305,613.578552 992.264343,613.558350 
	C986.991882,613.542847 981.712646,613.630859 976.449829,613.385315 
	C973.446289,613.245117 972.040771,614.442444 971.146423,617.211365 
	C968.489685,625.435852 965.616516,633.590332 962.810913,641.822266 
	C956.856140,641.822266 951.060242,641.822266 944.672485,641.822266 
	C947.695862,633.405334 950.587891,625.327942 953.498047,617.256958 
	C964.701721,586.185120 975.973694,555.137573 987.026367,524.012146 
	C988.192688,520.727661 989.672668,519.481628 993.061523,519.854004 
	C995.695679,520.143311 998.427246,520.204712 1001.043884,519.845520 
	C1005.323242,519.257935 1007.599426,520.924133 1008.401123,525.454285 
z"/>
<path fill="#04C4FF" opacity="1.000000" stroke="none" 
	d="
M374.138763,554.100708 
	C377.852661,543.905273 381.659912,534.154846 384.936035,524.229126 
	C386.108337,520.677429 387.819427,519.791809 391.323975,519.830750 
	C404.500366,519.977051 404.476898,519.864624 408.954407,532.307983 
	C421.654724,567.603394 434.378967,602.890320 447.082275,638.184631 
	C447.462769,639.241699 447.714966,640.344971 448.121124,641.753174 
	C441.678253,641.753174 435.577606,641.753174 429.036133,641.753174 
	C417.778473,608.999878 406.466064,576.087219 394.852661,542.298950 
	C388.070923,561.888062 381.565460,580.679138 374.896698,599.942017 
	C380.721802,599.942017 386.194489,600.324097 391.594299,599.859253 
	C401.575073,598.999939 407.889587,603.124084 410.964020,613.554932 
	C405.950500,613.554932 401.083160,613.568420 396.215942,613.551697 
	C388.967560,613.526917 381.715729,613.599792 374.472565,613.386292 
	C371.500977,613.298706 370.033539,614.385925 369.150665,617.188416 
	C366.902527,624.324951 364.364258,631.369568 362.041138,638.483337 
	C361.246033,640.917969 360.240723,642.327454 357.210999,642.097412 
	C352.588806,641.746521 347.920288,642.005493 342.643738,642.005493 
	C353.224426,612.491394 363.623444,583.483948 374.138763,554.100708 
z"/>
<path fill="#03C3FF" opacity="1.000000" stroke="none" 
	d="
M726.023010,519.914856 
	C745.974060,519.914856 765.429871,519.914856 785.119141,519.914856 
	C785.119141,524.449219 785.119141,528.558960 785.119141,533.157715 
	C767.951904,533.157715 750.874512,533.157715 733.402344,533.157715 
	C733.402344,564.985291 733.402344,596.330505 733.402344,628.333557 
	C751.450867,628.333557 769.491272,628.333557 787.720520,628.333557 
	C787.720520,633.088013 787.720520,637.188293 787.720520,641.646790 
	C763.472534,641.646790 739.281799,641.646790 714.881042,641.646790 
	C714.881042,601.156494 714.881042,560.742859 714.881042,519.914856 
	C718.584595,519.914856 722.056213,519.914856 726.023010,519.914856 
z"/>
<path fill="#01C3FF" opacity="1.000000" stroke="none" 
	d="
M523.238037,536.434814 
	C523.234192,571.691162 523.234192,606.487427 523.234192,641.641846 
	C517.271362,641.641846 511.518066,641.641846 505.150879,641.641846 
	C505.150879,605.815247 505.150879,569.803894 505.150879,533.241821 
	C493.322754,533.241821 482.086060,533.241821 470.578583,533.241821 
	C470.578583,528.616394 470.578583,524.545837 470.578583,520.195801 
	C499.696869,520.195801 528.578735,520.195801 557.730835,520.195801 
	C557.730835,524.411377 557.730835,528.489502 557.730835,533.232971 
	C547.729736,533.232971 537.809570,533.199402 527.890015,533.261414 
	C525.924194,533.273682 523.204346,532.370972 523.238037,536.434814 
z"/>
<path fill="#04C4FF" opacity="1.000000" stroke="none" 
	d="
M847.167664,536.785217 
	C856.052429,551.622620 864.874695,566.073975 873.375000,580.712341 
	C874.946411,583.418518 875.925293,586.869812 875.970459,589.994568 
	C876.217529,607.108765 876.088196,624.228455 876.088196,641.675171 
	C870.225891,641.675171 864.647461,641.675171 858.282410,641.675171 
	C858.282410,640.010803 858.282410,638.262207 858.282410,636.513672 
	C858.282410,622.203308 858.392944,607.891296 858.182800,593.584045 
	C858.143921,590.936340 857.341675,587.992065 855.991638,585.719360 
	C843.546021,564.768921 830.899963,543.937439 818.325256,523.063538 
	C817.839783,522.257690 817.486328,521.372253 816.776184,519.920410 
	C823.316956,519.920410 829.254089,519.758057 835.168640,520.051208 
	C836.419312,520.113220 837.934631,521.616150 838.731445,522.842651 
	C841.622864,527.293884 844.260742,531.909790 847.167664,536.785217 
z"/>
<path fill="#04C4FF" opacity="1.000000" stroke="none" 
	d="
M885.804016,570.864990 
	C884.127502,573.513123 882.636780,575.846130 881.058838,578.315552 
	C873.853210,568.887085 873.371948,561.672180 878.716309,552.350708 
	C884.240601,542.715332 889.653992,533.013367 894.923950,523.237061 
	C896.301514,520.681519 897.921387,519.711731 900.805725,519.847473 
	C905.756042,520.080505 910.725281,519.911865 916.798462,519.911865 
	C906.225098,537.290527 896.107422,553.920166 885.804016,570.864990 
z"/>
<path fill="#11C7FF" opacity="1.000000" stroke="none" 
	d="
M759.000366,584.759277 
	C752.378479,584.759216 746.256348,584.759216 740.114563,584.759216 
	C740.673035,577.599182 746.154663,571.647278 753.087952,571.349792 
	C761.683044,570.980835 770.305969,571.261353 779.336182,571.261353 
	C779.336182,575.745850 779.336182,579.926575 779.336182,584.759399 
	C772.662903,584.759399 766.081482,584.759399 759.000366,584.759277 
z"/>
<path fill="#624E7C" opacity="1.000000" stroke="none" 
	d="
M196.990204,684.865295 
	C194.303558,677.687378 196.401505,672.403625 202.418488,670.511292 
	C208.337509,668.649780 214.135284,672.183655 215.513519,678.504944 
	C216.459427,682.843262 214.416611,685.938354 211.085846,688.237732 
	C207.402756,690.780212 203.538300,690.231934 199.901825,688.016846 
	C198.811508,687.352661 198.038376,686.167664 196.990204,684.865295 
z"/>
<path fill="#624E7C" opacity="1.000000" stroke="none" 
	d="
M307.313843,639.170776 
	C313.610718,636.711792 318.050323,637.688782 320.793213,641.856445 
	C323.362762,645.760803 322.740753,651.313477 319.367676,654.581421 
	C315.239777,658.580688 308.619690,658.345398 304.756226,654.062073 
	C300.889130,649.774719 301.813385,643.729065 307.313843,639.170776 
z"/>
<path fill="#624E7C" opacity="1.000000" stroke="none" 
	d="
M120.318596,494.991455 
	C127.175583,493.060974 132.209885,495.379852 133.846542,500.901093 
	C135.426254,506.230225 131.992386,512.339478 126.598282,513.796570 
	C121.285110,515.231689 115.676651,511.892181 114.537285,506.315826 
	C113.522446,501.348938 115.698753,497.680634 120.318596,494.991455 
z"/>
<path fill="#624E7C" opacity="1.000000" stroke="none" 
	d="
M162.426132,653.973267 
	C163.399200,660.686523 161.829910,663.964905 157.008820,666.051392 
	C152.393372,668.048706 148.054794,666.921570 145.664688,662.957031 
	C144.014679,660.220093 143.457153,656.119202 144.039352,652.924500 
	C144.730774,649.130554 148.282150,647.233032 152.287354,646.997375 
	C157.252548,646.705078 160.366302,649.234070 162.426132,653.973267 
z"/>
<path fill="#624E7C" opacity="1.000000" stroke="none" 
	d="
M110.704895,548.100220 
	C116.952934,552.293091 118.610855,557.469238 115.662003,562.553406 
	C112.922264,567.277039 107.730476,568.967163 102.836159,566.728516 
	C98.744713,564.857117 96.340012,559.431580 97.658569,555.046814 
	C99.410500,549.221008 103.921906,546.711609 110.704895,548.100220 
z"/>
<path fill="#624E7C" opacity="1.000000" stroke="none" 
	d="
M323.565308,502.174469 
	C318.227661,502.393951 314.646484,500.427795 312.864471,495.585632 
	C311.398743,491.602783 312.139832,488.084106 315.088898,485.111237 
	C318.269653,481.904785 322.201904,481.418762 326.057922,483.318756 
	C330.026794,485.274353 332.516205,488.719391 331.923004,493.363007 
	C331.335205,497.964050 329.035156,501.432709 323.565308,502.174469 
z"/>
<path fill="#624E7C" opacity="1.000000" stroke="none" 
	d="
M155.382050,461.773987 
	C158.669067,455.642548 162.009644,453.665375 166.901962,454.659576 
	C171.482468,455.590393 174.701019,459.086060 175.010452,463.466125 
	C175.421463,469.283722 170.969574,474.009247 165.000244,474.091614 
	C158.306732,474.183990 154.690247,469.751648 155.382050,461.773987 
z"/>
<path fill="#624E7C" opacity="1.000000" stroke="none" 
	d="
M270.365814,683.259033 
	C264.313599,687.759094 257.965454,687.110168 254.594604,681.942139 
	C251.426483,677.084900 253.095917,670.898254 258.374878,667.933167 
	C262.200714,665.784363 267.361328,666.645142 270.606079,669.973450 
	C274.038574,673.494324 274.049561,677.520325 270.365814,683.259033 
z"/>
<path fill="#624E7C" opacity="1.000000" stroke="none" 
	d="
M226.587234,440.323425 
	C230.512238,444.835938 231.145660,449.064758 228.689240,452.671844 
	C225.818375,456.887512 220.763000,458.562378 216.108215,456.839874 
	C212.304123,455.432159 209.553955,450.772858 209.992752,446.479156 
	C210.759888,438.972656 218.949738,435.750397 226.587234,440.323425 
z"/>
<path fill="#624E7C" opacity="1.000000" stroke="none" 
	d="
M284.832825,463.700317 
	C281.277374,467.367828 277.071716,469.284943 272.989685,466.668854 
	C270.297089,464.943268 268.083984,461.465820 267.104095,458.321533 
	C265.837494,454.257263 268.321716,451.003723 272.073181,449.007446 
	C276.096222,446.866730 279.969940,447.691956 283.194244,450.402161 
	C286.288239,453.002869 287.624908,456.594543 286.343201,460.724670 
	C286.053497,461.658234 285.495026,462.508423 284.832825,463.700317 
z"/>
<path fill="#624E7C" opacity="1.000000" stroke="none" 
	d="
M112.799667,621.425537 
	C107.663010,617.425476 106.240837,611.837463 109.013466,607.439209 
	C111.754883,603.090454 117.738083,601.446045 122.019218,603.864685 
	C126.483627,606.387024 128.508270,611.984375 126.644508,616.652161 
	C124.496170,622.032654 119.731628,623.798950 112.799667,621.425537 
z"/>
<path fill="#C388B9" opacity="1.000000" stroke="none" 
	d="
M293.270966,516.555115 
	C290.388763,509.269684 293.057526,504.532227 299.408905,504.927155 
	C303.552460,505.184814 306.227417,508.293335 305.992859,512.578308 
	C305.755951,516.906921 302.814056,519.542114 298.361664,518.972168 
	C296.677094,518.756470 295.110840,517.616028 293.270966,516.555115 
z"/>
<path fill="#C388B9" opacity="1.000000" stroke="none" 
	d="
M216.102463,641.517517 
	C220.728363,644.100586 221.366821,647.826416 219.458160,651.811340 
	C217.757507,655.362122 214.177811,655.881470 210.825699,654.748596 
	C207.427170,653.600037 205.483902,650.994873 205.998489,647.057312 
	C206.532211,642.973450 210.203308,640.776184 216.102463,641.517517 
z"/>
<path fill="#C388B9" opacity="1.000000" stroke="none" 
	d="
M262.178406,479.883759 
	C267.649292,478.480316 271.255493,479.950470 272.585754,484.137848 
	C273.637787,487.449707 272.985992,490.369781 269.630676,492.206055 
	C265.931183,494.230682 262.496185,493.952759 260.032227,490.431610 
	C257.335114,486.577271 258.336456,483.004181 262.178406,479.883759 
z"/>
<path fill="#C388B9" opacity="1.000000" stroke="none" 
	d="
M143.196487,602.279846 
	C142.103531,597.083679 143.918243,593.422852 148.594894,592.364502 
	C152.196915,591.549438 155.438965,593.440613 156.644653,597.286682 
	C157.759674,600.843506 156.559540,603.879578 153.398071,605.831848 
	C148.934952,608.587952 145.979874,605.958435 143.196487,602.279846 
z"/>
<path fill="#C388B9" opacity="1.000000" stroke="none" 
	d="
M296.576782,620.283569 
	C301.868408,625.314575 297.762848,632.927795 293.520660,632.772827 
	C290.936584,632.678406 287.151428,631.476196 286.195465,629.602966 
	C285.059387,627.376770 285.421875,623.250793 286.863068,621.113098 
	C288.973541,617.982788 292.836639,618.207214 296.576782,620.283569 
z"/>
<path fill="#C388B9" opacity="1.000000" stroke="none" 
	d="
M146.038574,562.995361 
	C142.782928,565.554443 139.873810,565.977234 136.796600,563.416687 
	C133.867325,560.979187 133.218185,558.145203 134.648804,554.614258 
	C136.263809,550.628113 139.534286,550.567444 142.909164,551.002014 
	C147.822281,551.634705 149.399673,557.150696 146.038574,562.995361 
z"/>
<path fill="#C388B9" opacity="1.000000" stroke="none" 
	d="
M189.241364,485.622803 
	C192.753342,489.612762 192.986084,493.403046 189.795990,496.301483 
	C186.815002,499.009949 183.386993,498.689026 180.206497,496.566681 
	C177.183289,494.549286 176.590988,490.276947 179.046768,486.949280 
	C181.699905,483.354156 185.173950,482.921570 189.241364,485.622803 
z"/>
<path fill="#C388B9" opacity="1.000000" stroke="none" 
	d="
M162.734589,521.603760 
	C160.826981,525.821838 158.534866,528.481995 153.566055,527.432922 
	C149.343475,526.541382 148.364136,523.295105 148.346146,520.146912 
	C148.325882,516.601257 150.972305,514.027222 154.451599,513.351013 
	C157.771042,512.705872 160.573547,514.094849 161.874710,517.513550 
	C162.331161,518.712830 162.549423,520.002747 162.734589,521.603760 
z"/>
<path fill="#C388B9" opacity="1.000000" stroke="none" 
	d="
M182.999680,635.843994 
	C179.078735,640.600830 174.924667,641.240356 171.506378,637.978394 
	C168.284027,634.903381 168.090332,630.335571 171.914276,627.779236 
	C173.974838,626.401794 177.752533,625.861633 179.939987,626.814941 
	C183.146713,628.212402 185.067978,631.476990 182.999680,635.843994 
z"/>
<path fill="#C388B9" opacity="1.000000" stroke="none" 
	d="
M258.295959,639.208801 
	C262.010681,642.061584 263.376099,645.542908 261.021576,649.273804 
	C259.097046,652.323364 256.216797,653.956726 252.134109,652.199463 
	C248.077042,650.453125 247.348206,647.373169 248.070679,643.755920 
	C248.772964,640.239685 251.260239,638.563354 254.943283,638.903442 
	C255.927612,638.994385 256.917969,639.019958 258.295959,639.208801 
z"/>
<path fill="#C388B9" opacity="1.000000" stroke="none" 
	d="
M226.579041,470.337219 
	C231.006577,476.952118 229.140625,483.160858 222.948135,482.891083 
	C220.457764,482.782623 217.238815,481.102905 215.884644,479.101105 
	C214.835281,477.549957 215.442764,473.932922 216.617905,472.046814 
	C218.314590,469.323608 221.346207,467.977356 224.792847,469.792755 
	C225.215912,470.015564 225.749664,470.028259 226.579041,470.337219 
z"/>
</svg>